%FSLAX25Y25*%
%MOIN*%
G70*
G01*
G75*
G04 Layer_Color=32896*
%ADD10C,0.01969*%
%ADD11C,0.01575*%
%ADD12C,0.00984*%
%ADD13C,0.01181*%
%ADD14R,0.02953X0.02362*%
%ADD15R,0.07087X0.02756*%
%ADD16R,0.02362X0.02953*%
%ADD17C,0.07874*%
%ADD18C,0.05906*%
%ADD19C,0.03937*%
%ADD20R,0.05906X0.05906*%
%ADD21C,0.03543*%
%ADD22C,0.02362*%
%ADD23C,0.03150*%
%ADD24R,0.03937X0.06890*%
%ADD25C,0.01000*%
%ADD26C,0.01969*%
%ADD27C,0.00787*%
%ADD28C,0.00100*%
%ADD29C,0.00591*%
%ADD30R,0.03753X0.03162*%
%ADD31R,0.07887X0.03556*%
%ADD32R,0.03162X0.03753*%
%ADD33C,0.08674*%
%ADD34C,0.06706*%
%ADD35C,0.04737*%
%ADD36R,0.06706X0.06706*%
%ADD37C,0.04343*%
%ADD38C,0.03162*%
%ADD39R,0.04737X0.07690*%
%ADD40C,0.00394*%
D25*
X111356Y44368D02*
X112355Y45368D01*
X114355D01*
X115354Y44368D01*
Y40370D01*
X114355Y39370D01*
X112355D01*
X111356Y40370D01*
X106357Y39370D02*
Y45368D01*
X109356Y42369D01*
X105358D01*
X-109511Y44368D02*
X-108511Y45368D01*
X-106511D01*
X-105512Y44368D01*
Y40370D01*
X-106511Y39370D01*
X-108511D01*
X-109511Y40370D01*
X-111510Y39370D02*
X-113509D01*
X-112510D01*
Y45368D01*
X-111510Y44368D01*
X-42581D02*
X-41582Y45368D01*
X-39582D01*
X-38583Y44368D01*
Y40370D01*
X-39582Y39370D01*
X-41582D01*
X-42581Y40370D01*
X-48579Y39370D02*
X-44581D01*
X-48579Y43369D01*
Y44368D01*
X-47580Y45368D01*
X-45580D01*
X-44581Y44368D01*
X44427D02*
X45426Y45368D01*
X47425D01*
X48425Y44368D01*
Y40370D01*
X47425Y39370D01*
X45426D01*
X44427Y40370D01*
X42427Y44368D02*
X41427Y45368D01*
X39428D01*
X38428Y44368D01*
Y43369D01*
X39428Y42369D01*
X40428D01*
X39428D01*
X38428Y41369D01*
Y40370D01*
X39428Y39370D01*
X41427D01*
X42427Y40370D01*
X-137309Y-394D02*
X-143307Y3605D01*
X-137309D02*
X-143307Y-394D01*
Y5604D02*
X-137309D01*
Y8603D01*
X-138309Y9603D01*
X-140308D01*
X-141308Y8603D01*
Y5604D01*
X-143307Y11602D02*
Y13602D01*
Y12602D01*
X-137309D01*
X-138309Y11602D01*
X142612Y-787D02*
X136614Y3211D01*
X142612D02*
X136614Y-787D01*
Y5211D02*
X142612D01*
Y8210D01*
X141613Y9209D01*
X139613D01*
X138613Y8210D01*
Y5211D01*
X136614Y15207D02*
Y11209D01*
X140613Y15207D01*
X141613D01*
X142612Y14208D01*
Y12208D01*
X141613Y11209D01*
D27*
X-112992Y37500D02*
X-107480D01*
X-112992Y31398D02*
X-107480D01*
X-46063Y37500D02*
X-40551D01*
X-46063Y31398D02*
X-40551D01*
X40551Y37500D02*
X46063D01*
X40551Y31398D02*
X46063D01*
X107480Y37500D02*
X112992D01*
X107480Y31398D02*
X112992D01*
D40*
X145177Y-44803D02*
X146653Y-43327D01*
X152559D01*
X154035Y-44803D01*
Y-50709D02*
Y-44803D01*
X152559Y-52185D02*
X154035Y-50709D01*
X146653Y-52185D02*
X152559D01*
X145177Y-50709D02*
X146653Y-52185D01*
X145177Y-50709D02*
Y-44803D01*
Y-34803D02*
X146653Y-33327D01*
X152559D01*
X154035Y-34803D01*
Y-40709D02*
Y-34803D01*
X152559Y-42185D02*
X154035Y-40709D01*
X146653Y-42185D02*
X152559D01*
X145177Y-40709D02*
X146653Y-42185D01*
X145177Y-40709D02*
Y-34803D01*
Y-24803D02*
X146653Y-23327D01*
X152559D01*
X154035Y-24803D01*
Y-30709D02*
Y-24803D01*
X152559Y-32185D02*
X154035Y-30709D01*
X146653Y-32185D02*
X152559D01*
X145177Y-30709D02*
X146653Y-32185D01*
X145177Y-30709D02*
Y-24803D01*
Y-14803D02*
X146653Y-13327D01*
X152559D01*
X154035Y-14803D01*
Y-20709D02*
Y-14803D01*
X152559Y-22185D02*
X154035Y-20709D01*
X146653Y-22185D02*
X152559D01*
X145177Y-20709D02*
X146653Y-22185D01*
X145177Y-20709D02*
Y-14803D01*
Y-4803D02*
X146653Y-3327D01*
X152559D01*
X154035Y-4803D01*
Y-10709D02*
Y-4803D01*
X152559Y-12185D02*
X154035Y-10709D01*
X146653Y-12185D02*
X152559D01*
X145177Y-10709D02*
X146653Y-12185D01*
X145177Y-10709D02*
Y-4803D01*
Y29331D02*
Y35236D01*
Y29331D02*
X146653Y27854D01*
X152559D01*
X154035Y29331D01*
Y35236D01*
X152559Y36713D02*
X154035Y35236D01*
X146653Y36713D02*
X152559D01*
X145177Y35236D02*
X146653Y36713D01*
X145177Y25197D02*
X146653Y26673D01*
X152559D01*
X154035Y25197D01*
Y19291D02*
Y25197D01*
X152559Y17815D02*
X154035Y19291D01*
X146653Y17815D02*
X152559D01*
X145177Y19291D02*
X146653Y17815D01*
X145177Y19291D02*
Y25197D01*
Y9291D02*
Y15197D01*
Y9291D02*
X146653Y7815D01*
X152559D01*
X154035Y9291D01*
Y15197D01*
X152559Y16673D02*
X154035Y15197D01*
X146653Y16673D02*
X152559D01*
X145177Y15197D02*
X146653Y16673D01*
X145177Y-709D02*
Y5197D01*
Y-709D02*
X146653Y-2185D01*
X152559D01*
X154035Y-709D01*
Y5197D01*
X152559Y6673D02*
X154035Y5197D01*
X146653Y6673D02*
X152559D01*
X145177Y5197D02*
X146653Y6673D01*
X154035Y39370D02*
Y45276D01*
X152559Y46752D02*
X154035Y45276D01*
X146653Y46752D02*
X152559D01*
X145177Y45276D02*
X146653Y46752D01*
X145177Y39370D02*
Y45276D01*
Y39370D02*
X146653Y37894D01*
X152559D01*
X154035Y39370D01*
Y49370D02*
Y55276D01*
X152559Y56752D02*
X154035Y55276D01*
X146653Y56752D02*
X152559D01*
X145177Y55276D02*
X146653Y56752D01*
X145177Y49370D02*
Y55276D01*
Y49370D02*
X146653Y47894D01*
X152559D01*
X154035Y49370D01*
Y59370D02*
Y65276D01*
X152559Y66752D02*
X154035Y65276D01*
X146653Y66752D02*
X152559D01*
X145177Y65276D02*
X146653Y66752D01*
X145177Y59370D02*
Y65276D01*
Y59370D02*
X146653Y57894D01*
X152559D01*
X154035Y59370D01*
X-154035Y-44803D02*
X-152559Y-43327D01*
X-146653D01*
X-145177Y-44803D01*
Y-50709D02*
Y-44803D01*
X-146653Y-52185D02*
X-145177Y-50709D01*
X-152559Y-52185D02*
X-146653D01*
X-154035Y-50709D02*
X-152559Y-52185D01*
X-154035Y-50709D02*
Y-44803D01*
Y-34803D02*
X-152559Y-33327D01*
X-146653D01*
X-145177Y-34803D01*
Y-40709D02*
Y-34803D01*
X-146653Y-42185D02*
X-145177Y-40709D01*
X-152559Y-42185D02*
X-146653D01*
X-154035Y-40709D02*
X-152559Y-42185D01*
X-154035Y-40709D02*
Y-34803D01*
Y-24803D02*
X-152559Y-23327D01*
X-146653D01*
X-145177Y-24803D01*
Y-30709D02*
Y-24803D01*
X-146653Y-32185D02*
X-145177Y-30709D01*
X-152559Y-32185D02*
X-146653D01*
X-154035Y-30709D02*
X-152559Y-32185D01*
X-154035Y-30709D02*
Y-24803D01*
Y-14803D02*
X-152559Y-13327D01*
X-146653D01*
X-145177Y-14803D01*
Y-20709D02*
Y-14803D01*
X-146653Y-22185D02*
X-145177Y-20709D01*
X-152559Y-22185D02*
X-146653D01*
X-154035Y-20709D02*
X-152559Y-22185D01*
X-154035Y-20709D02*
Y-14803D01*
Y-4803D02*
X-152559Y-3327D01*
X-146653D01*
X-145177Y-4803D01*
Y-10709D02*
Y-4803D01*
X-146653Y-12185D02*
X-145177Y-10709D01*
X-152559Y-12185D02*
X-146653D01*
X-154035Y-10709D02*
X-152559Y-12185D01*
X-154035Y-10709D02*
Y-4803D01*
Y29331D02*
Y35236D01*
Y29331D02*
X-152559Y27854D01*
X-146653D01*
X-145177Y29331D01*
Y35236D01*
X-146653Y36713D02*
X-145177Y35236D01*
X-152559Y36713D02*
X-146653D01*
X-154035Y35236D02*
X-152559Y36713D01*
X-154035Y25197D02*
X-152559Y26673D01*
X-146653D01*
X-145177Y25197D01*
Y19291D02*
Y25197D01*
X-146653Y17815D02*
X-145177Y19291D01*
X-152559Y17815D02*
X-146653D01*
X-154035Y19291D02*
X-152559Y17815D01*
X-154035Y19291D02*
Y25197D01*
Y9291D02*
Y15197D01*
Y9291D02*
X-152559Y7815D01*
X-146653D01*
X-145177Y9291D01*
Y15197D01*
X-146653Y16673D02*
X-145177Y15197D01*
X-152559Y16673D02*
X-146653D01*
X-154035Y15197D02*
X-152559Y16673D01*
X-154035Y-709D02*
Y5197D01*
Y-709D02*
X-152559Y-2185D01*
X-146653D01*
X-145177Y-709D01*
Y5197D01*
X-146653Y6673D02*
X-145177Y5197D01*
X-152559Y6673D02*
X-146653D01*
X-154035Y5197D02*
X-152559Y6673D01*
X-145177Y39370D02*
Y45276D01*
X-146653Y46752D02*
X-145177Y45276D01*
X-152559Y46752D02*
X-146653D01*
X-154035Y45276D02*
X-152559Y46752D01*
X-154035Y39370D02*
Y45276D01*
Y39370D02*
X-152559Y37894D01*
X-146653D01*
X-145177Y39370D01*
Y49370D02*
Y55276D01*
X-146653Y56752D02*
X-145177Y55276D01*
X-152559Y56752D02*
X-146653D01*
X-154035Y55276D02*
X-152559Y56752D01*
X-154035Y49370D02*
Y55276D01*
Y49370D02*
X-152559Y47894D01*
X-146653D01*
X-145177Y49370D01*
Y59370D02*
Y65276D01*
X-146653Y66752D02*
X-145177Y65276D01*
X-152559Y66752D02*
X-146653D01*
X-154035Y65276D02*
X-152559Y66752D01*
X-154035Y59370D02*
Y65276D01*
Y59370D02*
X-152559Y57894D01*
X-146653D01*
X-145177Y59370D01*
M02*
