%FSLAX25Y25*%
%MOIN*%
G70*
G01*
G75*
G04 Layer_Color=16711935*
%ADD10C,0.01969*%
%ADD11C,0.01575*%
%ADD12C,0.00984*%
%ADD13C,0.01181*%
%ADD14R,0.02953X0.02362*%
%ADD15R,0.07087X0.02756*%
%ADD16R,0.02362X0.02953*%
%ADD17C,0.07874*%
%ADD18C,0.05906*%
%ADD19C,0.03937*%
%ADD20R,0.05906X0.05906*%
%ADD21C,0.03543*%
%ADD22C,0.02362*%
%ADD23C,0.03150*%
%ADD24R,0.03937X0.06890*%
%ADD25C,0.01000*%
%ADD26C,0.01969*%
%ADD27C,0.00787*%
%ADD28C,0.00100*%
%ADD29C,0.00591*%
%ADD30R,0.03753X0.03162*%
%ADD31R,0.07887X0.03556*%
%ADD32R,0.03162X0.03753*%
%ADD33C,0.08674*%
%ADD34C,0.06706*%
%ADD35C,0.04737*%
%ADD36R,0.06706X0.06706*%
%ADD37C,0.04343*%
%ADD38C,0.03162*%
%ADD39R,0.04737X0.07690*%
D33*
X149606Y-47717D02*
D03*
Y-37716D02*
D03*
Y-27716D02*
D03*
Y-17717D02*
D03*
Y-7717D02*
D03*
Y32283D02*
D03*
Y22284D02*
D03*
Y12284D02*
D03*
Y2283D02*
D03*
Y42283D02*
D03*
Y52284D02*
D03*
Y62283D02*
D03*
X-149606Y-47717D02*
D03*
Y-37716D02*
D03*
Y-27716D02*
D03*
Y-17717D02*
D03*
Y-7717D02*
D03*
Y32283D02*
D03*
Y22284D02*
D03*
Y12284D02*
D03*
Y2283D02*
D03*
Y42283D02*
D03*
Y52284D02*
D03*
Y62283D02*
D03*
D34*
X95472Y54134D02*
D03*
Y63976D02*
D03*
Y44291D02*
D03*
Y34449D02*
D03*
Y24606D02*
D03*
Y14764D02*
D03*
X95473Y4921D02*
D03*
X125000D02*
D03*
X125000Y14764D02*
D03*
Y24606D02*
D03*
Y34449D02*
D03*
Y44291D02*
D03*
X125000Y73819D02*
D03*
X125000Y63976D02*
D03*
Y54134D02*
D03*
X95473Y73819D02*
D03*
X28543Y54134D02*
D03*
Y63976D02*
D03*
Y44291D02*
D03*
Y34449D02*
D03*
Y24606D02*
D03*
Y14764D02*
D03*
X28543Y4921D02*
D03*
X58071D02*
D03*
X58071Y14764D02*
D03*
Y24606D02*
D03*
Y34449D02*
D03*
Y44291D02*
D03*
X58071Y73819D02*
D03*
X58071Y63976D02*
D03*
Y54134D02*
D03*
X28543Y73819D02*
D03*
X-58071Y54134D02*
D03*
Y63976D02*
D03*
Y44291D02*
D03*
Y34449D02*
D03*
Y24606D02*
D03*
Y14764D02*
D03*
X-58071Y4921D02*
D03*
X-28543D02*
D03*
X-28543Y14764D02*
D03*
Y24606D02*
D03*
Y34449D02*
D03*
Y44291D02*
D03*
X-28543Y73819D02*
D03*
X-28543Y63976D02*
D03*
Y54134D02*
D03*
X-58071Y73819D02*
D03*
X-125000Y54134D02*
D03*
Y63976D02*
D03*
Y44291D02*
D03*
Y34449D02*
D03*
Y24606D02*
D03*
Y14764D02*
D03*
X-125000Y4921D02*
D03*
X-95473D02*
D03*
X-95472Y14764D02*
D03*
Y24606D02*
D03*
Y34449D02*
D03*
Y44291D02*
D03*
X-95473Y73819D02*
D03*
X-95472Y63976D02*
D03*
Y54134D02*
D03*
X-125000Y73819D02*
D03*
X0Y75866D02*
D03*
D35*
X106467Y-54660D02*
D03*
X99793Y-51157D02*
D03*
X95511Y-44954D02*
D03*
X94603Y-37472D02*
D03*
X97276Y-30424D02*
D03*
X102918Y-25426D02*
D03*
X114005Y-54660D02*
D03*
X120679Y-51157D02*
D03*
X124961Y-44954D02*
D03*
X125869Y-37472D02*
D03*
X123196Y-30424D02*
D03*
X117555Y-25426D02*
D03*
X110236Y-23622D02*
D03*
X-76772Y70866D02*
D03*
X76772D02*
D03*
X141732Y37795D02*
D03*
X-47076Y-54660D02*
D03*
X-53750Y-51157D02*
D03*
X-58032Y-44954D02*
D03*
X-58940Y-37472D02*
D03*
X-56267Y-30424D02*
D03*
X-50625Y-25426D02*
D03*
X-39538Y-54660D02*
D03*
X-32864Y-51157D02*
D03*
X-28582Y-44954D02*
D03*
X-27674Y-37472D02*
D03*
X-30347Y-30424D02*
D03*
X-35989Y-25426D02*
D03*
X-43307Y-23622D02*
D03*
X39538Y-54660D02*
D03*
X32864Y-51157D02*
D03*
X28582Y-44954D02*
D03*
X27674Y-37472D02*
D03*
X30347Y-30424D02*
D03*
X35989Y-25426D02*
D03*
X47076Y-54660D02*
D03*
X53750Y-51157D02*
D03*
X58032Y-44954D02*
D03*
X58940Y-37472D02*
D03*
X56267Y-30424D02*
D03*
X50625Y-25426D02*
D03*
X43307Y-23622D02*
D03*
X-114005Y-54660D02*
D03*
X-120679Y-51157D02*
D03*
X-124961Y-44954D02*
D03*
X-125869Y-37472D02*
D03*
X-123196Y-30424D02*
D03*
X-117555Y-25426D02*
D03*
X-106467Y-54660D02*
D03*
X-99793Y-51157D02*
D03*
X-95511Y-44954D02*
D03*
X-94603Y-37472D02*
D03*
X-97276Y-30424D02*
D03*
X-102918Y-25426D02*
D03*
X-110236Y-23622D02*
D03*
X13780Y70866D02*
D03*
D36*
X0Y65866D02*
D03*
D37*
X-2362Y-19685D02*
D03*
X2362D02*
D03*
X-7087D02*
D03*
X7087D02*
D03*
X-2362Y-29528D02*
D03*
X2362D02*
D03*
X-7087D02*
D03*
X7087D02*
D03*
D38*
X7087Y-48425D02*
D03*
X2362D02*
D03*
X-7087D02*
D03*
X38386Y-36417D02*
D03*
X48228Y-42323D02*
D03*
X38386D02*
D03*
X105315D02*
D03*
X115157D02*
D03*
X105315Y-36417D02*
D03*
X-48228Y-42323D02*
D03*
X-38386D02*
D03*
X-48228Y-36417D02*
D03*
X-115157Y-42323D02*
D03*
X-105315D02*
D03*
X-115157Y-36417D02*
D03*
D39*
X-104035Y34449D02*
D03*
X-116437D02*
D03*
X-37106D02*
D03*
X-49508D02*
D03*
X49508D02*
D03*
X37106D02*
D03*
X116437D02*
D03*
X104035D02*
D03*
M02*
