M48
;Layer_Color=9474304
;FILE_FORMAT=2:5
INCH,TZ
;TYPE=PLATED
T1F00S00C0.01181
T2F00S00C0.01575
T3F00S00C0.01968
T4F00S00C0.03543
%
T01
X105315Y-42323
Y-36417
X115157Y-42323
X48228
X38386
Y-36417
X7087Y-48425
X2362
X-7087
X-38386Y-42323
X-48228
Y-36417
X-105315Y-42323
X-115157
Y-36417
T02
X-76772Y70866
X13780
X76772
X141732Y37795
T03
X99793Y-51157
X106467Y-54660
X114005
X120679Y-51157
X124961Y-44954
X125869Y-37472
X123196Y-30424
X117555Y-25426
X110236Y-23622
X102918Y-25426
X97276Y-30424
X94603Y-37472
X95511Y-44954
X95473Y4921
X95472Y14764
Y24606
X125000
Y14764
X125000Y4921
X58071
X58071Y14764
Y24606
X28543
Y14764
X28543Y4921
X30347Y-30424
X27674Y-37472
X28582Y-44954
X32864Y-51157
X39538Y-54660
X47076
X53750Y-51157
X58032Y-44954
X58940Y-37472
X56267Y-30424
X50625Y-25426
X43307Y-23622
X35989Y-25426
X7087Y-29528
X2362
X-2362
X-7087
Y-19685
X-2362
X2362
X7087
X-30347Y-30424
X-27674Y-37472
X-28582Y-44954
X-32864Y-51157
X-39538Y-54660
X-47076
X-53750Y-51157
X-58032Y-44954
X-58940Y-37472
X-56267Y-30424
X-50625Y-25426
X-43307Y-23622
X-35989Y-25426
X-28543Y4921
X-28543Y14764
Y24606
X-58071
Y14764
X-58071Y4921
X-95473
X-95472Y14764
Y24606
X-125000
Y14764
X-125000Y4921
X-123196Y-30424
X-125869Y-37472
X-124961Y-44954
X-120679Y-51157
X-114005Y-54660
X-106467
X-99793Y-51157
X-95511Y-44954
X-94603Y-37472
X-97276Y-30424
X-102918Y-25426
X-110236Y-23622
X-117555Y-25426
X-125000Y34449
Y44291
Y54134
Y63976
X-125000Y73819
X-95473
X-95472Y63976
Y54134
Y44291
Y34449
X-58071
Y44291
Y54134
Y63976
X-58071Y73819
X-28543
X-28543Y63976
Y54134
Y44291
Y34449
X28543
Y44291
Y54134
Y63976
X28543Y73819
X58071
X58071Y63976
Y54134
Y44291
Y34449
X95472
Y44291
Y54134
Y63976
X95473Y73819
X125000
X125000Y63976
Y54134
Y44291
Y34449
T04
X149606Y-47717
Y-37716
Y-27716
Y-17717
Y-7717
Y2283
Y12284
Y22284
X-149606
Y12284
Y2283
Y-7717
Y-17717
Y-27716
Y-37716
Y-47717
Y32283
Y42283
Y52284
Y62283
X0Y65866
Y75866
X149606Y62283
Y52284
Y42283
Y32283
M30
