%FSLAX25Y25*%
%MOIN*%
G70*
G01*
G75*
G04 Layer_Color=32768*
%ADD10C,0.01969*%
%ADD11C,0.01575*%
%ADD12C,0.00984*%
%ADD13C,0.01181*%
%ADD14R,0.02953X0.02362*%
%ADD15R,0.07087X0.02756*%
%ADD16R,0.02362X0.02953*%
%ADD17C,0.07874*%
%ADD18C,0.05906*%
%ADD19C,0.03937*%
%ADD20R,0.05906X0.05906*%
%ADD21C,0.03543*%
%ADD22C,0.02362*%
%ADD23C,0.03150*%
%ADD24R,0.03937X0.06890*%
%ADD25C,0.01000*%
%ADD26C,0.01969*%
%ADD27C,0.00787*%
%ADD28C,0.00100*%
%ADD29C,0.00591*%
%ADD30R,0.03753X0.03162*%
%ADD31R,0.07887X0.03556*%
%ADD32R,0.03162X0.03753*%
%ADD33C,0.08674*%
%ADD34C,0.06706*%
%ADD35C,0.04737*%
%ADD36R,0.06706X0.06706*%
%ADD37C,0.04343*%
%ADD38C,0.03162*%
%ADD39R,0.04737X0.07690*%
%ADD40C,0.00394*%
%ADD41C,0.00197*%
D27*
X157480Y-70866D02*
Y88583D01*
X-157480Y-70866D02*
Y88583D01*
Y-70866D02*
X157480D01*
X-157480Y88583D02*
X157480D01*
X0Y-4921D02*
Y4921D01*
X-4921Y0D02*
X4921D01*
D40*
X-112205Y34449D02*
X-108268D01*
X-110236Y32480D02*
Y36417D01*
X-45276Y34449D02*
X-41339D01*
X-43307Y32480D02*
Y36417D01*
X41339Y34449D02*
X45276D01*
X43307Y32480D02*
Y36417D01*
X108268Y34449D02*
X112205D01*
X110236Y32480D02*
Y36417D01*
X110236Y-48287D02*
Y-46201D01*
X109193Y-47244D02*
X111279D01*
X43307Y-48287D02*
Y-46201D01*
X42264Y-47244D02*
X44350D01*
X-43307Y-48287D02*
Y-46201D01*
X-44350Y-47244D02*
X-42264D01*
X-110236Y-48287D02*
Y-46201D01*
X-111279Y-47244D02*
X-109193D01*
X6043Y-46063D02*
X8130D01*
X7087Y-47106D02*
Y-45020D01*
X1319Y-46063D02*
X3405D01*
X2362Y-47106D02*
Y-45020D01*
X-8130Y-46063D02*
X-6043D01*
X-7087Y-47106D02*
Y-45020D01*
D41*
X-101181Y29921D02*
Y38976D01*
X-119291Y29921D02*
Y38976D01*
X-101181D01*
X-119291Y29921D02*
X-101181D01*
X-34252D02*
Y38976D01*
X-52362Y29921D02*
Y38976D01*
X-34252D01*
X-52362Y29921D02*
X-34252D01*
X52362D02*
Y38976D01*
X34252Y29921D02*
Y38976D01*
X52362D01*
X34252Y29921D02*
X52362D01*
X119291D02*
Y38976D01*
X101181Y29921D02*
Y38976D01*
X119291D01*
X101181Y29921D02*
X119291D01*
X105905Y-49016D02*
X114567D01*
X105905Y-45472D02*
X114567D01*
Y-49016D02*
Y-45472D01*
X105905Y-49016D02*
Y-45472D01*
X38976Y-49016D02*
X47638D01*
X38976Y-45472D02*
X47638D01*
Y-49016D02*
Y-45472D01*
X38976Y-49016D02*
Y-45472D01*
X-47638Y-49016D02*
X-38976D01*
X-47638Y-45472D02*
X-38976D01*
Y-49016D02*
Y-45472D01*
X-47638Y-49016D02*
Y-45472D01*
X-114567Y-49016D02*
X-105905D01*
X-114567Y-45472D02*
X-105905D01*
Y-49016D02*
Y-45472D01*
X-114567Y-49016D02*
Y-45472D01*
X5315Y-50394D02*
Y-41732D01*
X8858Y-50394D02*
Y-41732D01*
X5315Y-50394D02*
X8858D01*
X5315Y-41732D02*
X8858D01*
X591Y-50394D02*
Y-41732D01*
X4134Y-50394D02*
Y-41732D01*
X591Y-50394D02*
X4134D01*
X591Y-41732D02*
X4134D01*
X-8858Y-50394D02*
Y-41732D01*
X-5315Y-50394D02*
Y-41732D01*
X-8858Y-50394D02*
X-5315D01*
X-8858Y-41732D02*
X-5315D01*
M02*
