%FSLAX25Y25*%
%MOIN*%
G70*
G01*
G75*
G04 Layer_Physical_Order=2*
G04 Layer_Color=16711680*
%ADD10C,0.01969*%
%ADD11C,0.01575*%
%ADD12C,0.00984*%
%ADD13C,0.01181*%
%ADD14R,0.02953X0.02362*%
%ADD15R,0.07087X0.02756*%
%ADD16R,0.02362X0.02953*%
%ADD17C,0.07874*%
%ADD18C,0.05906*%
%ADD19C,0.03937*%
%ADD20R,0.05906X0.05906*%
%ADD21C,0.03543*%
%ADD22C,0.02362*%
%ADD23C,0.03150*%
%ADD24R,0.03937X0.06890*%
G36*
X13780Y73622D02*
X13780D01*
X3339Y84115D01*
X2710Y84535D01*
X2156Y84646D01*
X24803D01*
X13780Y73622D01*
D02*
G37*
G36*
X-54931Y84646D02*
X-32283D01*
X-43307Y73622D01*
X-43307D01*
X-53748Y84115D01*
X-54376Y84535D01*
X-54931Y84646D01*
X-55118D01*
Y84683D01*
X-54931Y84646D01*
D02*
G37*
G36*
X80709Y73622D02*
X80709D01*
X70268Y84115D01*
X69639Y84535D01*
X69085Y84646D01*
X91732D01*
X80709Y73622D01*
D02*
G37*
G36*
X69085Y84646D02*
X68898D01*
Y84683D01*
X69085Y84646D01*
D02*
G37*
G36*
X2156Y84646D02*
X1969D01*
Y84683D01*
X2156Y84646D01*
D02*
G37*
D10*
X82087Y75000D02*
X81502Y74287D01*
X81067Y73474D01*
X80799Y72591D01*
X80709Y71673D01*
X94095Y84646D02*
X92982Y84536D01*
X91912Y84212D01*
X90926Y83685D01*
X90062Y82975D01*
X27165Y84646D02*
X26053Y84536D01*
X24983Y84212D01*
X23997Y83685D01*
X23133Y82975D01*
X-43307Y71673D02*
X-43398Y72591D01*
X-43665Y73474D01*
X-44100Y74287D01*
X-44685Y75000D01*
X-52660Y82975D02*
X-53525Y83685D01*
X-54510Y84212D01*
X-55580Y84536D01*
X-56693Y84646D01*
X149606Y71510D02*
X149532Y72457D01*
X149310Y73379D01*
X148947Y74256D01*
X148451Y75066D01*
X147835Y75787D01*
X140551Y83071D02*
X139736Y83740D01*
X138807Y84236D01*
X137798Y84542D01*
X136749Y84646D01*
X71355Y82975D02*
X70493Y83683D01*
X69510Y84210D01*
X68443Y84535D01*
X67334Y84646D01*
X4426Y82975D02*
X3562Y83685D01*
X2576Y84212D01*
X1506Y84536D01*
X394Y84646D01*
X-29921D02*
X-31034Y84536D01*
X-32104Y84212D01*
X-33090Y83685D01*
X-33954Y82975D01*
X80709Y51181D02*
X80800Y50254D01*
X81070Y49362D01*
X81510Y48541D01*
X82101Y47821D01*
X80709Y71673D02*
X80618Y72591D01*
X80351Y73474D01*
X79916Y74287D01*
X79331Y75000D01*
X-44699Y47821D02*
X-44108Y48541D01*
X-43669Y49362D01*
X-43398Y50254D01*
X-43307Y51181D01*
X-41929Y75000D02*
X-42514Y74287D01*
X-42949Y73474D01*
X-43217Y72591D01*
X-43307Y71673D01*
X-96850Y84646D02*
X-97963Y84536D01*
X-99033Y84212D01*
X-100019Y83685D01*
X-100883Y82975D01*
X-108858Y75000D02*
X-109443Y74287D01*
X-109878Y73474D01*
X-110146Y72591D01*
X-110236Y71673D01*
X-111628Y47821D02*
X-111037Y48541D01*
X-110598Y49362D01*
X-110327Y50254D01*
X-110236Y51181D01*
X-12032Y63834D02*
X-12691Y63107D01*
X-13275Y62319D01*
X-13780Y61477D01*
X-14199Y60590D01*
X-14530Y59666D01*
X-14769Y58714D01*
X-14912Y57744D01*
X-14961Y56763D01*
X-17890Y45103D02*
X-17231Y45830D01*
X-16646Y46618D01*
X-16141Y47460D01*
X-15722Y48347D01*
X-15391Y49271D01*
X-15153Y50223D01*
X-15009Y51193D01*
X-14961Y52174D01*
X136614Y34449D02*
X137721Y34595D01*
X138753Y35022D01*
X139639Y35702D01*
X73843Y50221D02*
X74502Y50948D01*
X75086Y51736D01*
X75591Y52578D01*
X76011Y53465D01*
X76341Y54389D01*
X76579Y55341D01*
X76723Y56312D01*
X76772Y57292D01*
X-79701Y50221D02*
X-79041Y50948D01*
X-78457Y51736D01*
X-77952Y52578D01*
X-77533Y53465D01*
X-77202Y54389D01*
X-76964Y55341D01*
X-76820Y56312D01*
X-76772Y57292D01*
X13780Y51181D02*
X13871Y50254D01*
X14141Y49362D01*
X14581Y48541D01*
X15171Y47821D01*
X15157Y75000D02*
X14572Y74287D01*
X14138Y73474D01*
X13870Y72591D01*
X13780Y71673D01*
X13689Y72591D01*
X13421Y73474D01*
X12987Y74287D01*
X12402Y75000D01*
X82087Y75000D02*
X90062Y82975D01*
X15157Y75000D02*
X23133Y82975D01*
X-52660D02*
X-44685Y75000D01*
X149606Y62283D02*
Y71510D01*
X140551Y83071D02*
X147835Y75787D01*
X71355Y82975D02*
X79331Y75000D01*
X67334Y84646D02*
X136749D01*
X394D02*
X67334D01*
X4426Y82975D02*
X12402Y75000D01*
X-96850Y84646D02*
X-29921D01*
X394D01*
X-41929Y75000D02*
X-33954Y82975D01*
X82101Y47821D02*
X95473Y34449D01*
X80709Y51181D02*
Y71673D01*
X15171Y47821D02*
X28543Y34449D01*
X-58071D02*
X-44699Y47821D01*
X-43307Y51181D02*
Y71673D01*
X-108858Y75000D02*
X-100883Y82975D01*
X-110236Y51181D02*
Y71673D01*
X-125000Y34449D02*
X-111628Y47821D01*
X-12032Y63834D02*
X0Y75866D01*
X-14961Y52174D02*
Y56763D01*
X-28543Y34449D02*
X-17890Y45103D01*
X139639Y35702D02*
X141732Y37795D01*
X125000Y34449D02*
X136614D01*
X76772Y57292D02*
Y70866D01*
X58071Y34449D02*
X73843Y50221D01*
X-95472Y34449D02*
X-79701Y50221D01*
X-76772Y57292D02*
Y70866D01*
X-104035Y34449D02*
X-95472D01*
X-125000D02*
X-116437D01*
X-58071D02*
X-49508D01*
X-37106D02*
X-28543D01*
X28543D02*
X37106D01*
X49508D02*
X58071D01*
X95473Y34449D02*
X104035D01*
X116437Y34449D02*
X125000D01*
X13780Y51181D02*
Y70866D01*
Y71673D01*
D11*
X-131295Y21058D02*
X-132161Y21723D01*
X-133170Y22141D01*
X-134252Y22284D01*
X-131285Y30891D02*
X-132005Y31482D01*
X-132827Y31922D01*
X-133719Y32192D01*
X-134646Y32283D01*
X-128740Y42283D02*
X-127658Y42426D01*
X-126649Y42844D01*
X-125783Y43508D01*
X-129467Y52283D02*
X-128479Y52361D01*
X-127515Y52593D01*
X-126599Y52972D01*
X-125754Y53490D01*
X-125000Y54134D01*
X147061Y-15171D02*
X146341Y-14580D01*
X145519Y-14141D01*
X144628Y-13871D01*
X143701Y-13780D01*
X38970Y-12199D02*
X39788Y-12870D01*
X40721Y-13369D01*
X41734Y-13676D01*
X42787Y-13780D01*
X33465Y-4331D02*
X33574Y-5443D01*
X33899Y-6513D01*
X34426Y-7499D01*
X35135Y-8363D01*
X33465Y8450D02*
X33350Y9320D01*
X33014Y10131D01*
X32480Y10827D01*
X133465Y-1969D02*
X134355Y-1881D01*
X135211Y-1621D01*
X135999Y-1200D01*
X136691Y-632D01*
X47244Y-787D02*
X48079Y-1428D01*
X49052Y-1831D01*
X50095Y-1969D01*
X45276Y2851D02*
X45413Y1808D01*
X45816Y835D01*
X46457Y0D01*
X45276Y46083D02*
X45185Y47001D01*
X44918Y47883D01*
X44483Y48697D01*
X43898Y49409D01*
X40148Y53159D02*
X39459Y53688D01*
X38656Y54021D01*
X37795Y54134D01*
X139764Y-5906D02*
X140797Y-5770D01*
X141760Y-5371D01*
X142587Y-4736D01*
X43701Y-4724D02*
X44536Y-5365D01*
X45509Y-5768D01*
X46552Y-5906D01*
X41339Y-394D02*
X41430Y-1321D01*
X41700Y-2212D01*
X42140Y-3034D01*
X42731Y-3754D01*
X41339Y38976D02*
X41209Y39960D01*
X40829Y40877D01*
X40225Y41665D01*
X38976Y42913D02*
X38263Y43499D01*
X37450Y43933D01*
X36568Y44201D01*
X35650Y44291D01*
X145276Y-9843D02*
X146314Y-9740D01*
X147312Y-9437D01*
X148233Y-8946D01*
X149039Y-8283D01*
X41732Y-8661D02*
X42568Y-9302D01*
X43540Y-9705D01*
X44584Y-9843D01*
X37402Y-2104D02*
X37505Y-3153D01*
X37811Y-4161D01*
X38308Y-5091D01*
X38976Y-5906D01*
X37402Y14070D02*
X37264Y15119D01*
X36859Y16095D01*
X36215Y16935D01*
X143701Y22284D02*
X142864Y22173D01*
X142085Y21850D01*
X141416Y21337D01*
X131312Y11233D02*
X131313Y11235D01*
X127953Y9843D02*
X128880Y9934D01*
X129771Y10204D01*
X130592Y10643D01*
X131312Y11233D01*
X143701Y32283D02*
X142717Y32154D01*
X141800Y31774D01*
X141012Y31170D01*
X127953Y19685D02*
X128937Y19815D01*
X129854Y20194D01*
X130641Y20799D01*
X109324Y13511D02*
X108438Y14191D01*
X107406Y14618D01*
X106299Y14764D01*
X111879Y10956D02*
X112666Y10352D01*
X113583Y9972D01*
X114567Y9843D01*
X109324Y23354D02*
X108438Y24033D01*
X107406Y24461D01*
X106299Y24606D01*
X111879Y20799D02*
X112666Y20194D01*
X113583Y19815D01*
X114567Y19685D01*
X137008Y43701D02*
X137741Y43099D01*
X138578Y42652D01*
X139486Y42377D01*
X140430Y42283D01*
X133037Y47672D02*
X132240Y48326D01*
X131330Y48812D01*
X130343Y49112D01*
X129317Y49213D01*
X136453Y53704D02*
X137188Y53101D01*
X138027Y52653D01*
X138937Y52377D01*
X139883Y52284D01*
X132365Y57793D02*
X131472Y58478D01*
X130432Y58908D01*
X129317Y59055D01*
X106299Y44291D02*
X107406Y44437D01*
X108438Y44864D01*
X109324Y45544D01*
X114567Y49213D02*
X113583Y49083D01*
X112666Y48703D01*
X111879Y48099D01*
X106299Y54134D02*
X107406Y54280D01*
X108438Y54707D01*
X109324Y55387D01*
X114567Y59055D02*
X113583Y58926D01*
X112666Y58546D01*
X111879Y57942D01*
X-65743Y16935D02*
X-66386Y16095D01*
X-66791Y15119D01*
X-66929Y14070D01*
X-68504Y-5906D02*
X-67835Y-5091D01*
X-67338Y-4161D01*
X-67032Y-3153D01*
X-66929Y-2104D01*
X-65177Y44291D02*
X-66095Y44201D01*
X-66978Y43933D01*
X-67791Y43499D01*
X-68504Y42913D01*
X-69753Y41665D02*
X-70357Y40877D01*
X-70737Y39960D01*
X-70866Y38976D01*
X-72258Y-3754D02*
X-71667Y-3034D01*
X-71228Y-2212D01*
X-70957Y-1321D01*
X-70866Y-394D01*
X-67323Y54134D02*
X-68184Y54021D01*
X-68986Y53688D01*
X-69675Y53159D01*
X-73425Y49409D02*
X-74010Y48697D01*
X-74445Y47883D01*
X-74713Y47001D01*
X-74803Y46083D01*
X-75984Y0D02*
X-75343Y835D01*
X-74941Y1808D01*
X-74803Y2851D01*
X-62008Y10827D02*
X-62542Y10131D01*
X-62878Y9320D01*
X-62992Y8450D01*
X-64662Y-8363D02*
X-63953Y-7499D01*
X-63426Y-6513D01*
X-63102Y-5443D01*
X-62992Y-4331D01*
X-72315Y-13780D02*
X-71262Y-13676D01*
X-70249Y-13369D01*
X-69316Y-12870D01*
X-68498Y-12199D01*
X-149039Y-8283D02*
X-148233Y-8946D01*
X-147312Y-9437D01*
X-146314Y-9740D01*
X-145276Y-9843D01*
X-136691Y-632D02*
X-135999Y-1200D01*
X-135211Y-1621D01*
X-134355Y-1881D01*
X-133465Y-1969D01*
X-79623D02*
X-78579Y-1831D01*
X-77607Y-1428D01*
X-76772Y-787D01*
X-142587Y-4736D02*
X-141760Y-5371D01*
X-140797Y-5770D01*
X-139764Y-5906D01*
X-76080D02*
X-75036Y-5768D01*
X-74063Y-5365D01*
X-73228Y-4724D01*
X-74111Y-9843D02*
X-73068Y-9705D01*
X-72095Y-9302D01*
X-71260Y-8661D01*
X-143701Y-13780D02*
X-144628Y-13871D01*
X-145519Y-14141D01*
X-146340Y-14580D01*
X-147060Y-15171D01*
X-147061Y-15171D01*
X-125783Y43508D02*
X-125000Y44291D01*
X-131295Y21058D02*
X-125000Y14764D01*
X-149606Y22284D02*
X-134252D01*
X-131285Y30891D02*
X-125000Y24606D01*
X-149606Y32283D02*
X-134646D01*
X-149606Y42283D02*
X-128740D01*
X-149606Y52284D02*
X-129467D01*
X147061Y-15171D02*
X149606Y-17717D01*
X42787Y-13780D02*
X143701D01*
X35135Y-8363D02*
X38970Y-12199D01*
X33465Y-4331D02*
Y8450D01*
X46457Y0D02*
X47244Y-787D01*
X42731Y-3754D02*
X43701Y-4724D01*
X136691Y-632D02*
X149606Y12284D01*
X50095Y-1969D02*
X133465D01*
X45276Y2851D02*
Y46083D01*
X40148Y53159D02*
X43898Y49409D01*
X28543Y54134D02*
X37795D01*
X38976Y42913D02*
X40225Y41665D01*
X142587Y-4736D02*
X149606Y2283D01*
X46552Y-5906D02*
X139764D01*
X41339Y-394D02*
Y38976D01*
X28543Y44291D02*
X35650D01*
X149039Y-8283D02*
X149606Y-7717D01*
X44584Y-9843D02*
X145276D01*
X38976Y-5906D02*
X41732Y-8661D01*
X37402Y-2104D02*
Y14070D01*
X28543Y24606D02*
X36215Y16935D01*
X28543Y14764D02*
X32480Y10827D01*
X143701Y22284D02*
X149606D01*
X131313Y11235D02*
X141416Y21337D01*
X131312Y11233D02*
X131313Y11235D01*
X114567Y9843D02*
X127953D01*
X143701Y32283D02*
X149606D01*
X130641Y20799D02*
X141012Y31170D01*
X114567Y19685D02*
X127953D01*
X95472Y14764D02*
X106299D01*
X109324Y13511D02*
X111879Y10956D01*
X95472Y24606D02*
X106299D01*
X109324Y23354D02*
X111879Y20799D01*
X140430Y42283D02*
X149606D01*
X133037Y47672D02*
X137008Y43701D01*
X114567Y49213D02*
X129317D01*
X139883Y52284D02*
X149606D01*
X132365Y57793D02*
X136453Y53704D01*
X114567Y59055D02*
X129317D01*
X95472Y44291D02*
X106299D01*
X109324Y45544D02*
X111879Y48099D01*
X95472Y54134D02*
X106299D01*
X109324Y55387D02*
X111879Y57942D01*
X-62008Y10827D02*
X-58071Y14764D01*
X-65743Y16935D02*
X-58071Y24606D01*
X-66929Y-2104D02*
Y14070D01*
X-71260Y-8661D02*
X-68504Y-5906D01*
X-65177Y44291D02*
X-58071D01*
X-70866Y-394D02*
Y38976D01*
X-69753Y41665D02*
X-68504Y42913D01*
X-67323Y54134D02*
X-58071D01*
X-73425Y49409D02*
X-69675Y53159D01*
X-74803Y2851D02*
Y46083D01*
X-73228Y-4724D02*
X-72258Y-3754D01*
X-76772Y-787D02*
X-75984Y0D01*
X-62992Y-4331D02*
Y8450D01*
X-68498Y-12199D02*
X-64662Y-8363D01*
X-149606Y-7717D02*
X-149039Y-8283D01*
X-149606Y2283D02*
X-142587Y-4736D01*
X-149606Y12284D02*
X-136691Y-632D01*
X-149606Y-17717D02*
X-147061Y-15171D01*
X-133465Y-1969D02*
X-79623D01*
X-139764Y-5906D02*
X-76080D01*
X-145276Y-9843D02*
X-74111D01*
X-143701Y-13780D02*
X-72315D01*
D12*
X44488Y-46063D02*
X43847Y-46898D01*
X43444Y-47871D01*
X43307Y-48914D01*
X24708Y-62992D02*
X25751Y-62855D01*
X26724Y-62452D01*
X27559Y-61811D01*
X36179Y-53191D02*
X36829Y-52450D01*
X37376Y-51631D01*
X37812Y-50747D01*
X38129Y-49813D01*
X38321Y-48847D01*
X38386Y-47863D01*
X59055Y-61811D02*
X59890Y-62452D01*
X60863Y-62855D01*
X61907Y-62992D01*
X48228Y-47863D02*
X48293Y-48847D01*
X48485Y-49813D01*
X48802Y-50747D01*
X49238Y-51631D01*
X49785Y-52450D01*
X50435Y-53191D01*
X49606Y-45276D02*
X50720Y-44814D01*
X51181Y-43701D01*
X49606Y-45276D02*
X48632Y-45679D01*
X48228Y-46654D01*
X51181Y-40945D02*
X50720Y-39831D01*
X49606Y-39370D01*
X39764D02*
X38789Y-39774D01*
X38386Y-40748D01*
X53150Y-37795D02*
X52746Y-36821D01*
X51772Y-36417D01*
X53150Y-43307D02*
X53241Y-44234D01*
X53511Y-45126D01*
X53951Y-45947D01*
X54541Y-46668D01*
X34843Y-36417D02*
X33868Y-36821D01*
X33465Y-37795D01*
X43307Y-60236D02*
X43398Y-61163D01*
X43669Y-62055D01*
X44108Y-62876D01*
X44699Y-63597D01*
X41915D02*
X42506Y-62876D01*
X42945Y-62055D01*
X43216Y-61163D01*
X43307Y-60236D01*
X36912Y-66929D02*
X37956Y-66792D01*
X38929Y-66389D01*
X39764Y-65748D01*
X32073Y-46668D02*
X32074Y-46667D01*
X32664Y-45947D01*
X33103Y-45125D01*
X33373Y-44234D01*
X33465Y-43307D01*
X17869Y-59055D02*
X19004Y-58906D01*
X20061Y-58468D01*
X20969Y-57771D01*
X65645D02*
X66553Y-58468D01*
X67610Y-58906D01*
X68745Y-59055D01*
X84799D02*
X85933Y-58906D01*
X86990Y-58468D01*
X87898Y-57771D01*
X99003Y-46667D02*
X99593Y-45947D01*
X100032Y-45125D01*
X100302Y-44234D01*
X100394Y-43307D01*
X99002Y-46668D02*
X99003Y-46667D01*
X103841Y-66929D02*
X104885Y-66792D01*
X105858Y-66389D01*
X106693Y-65748D01*
X108844Y-63597D02*
X109435Y-62876D01*
X109874Y-62055D01*
X110145Y-61163D01*
X110236Y-60236D01*
X101772Y-36417D02*
X100797Y-36821D01*
X100394Y-37795D01*
X103108Y-53191D02*
X103758Y-52450D01*
X104306Y-51631D01*
X104741Y-50747D01*
X105058Y-49813D01*
X105251Y-48847D01*
X105315Y-47863D01*
X91637Y-62992D02*
X92680Y-62855D01*
X93653Y-62452D01*
X94488Y-61811D01*
X111417Y-46063D02*
X110776Y-46898D01*
X110374Y-47871D01*
X110236Y-48914D01*
X-20969Y-57771D02*
X-20061Y-58468D01*
X-19004Y-58906D01*
X-17869Y-59055D01*
X-68745D02*
X-67610Y-58906D01*
X-66553Y-58468D01*
X-65645Y-57771D01*
X-54541Y-46667D02*
X-53950Y-45947D01*
X-53511Y-45125D01*
X-53241Y-44234D01*
X-53150Y-43307D01*
X-54541Y-46668D02*
X-54541Y-46667D01*
X-49702Y-66929D02*
X-48658Y-66792D01*
X-47686Y-66389D01*
X-46850Y-65748D01*
X-44699Y-63597D02*
X-44108Y-62876D01*
X-43669Y-62055D01*
X-43398Y-61163D01*
X-43307Y-60236D01*
X-43216Y-61163D01*
X-42945Y-62055D01*
X-42506Y-62876D01*
X-41915Y-63597D01*
X-51772Y-36417D02*
X-52746Y-36821D01*
X-53150Y-37795D01*
X-33465Y-43307D02*
X-33373Y-44234D01*
X-33103Y-45126D01*
X-32664Y-45947D01*
X-32073Y-46668D01*
X-33465Y-37795D02*
X-33868Y-36821D01*
X-34843Y-36417D01*
X-46850Y-39370D02*
X-47825Y-39774D01*
X-48228Y-40748D01*
X-35433Y-40945D02*
X-35894Y-39831D01*
X-37008Y-39370D01*
Y-45276D02*
X-37982Y-45679D01*
X-38386Y-46654D01*
X-37008Y-45276D02*
X-35894Y-44814D01*
X-35433Y-43701D01*
X-38386Y-47863D02*
X-38321Y-48847D01*
X-38129Y-49813D01*
X-37812Y-50747D01*
X-37376Y-51631D01*
X-36829Y-52450D01*
X-36179Y-53191D01*
X-27559Y-61811D02*
X-26724Y-62452D01*
X-25751Y-62855D01*
X-24708Y-62992D01*
X-50435Y-53191D02*
X-49785Y-52450D01*
X-49238Y-51631D01*
X-48802Y-50747D01*
X-48485Y-49813D01*
X-48293Y-48847D01*
X-48228Y-47863D01*
X-61907Y-62992D02*
X-60863Y-62855D01*
X-59890Y-62452D01*
X-59055Y-61811D01*
X-42126Y-46063D02*
X-42767Y-46898D01*
X-43170Y-47871D01*
X-43307Y-48914D01*
X-87898Y-57771D02*
X-86990Y-58468D01*
X-85933Y-58906D01*
X-84799Y-59055D01*
X-100394Y-43307D02*
X-100302Y-44234D01*
X-100032Y-45126D01*
X-99593Y-45947D01*
X-99002Y-46668D01*
X-100394Y-37795D02*
X-100797Y-36821D01*
X-101772Y-36417D01*
X-102362Y-40945D02*
X-102823Y-39831D01*
X-103937Y-39370D01*
Y-45276D02*
X-104911Y-45679D01*
X-105315Y-46654D01*
X-103937Y-45276D02*
X-102823Y-44814D01*
X-102362Y-43701D01*
X-105315Y-47863D02*
X-105251Y-48847D01*
X-105058Y-49813D01*
X-104741Y-50747D01*
X-104306Y-51631D01*
X-103758Y-52450D01*
X-103108Y-53191D01*
X-94488Y-61811D02*
X-93653Y-62452D01*
X-92680Y-62855D01*
X-91637Y-62992D01*
X-109055Y-46063D02*
X-109696Y-46898D01*
X-110099Y-47871D01*
X-110236Y-48914D01*
X-106693Y-65748D02*
X-105858Y-66389D01*
X-104885Y-66792D01*
X-103841Y-66929D01*
X-39764Y-65748D02*
X-38929Y-66389D01*
X-37956Y-66792D01*
X-36912Y-66929D01*
X46850Y-65748D02*
X47686Y-66389D01*
X48658Y-66792D01*
X49702Y-66929D01*
X-125045Y-33617D02*
X-124349Y-34247D01*
X-123596Y-34806D01*
X-122791Y-35288D01*
X-121943Y-35689D01*
X-121059Y-36006D01*
X-120149Y-36234D01*
X-119221Y-36371D01*
X-118283Y-36417D01*
X-129720Y-28941D02*
X-130586Y-28277D01*
X-131595Y-27859D01*
X-132677Y-27716D01*
X-113779Y-39370D02*
X-114754Y-39774D01*
X-115157Y-40748D01*
X-116142Y-42323D02*
X-117051Y-42504D01*
X-117822Y-43018D01*
X-118517Y-43714D02*
X-118518Y-43715D01*
X-125591Y-49213D02*
X-124607Y-49083D01*
X-123690Y-48703D01*
X-122902Y-48099D01*
X-139331Y-47992D02*
X-138468Y-48654D01*
X-137463Y-49071D01*
X-136384Y-49213D01*
X-110236Y-60236D02*
X-110145Y-61163D01*
X-109874Y-62055D01*
X-109435Y-62876D01*
X-108844Y-63597D01*
X-112388Y-60053D02*
X-113108Y-59462D01*
X-113929Y-59023D01*
X-114821Y-58753D01*
X-115748Y-58661D01*
X-139842Y-57480D02*
X-139007Y-58121D01*
X-138035Y-58524D01*
X-136991Y-58661D01*
X38583Y-22441D02*
X37710Y-21858D01*
X36682Y-21654D01*
X39764Y-25292D02*
X39626Y-24249D01*
X39224Y-23276D01*
X38583Y-22441D01*
X39764Y-25292D02*
X39886Y-26217D01*
X40242Y-27078D01*
X40810Y-27818D01*
X42086Y-28346D01*
X31677Y-26559D02*
X30992Y-26034D01*
X30195Y-25703D01*
X29339Y-25591D01*
X34843Y-29724D02*
X35539Y-30258D01*
X36349Y-30594D01*
X37219Y-30709D01*
X34578Y-33465D02*
X33549Y-33669D01*
X32677Y-34252D01*
X32087Y-34843D02*
X31621Y-35539D01*
X31457Y-36361D01*
X30709Y-40551D02*
X31263Y-39722D01*
X31457Y-38743D01*
X21260Y-21654D02*
X20276Y-21783D01*
X19359Y-22163D01*
X18572Y-22767D01*
X26772Y-25591D02*
X25788Y-25720D01*
X24871Y-26100D01*
X24083Y-26704D01*
X15748Y-41339D02*
X14764Y-41468D01*
X13847Y-41848D01*
X13060Y-42452D01*
X28808Y-41339D02*
X29836Y-41134D01*
X30709Y-40551D01*
X55905D02*
X56778Y-41134D01*
X57806Y-41339D01*
X55157Y-38743D02*
X55351Y-39722D01*
X55905Y-40551D01*
X55157Y-36361D02*
X54993Y-35539D01*
X54528Y-34843D01*
X53937Y-34252D02*
X53065Y-33669D01*
X52036Y-33465D01*
X49395Y-30709D02*
X50265Y-30594D01*
X51076Y-30258D01*
X51772Y-29724D01*
X57275Y-25591D02*
X56419Y-25703D01*
X55622Y-26034D01*
X54937Y-26559D01*
X44528Y-28346D02*
X45804Y-27818D01*
X46372Y-27078D01*
X46729Y-26217D01*
X46850Y-25292D01*
X48031Y-22441D02*
X47391Y-23276D01*
X46988Y-24249D01*
X46850Y-25292D01*
X49933Y-21654D02*
X48904Y-21858D01*
X48031Y-22441D01*
X122835Y-40551D02*
X123707Y-41134D01*
X124736Y-41339D01*
X122086Y-38743D02*
X122280Y-39722D01*
X122835Y-40551D01*
X122086Y-36361D02*
X121922Y-35539D01*
X121457Y-34843D01*
X120866Y-34252D02*
X119994Y-33669D01*
X118965Y-33465D01*
X116325Y-30709D02*
X117194Y-30594D01*
X118005Y-30258D01*
X118701Y-29724D01*
X124204Y-25591D02*
X123348Y-25703D01*
X122551Y-26034D01*
X121866Y-26559D01*
X111457Y-28346D02*
X112733Y-27818D01*
X113301Y-27078D01*
X113658Y-26217D01*
X113779Y-25292D01*
X114961Y-22441D02*
X114320Y-23276D01*
X113917Y-24249D01*
X113779Y-25292D01*
X116862Y-21654D02*
X115833Y-21858D01*
X114961Y-22441D01*
X95737Y-41339D02*
X96766Y-41134D01*
X97638Y-40551D01*
X98192Y-39722D01*
X98387Y-38743D01*
X99016Y-34843D02*
X98550Y-35539D01*
X98387Y-36361D01*
X101507Y-33465D02*
X100478Y-33669D01*
X99606Y-34252D01*
X101772Y-29724D02*
X102468Y-30258D01*
X103278Y-30594D01*
X104148Y-30709D01*
X98606Y-26559D02*
X97922Y-26034D01*
X97124Y-25703D01*
X96268Y-25591D01*
X107739Y-27818D02*
X109016Y-28346D01*
X106693Y-25292D02*
X106815Y-26217D01*
X107171Y-27078D01*
X107739Y-27818D01*
X106693Y-25292D02*
X106555Y-24249D01*
X106153Y-23276D01*
X105512Y-22441D01*
X104640Y-21858D01*
X103611Y-21654D01*
X144545Y-22656D02*
X143837Y-22112D01*
X143012Y-21770D01*
X142126Y-21654D01*
X138819Y-26929D02*
X138126Y-26361D01*
X137336Y-25938D01*
X136479Y-25678D01*
X135587Y-25591D01*
X144286Y-42396D02*
X143538Y-41822D01*
X142667Y-41462D01*
X141732Y-41339D01*
X44488Y-46063D02*
X48228Y-42323D01*
X38386Y-47863D02*
Y-42323D01*
Y-40748D01*
X27559Y-61811D02*
X36179Y-53191D01*
X-24708Y-62992D02*
X24708D01*
X50435Y-53191D02*
X59055Y-61811D01*
X51181Y-43701D02*
Y-40945D01*
X39764Y-39370D02*
X49606D01*
X48228Y-47863D02*
Y-46654D01*
X53150Y-43307D02*
Y-37795D01*
X34843Y-36417D02*
X38386D01*
X51772D01*
X33465Y-43307D02*
Y-37795D01*
X43307Y-60236D02*
Y-48914D01*
X44699Y-63597D02*
X46850Y-65748D01*
X39764D02*
X41915Y-63597D01*
X20969Y-57771D02*
X32073Y-46668D01*
X32074Y-46667D01*
X-17869Y-59055D02*
X17869D01*
X54541Y-46668D02*
X65645Y-57771D01*
X68745Y-59055D02*
X84799D01*
X99002Y-46668D02*
X99003Y-46667D01*
X87898Y-57771D02*
X99002Y-46668D01*
X106693Y-65748D02*
X108844Y-63597D01*
X110236Y-60236D02*
Y-48914D01*
X100394Y-43307D02*
Y-37795D01*
X101772Y-36417D02*
X105315D01*
X61907Y-62992D02*
X91637D01*
X94488Y-61811D02*
X103108Y-53191D01*
X105315Y-47863D02*
Y-42323D01*
X111417Y-46063D02*
X115157Y-42323D01*
X-32073Y-46668D02*
X-20969Y-57771D01*
X-84799Y-59055D02*
X-68745D01*
X-54541Y-46668D02*
X-54541Y-46667D01*
X-65645Y-57771D02*
X-54541Y-46668D01*
X-46850Y-65748D02*
X-44699Y-63597D01*
X-41915D02*
X-39764Y-65748D01*
X-43307Y-60236D02*
Y-48914D01*
X-53150Y-43307D02*
Y-37795D01*
X-48228Y-36417D02*
X-34843D01*
X-51772D02*
X-48228D01*
X-33465Y-43307D02*
Y-37795D01*
X-38386Y-47863D02*
Y-46654D01*
X-46850Y-39370D02*
X-37008D01*
X-35433Y-43701D02*
Y-40945D01*
X-36179Y-53191D02*
X-27559Y-61811D01*
X-59055D02*
X-50435Y-53191D01*
X-48228Y-42323D02*
Y-40748D01*
Y-47863D02*
Y-42323D01*
X-42126Y-46063D02*
X-38386Y-42323D01*
X-99002Y-46668D02*
X-87898Y-57771D01*
X-100394Y-43307D02*
Y-37795D01*
X-105315Y-47863D02*
Y-46654D01*
X-113779Y-39370D02*
X-103937D01*
X-102362Y-43701D02*
Y-40945D01*
X-103108Y-53191D02*
X-94488Y-61811D01*
X-109055Y-46063D02*
X-105315Y-42323D01*
X-91637Y-62992D02*
X-61907D01*
X-103841Y-66929D02*
X-49702D01*
X-36912D02*
X36912D01*
X49702D02*
X103841D01*
X-118283Y-36417D02*
X-115157D01*
X-101772D01*
X-129720Y-28941D02*
X-125045Y-33617D01*
X-149606Y-27716D02*
X-132677D01*
X-122902Y-48099D02*
X-118518Y-43715D01*
X-117822Y-43019D01*
X-115157Y-42323D02*
Y-40748D01*
X-136384Y-49213D02*
X-125591D01*
X-149606Y-37716D02*
X-139331Y-47992D01*
X-116142Y-42323D02*
X-115157Y-42323D01*
X-112388Y-60053D02*
X-108844Y-63597D01*
X-106693Y-65748D01*
X-110236Y-60236D02*
Y-48914D01*
X-136991Y-58661D02*
X-115748D01*
X-149606Y-47717D02*
X-139842Y-57480D01*
X31677Y-26559D02*
X34843Y-29724D01*
X31457Y-38743D02*
Y-36361D01*
X32087Y-34843D02*
X32677Y-34252D01*
X-7087Y-48425D02*
X18572Y-22767D01*
X21260Y-21654D02*
X36682D01*
X2362Y-48425D02*
X24083Y-26704D01*
X26772Y-25591D02*
X29339D01*
X7087Y-48425D02*
X13060Y-42452D01*
X15748Y-41339D02*
X28808D01*
X53937Y-34252D02*
X54528Y-34843D01*
X55157Y-38743D02*
Y-36361D01*
X34578Y-33465D02*
X52036D01*
X37219Y-30709D02*
X49395D01*
X51772Y-29724D02*
X54937Y-26559D01*
X42086Y-28346D02*
X44528D01*
X120866Y-34252D02*
X121457Y-34843D01*
X122086Y-38743D02*
Y-36361D01*
X101507Y-33465D02*
X118965D01*
X104148Y-30709D02*
X116325D01*
X118701Y-29724D02*
X121866Y-26559D01*
X109016Y-28346D02*
X111457D01*
X99016Y-34843D02*
X99606Y-34252D01*
X98387Y-38743D02*
Y-36361D01*
X98606Y-26559D02*
X101772Y-29724D01*
X49933Y-21654D02*
X103611D01*
X57275Y-25591D02*
X96268D01*
X57806Y-41339D02*
X95737D01*
X144545Y-22656D02*
X149606Y-27716D01*
X116862Y-21654D02*
X142126D01*
X138819Y-26929D02*
X149606Y-37716D01*
X124204Y-25591D02*
X135587D01*
X144286Y-42396D02*
X149606Y-47717D01*
X124736Y-41339D02*
X141732D01*
D17*
X149606Y-47717D02*
D03*
Y-37716D02*
D03*
Y-27716D02*
D03*
Y-17717D02*
D03*
Y-7717D02*
D03*
Y32283D02*
D03*
Y22284D02*
D03*
Y12284D02*
D03*
Y2283D02*
D03*
Y42283D02*
D03*
Y52284D02*
D03*
Y62283D02*
D03*
X-149606Y-47717D02*
D03*
Y-37716D02*
D03*
Y-27716D02*
D03*
Y-17717D02*
D03*
Y-7717D02*
D03*
Y32283D02*
D03*
Y22284D02*
D03*
Y12284D02*
D03*
Y2283D02*
D03*
Y42283D02*
D03*
Y52284D02*
D03*
Y62283D02*
D03*
D18*
X95472Y54134D02*
D03*
Y63976D02*
D03*
Y44291D02*
D03*
Y34449D02*
D03*
Y24606D02*
D03*
Y14764D02*
D03*
X95473Y4921D02*
D03*
X125000D02*
D03*
X125000Y14764D02*
D03*
Y24606D02*
D03*
Y34449D02*
D03*
Y44291D02*
D03*
X125000Y73819D02*
D03*
X125000Y63976D02*
D03*
Y54134D02*
D03*
X95473Y73819D02*
D03*
X28543Y54134D02*
D03*
Y63976D02*
D03*
Y44291D02*
D03*
Y34449D02*
D03*
Y24606D02*
D03*
Y14764D02*
D03*
X28543Y4921D02*
D03*
X58071D02*
D03*
X58071Y14764D02*
D03*
Y24606D02*
D03*
Y34449D02*
D03*
Y44291D02*
D03*
X58071Y73819D02*
D03*
X58071Y63976D02*
D03*
Y54134D02*
D03*
X28543Y73819D02*
D03*
X-58071Y54134D02*
D03*
Y63976D02*
D03*
Y44291D02*
D03*
Y34449D02*
D03*
Y24606D02*
D03*
Y14764D02*
D03*
X-58071Y4921D02*
D03*
X-28543D02*
D03*
X-28543Y14764D02*
D03*
Y24606D02*
D03*
Y34449D02*
D03*
Y44291D02*
D03*
X-28543Y73819D02*
D03*
X-28543Y63976D02*
D03*
Y54134D02*
D03*
X-58071Y73819D02*
D03*
X-125000Y54134D02*
D03*
Y63976D02*
D03*
Y44291D02*
D03*
Y34449D02*
D03*
Y24606D02*
D03*
Y14764D02*
D03*
X-125000Y4921D02*
D03*
X-95473D02*
D03*
X-95472Y14764D02*
D03*
Y24606D02*
D03*
Y34449D02*
D03*
Y44291D02*
D03*
X-95473Y73819D02*
D03*
X-95472Y63976D02*
D03*
Y54134D02*
D03*
X-125000Y73819D02*
D03*
X0Y75866D02*
D03*
D19*
X106467Y-54660D02*
D03*
X99793Y-51157D02*
D03*
X95511Y-44954D02*
D03*
X94603Y-37472D02*
D03*
X97276Y-30424D02*
D03*
X102918Y-25426D02*
D03*
X114005Y-54660D02*
D03*
X120679Y-51157D02*
D03*
X124961Y-44954D02*
D03*
X125869Y-37472D02*
D03*
X123196Y-30424D02*
D03*
X117555Y-25426D02*
D03*
X110236Y-23622D02*
D03*
X-76772Y70866D02*
D03*
X76772D02*
D03*
X141732Y37795D02*
D03*
X-47076Y-54660D02*
D03*
X-53750Y-51157D02*
D03*
X-58032Y-44954D02*
D03*
X-58940Y-37472D02*
D03*
X-56267Y-30424D02*
D03*
X-50625Y-25426D02*
D03*
X-39538Y-54660D02*
D03*
X-32864Y-51157D02*
D03*
X-28582Y-44954D02*
D03*
X-27674Y-37472D02*
D03*
X-30347Y-30424D02*
D03*
X-35989Y-25426D02*
D03*
X-43307Y-23622D02*
D03*
X39538Y-54660D02*
D03*
X32864Y-51157D02*
D03*
X28582Y-44954D02*
D03*
X27674Y-37472D02*
D03*
X30347Y-30424D02*
D03*
X35989Y-25426D02*
D03*
X47076Y-54660D02*
D03*
X53750Y-51157D02*
D03*
X58032Y-44954D02*
D03*
X58940Y-37472D02*
D03*
X56267Y-30424D02*
D03*
X50625Y-25426D02*
D03*
X43307Y-23622D02*
D03*
X-114005Y-54660D02*
D03*
X-120679Y-51157D02*
D03*
X-124961Y-44954D02*
D03*
X-125869Y-37472D02*
D03*
X-123196Y-30424D02*
D03*
X-117555Y-25426D02*
D03*
X-106467Y-54660D02*
D03*
X-99793Y-51157D02*
D03*
X-95511Y-44954D02*
D03*
X-94603Y-37472D02*
D03*
X-97276Y-30424D02*
D03*
X-102918Y-25426D02*
D03*
X-110236Y-23622D02*
D03*
X13780Y70866D02*
D03*
D20*
X0Y65866D02*
D03*
D21*
X-2362Y-19685D02*
D03*
X2362D02*
D03*
X-7087D02*
D03*
X7087D02*
D03*
X-2362Y-29528D02*
D03*
X2362D02*
D03*
X-7087D02*
D03*
X7087D02*
D03*
D22*
X7087Y-48425D02*
D03*
X2362D02*
D03*
X-7087D02*
D03*
X38386Y-36417D02*
D03*
X48228Y-42323D02*
D03*
X38386D02*
D03*
X105315D02*
D03*
X115157D02*
D03*
X105315Y-36417D02*
D03*
X-48228Y-42323D02*
D03*
X-38386D02*
D03*
X-48228Y-36417D02*
D03*
X-115157Y-42323D02*
D03*
X-105315D02*
D03*
X-115157Y-36417D02*
D03*
D23*
X-100394Y-17717D02*
X-101458Y-17776D01*
X-102509Y-17955D01*
X-103533Y-18250D01*
X-104518Y-18658D01*
X-105450Y-19173D01*
X-106320Y-19790D01*
X-107115Y-20500D01*
X-33465Y-17717D02*
X-34529Y-17776D01*
X-35580Y-17955D01*
X-36604Y-18250D01*
X-37589Y-18658D01*
X-38521Y-19173D01*
X-39391Y-19790D01*
X-40185Y-20500D01*
X-21859Y-17717D02*
X-20878Y-17668D01*
X-19908Y-17524D01*
X-18956Y-17286D01*
X-18032Y-16955D01*
X-17145Y-16536D01*
X-16303Y-16031D01*
X-15515Y-15447D01*
X-14788Y-14788D01*
X14788D02*
X15515Y-15447D01*
X16303Y-16031D01*
X17145Y-16536D01*
X18032Y-16955D01*
X18956Y-17286D01*
X19908Y-17524D01*
X20878Y-17668D01*
X21859Y-17717D01*
X43307Y-21654D02*
X43173Y-20635D01*
X42780Y-19685D01*
X42154Y-18870D01*
X41339Y-18244D01*
X40389Y-17851D01*
X39370Y-17717D01*
X47244D02*
X46225Y-17851D01*
X45276Y-18244D01*
X44460Y-18870D01*
X43835Y-19685D01*
X43441Y-20635D01*
X43307Y-21654D01*
X110236D02*
X110102Y-20635D01*
X109709Y-19685D01*
X109083Y-18870D01*
X108268Y-18244D01*
X107318Y-17851D01*
X106299Y-17717D01*
X-110236Y-23622D02*
X-107115Y-20500D01*
X-43307Y-23622D02*
X-40185Y-20500D01*
X-33465Y-17717D02*
X-21859D01*
X-100394D02*
X-33465D01*
X21859D02*
X39370D01*
X43307Y-23622D02*
Y-21654D01*
X39370Y-17717D02*
X106299D01*
X110236Y-23622D02*
Y-21654D01*
X0Y0D02*
Y65866D01*
Y0D02*
X14788Y-14788D01*
X-14788D02*
X0Y0D01*
D24*
X-104035Y34449D02*
D03*
X-116437D02*
D03*
X-37106D02*
D03*
X-49508D02*
D03*
X49508D02*
D03*
X37106D02*
D03*
X116437D02*
D03*
X104035D02*
D03*
M02*
