%FSLAX25Y25*%
%MOIN*%
G70*
G01*
G75*
G04 Layer_Color=8421504*
%ADD10C,0.01969*%
%ADD11C,0.01575*%
%ADD12C,0.00984*%
%ADD13C,0.01181*%
%ADD14R,0.02953X0.02362*%
%ADD15R,0.07087X0.02756*%
%ADD16R,0.02362X0.02953*%
%ADD17C,0.07874*%
%ADD18C,0.05906*%
%ADD19C,0.03937*%
%ADD20R,0.05906X0.05906*%
%ADD21C,0.03543*%
%ADD22C,0.02362*%
%ADD23C,0.03150*%
%ADD24R,0.03937X0.06890*%
%ADD25C,0.01000*%
%ADD26C,0.01969*%
%ADD27C,0.00787*%
%ADD28C,0.00100*%
%ADD29C,0.00591*%
D14*
X112598Y-47244D02*
D03*
X107874D02*
D03*
X45669D02*
D03*
X40945D02*
D03*
X-40945D02*
D03*
X-45669D02*
D03*
X-107874D02*
D03*
X-112598D02*
D03*
D15*
X117126Y-42323D02*
D03*
Y-36417D02*
D03*
X103347Y-42323D02*
D03*
Y-36417D02*
D03*
X50197Y-42323D02*
D03*
Y-36417D02*
D03*
X36417Y-42323D02*
D03*
Y-36417D02*
D03*
X-36417Y-42323D02*
D03*
Y-36417D02*
D03*
X-50197Y-42323D02*
D03*
Y-36417D02*
D03*
X-103347Y-42323D02*
D03*
Y-36417D02*
D03*
X-117126Y-42323D02*
D03*
Y-36417D02*
D03*
D16*
X7087Y-48425D02*
D03*
Y-43701D02*
D03*
X2362Y-48425D02*
D03*
Y-43701D02*
D03*
X-7087Y-48425D02*
D03*
Y-43701D02*
D03*
M02*
