%FSLAX25Y25*%
%MOIN*%
G70*
G01*
G75*
G04 Layer_Color=65535*
%ADD10C,0.01969*%
%ADD11C,0.01575*%
%ADD12C,0.00984*%
%ADD13C,0.01181*%
%ADD14R,0.02953X0.02362*%
%ADD15R,0.07087X0.02756*%
%ADD16R,0.02362X0.02953*%
%ADD17C,0.07874*%
%ADD18C,0.05906*%
%ADD19C,0.03937*%
%ADD20R,0.05906X0.05906*%
%ADD21C,0.03543*%
%ADD22C,0.02362*%
%ADD23C,0.03150*%
%ADD24R,0.03937X0.06890*%
%ADD25C,0.01000*%
%ADD26C,0.01969*%
%ADD27C,0.00787*%
%ADD28C,0.00100*%
%ADD29C,0.00591*%
D13*
X100394Y78740D02*
X120079D01*
X100394Y0D02*
Y78740D01*
Y0D02*
X120079D01*
Y78740D01*
X33465D02*
X53150D01*
X33465Y0D02*
Y78740D01*
Y0D02*
X53150D01*
Y78740D01*
X-53150D02*
X-33465D01*
X-53150Y0D02*
Y78740D01*
Y0D02*
X-33465D01*
Y78740D01*
X-120079D02*
X-100394D01*
X-120079Y0D02*
Y78740D01*
Y0D02*
X-100394D01*
Y78740D01*
D19*
X104724Y73622D02*
D03*
X37795D02*
D03*
X-48819D02*
D03*
X110236Y-29528D02*
D03*
X-115748Y73622D02*
D03*
X-43307Y-29528D02*
D03*
X43307D02*
D03*
X-110236D02*
D03*
D25*
X135827Y-39370D02*
X135807Y-38372D01*
X135749Y-37375D01*
X135652Y-36381D01*
X135516Y-35392D01*
X135341Y-34408D01*
X135128Y-33432D01*
X134878Y-32466D01*
X134590Y-31510D01*
X134264Y-30566D01*
X133903Y-29635D01*
X133505Y-28719D01*
X133071Y-27819D01*
X132603Y-26937D01*
X132101Y-26074D01*
X131566Y-25231D01*
X130998Y-24409D01*
X130398Y-23611D01*
X129768Y-22836D01*
X129108Y-22086D01*
X128419Y-21363D01*
X127703Y-20668D01*
X126960Y-20000D01*
X126192Y-19363D01*
X125399Y-18755D01*
X124583Y-18179D01*
X123745Y-17636D01*
X122887Y-17125D01*
X122010Y-16649D01*
X121114Y-16207D01*
X120202Y-15800D01*
X119275Y-15429D01*
X118334Y-15094D01*
X117380Y-14797D01*
X116416Y-14537D01*
X115443Y-14315D01*
X114461Y-14131D01*
X113473Y-13985D01*
X112480Y-13878D01*
X111484Y-13810D01*
X110486Y-13781D01*
X109487Y-13791D01*
X108490Y-13839D01*
X107495Y-13927D01*
X106504Y-14053D01*
X105520Y-14218D01*
X104542Y-14421D01*
X103573Y-14662D01*
X102614Y-14941D01*
X101666Y-15257D01*
X100732Y-15610D01*
X99812Y-15999D01*
X98909Y-16423D01*
X98022Y-16883D01*
X97154Y-17376D01*
X96306Y-17903D01*
X95479Y-18463D01*
X94674Y-19055D01*
X93893Y-19678D01*
X93138Y-20330D01*
X92408Y-21012D01*
X91705Y-21722D01*
X91031Y-22458D01*
X90385Y-23220D01*
X89770Y-24007D01*
X89187Y-24817D01*
X88635Y-25649D01*
X88116Y-26503D01*
X87631Y-27376D01*
X87180Y-28267D01*
X86764Y-29175D01*
X86384Y-30098D01*
X86041Y-31036D01*
X85734Y-31986D01*
X85465Y-32948D01*
X85233Y-33919D01*
X85039Y-34899D01*
X84884Y-35885D01*
X84767Y-36877D01*
X84689Y-37873D01*
X84650Y-38871D01*
Y-39869D01*
X84689Y-40867D01*
X84767Y-41863D01*
X84884Y-42855D01*
X85039Y-43841D01*
X85233Y-44821D01*
X85465Y-45792D01*
X85734Y-46754D01*
X86041Y-47704D01*
X86384Y-48642D01*
X86764Y-49565D01*
X87180Y-50473D01*
X87631Y-51364D01*
X88116Y-52237D01*
X88635Y-53091D01*
X89187Y-53923D01*
X89770Y-54733D01*
X90385Y-55520D01*
X91031Y-56282D01*
X91705Y-57019D01*
X92408Y-57728D01*
X93138Y-58410D01*
X93893Y-59062D01*
X94674Y-59685D01*
X95479Y-60277D01*
X96306Y-60837D01*
X97154Y-61364D01*
X98022Y-61857D01*
X98908Y-62317D01*
X99812Y-62741D01*
X100732Y-63130D01*
X101666Y-63483D01*
X102614Y-63799D01*
X103573Y-64078D01*
X104542Y-64319D01*
X105519Y-64522D01*
X106504Y-64687D01*
X107495Y-64813D01*
X108490Y-64901D01*
X109487Y-64950D01*
X110486Y-64959D01*
X111484Y-64930D01*
X112480Y-64862D01*
X113473Y-64755D01*
X114461Y-64609D01*
X115443Y-64425D01*
X116416Y-64203D01*
X117380Y-63943D01*
X118334Y-63646D01*
X119275Y-63311D01*
X120202Y-62940D01*
X121114Y-62534D01*
X122009Y-62092D01*
X122887Y-61615D01*
X123745Y-61104D01*
X124583Y-60561D01*
X125399Y-59985D01*
X126192Y-59378D01*
X126960Y-58740D01*
X127703Y-58073D01*
X128419Y-57377D01*
X129108Y-56654D01*
X129768Y-55904D01*
X130398Y-55130D01*
X130998Y-54331D01*
X131566Y-53510D01*
X132101Y-52667D01*
X132603Y-51803D01*
X133071Y-50921D01*
X133505Y-50021D01*
X133903Y-49106D01*
X134264Y-48175D01*
X134590Y-47231D01*
X134878Y-46274D01*
X135128Y-45308D01*
X135341Y-44332D01*
X135516Y-43349D01*
X135652Y-42359D01*
X135749Y-41366D01*
X135807Y-40369D01*
X135827Y-39370D01*
X-17717Y-39370D02*
X-17736Y-38372D01*
X-17795Y-37375D01*
X-17892Y-36381D01*
X-18028Y-35392D01*
X-18202Y-34408D01*
X-18415Y-33432D01*
X-18665Y-32466D01*
X-18954Y-31510D01*
X-19279Y-30566D01*
X-19641Y-29635D01*
X-20039Y-28719D01*
X-20472Y-27819D01*
X-20940Y-26937D01*
X-21442Y-26074D01*
X-21977Y-25231D01*
X-22545Y-24409D01*
X-23145Y-23611D01*
X-23775Y-22836D01*
X-24435Y-22086D01*
X-25124Y-21363D01*
X-25840Y-20668D01*
X-26583Y-20000D01*
X-27352Y-19363D01*
X-28144Y-18755D01*
X-28960Y-18179D01*
X-29798Y-17636D01*
X-30656Y-17125D01*
X-31534Y-16649D01*
X-32429Y-16207D01*
X-33341Y-15800D01*
X-34269Y-15429D01*
X-35209Y-15094D01*
X-36163Y-14797D01*
X-37127Y-14537D01*
X-38100Y-14315D01*
X-39082Y-14131D01*
X-40070Y-13985D01*
X-41063Y-13878D01*
X-42059Y-13810D01*
X-43057Y-13781D01*
X-44056Y-13791D01*
X-45053Y-13839D01*
X-46048Y-13927D01*
X-47039Y-14053D01*
X-48024Y-14218D01*
X-49002Y-14421D01*
X-49971Y-14662D01*
X-50929Y-14941D01*
X-51877Y-15257D01*
X-52811Y-15610D01*
X-53731Y-15999D01*
X-54635Y-16423D01*
X-55522Y-16883D01*
X-56389Y-17376D01*
X-57238Y-17903D01*
X-58065Y-18463D01*
X-58869Y-19055D01*
X-59650Y-19678D01*
X-60406Y-20330D01*
X-61136Y-21012D01*
X-61838Y-21722D01*
X-62513Y-22458D01*
X-63158Y-23220D01*
X-63773Y-24007D01*
X-64357Y-24817D01*
X-64908Y-25649D01*
X-65427Y-26503D01*
X-65913Y-27376D01*
X-66363Y-28267D01*
X-66779Y-29175D01*
X-67159Y-30098D01*
X-67502Y-31036D01*
X-67809Y-31986D01*
X-68079Y-32948D01*
X-68310Y-33919D01*
X-68504Y-34899D01*
X-68659Y-35885D01*
X-68776Y-36877D01*
X-68854Y-37873D01*
X-68893Y-38871D01*
Y-39869D01*
X-68854Y-40867D01*
X-68776Y-41863D01*
X-68659Y-42855D01*
X-68504Y-43841D01*
X-68310Y-44821D01*
X-68079Y-45792D01*
X-67809Y-46754D01*
X-67502Y-47704D01*
X-67159Y-48642D01*
X-66779Y-49565D01*
X-66363Y-50473D01*
X-65913Y-51364D01*
X-65428Y-52237D01*
X-64909Y-53091D01*
X-64357Y-53923D01*
X-63773Y-54733D01*
X-63158Y-55520D01*
X-62513Y-56282D01*
X-61838Y-57019D01*
X-61136Y-57728D01*
X-60406Y-58410D01*
X-59650Y-59062D01*
X-58869Y-59685D01*
X-58065Y-60277D01*
X-57238Y-60837D01*
X-56390Y-61364D01*
X-55522Y-61857D01*
X-54635Y-62317D01*
X-53731Y-62741D01*
X-52811Y-63130D01*
X-51877Y-63483D01*
X-50930Y-63799D01*
X-49971Y-64078D01*
X-49002Y-64319D01*
X-48024Y-64522D01*
X-47039Y-64687D01*
X-46048Y-64813D01*
X-45053Y-64901D01*
X-44056Y-64950D01*
X-43058Y-64959D01*
X-42059Y-64930D01*
X-41063Y-64862D01*
X-40070Y-64755D01*
X-39082Y-64609D01*
X-38101Y-64425D01*
X-37127Y-64203D01*
X-36163Y-63943D01*
X-35210Y-63646D01*
X-34269Y-63311D01*
X-33341Y-62940D01*
X-32429Y-62534D01*
X-31534Y-62092D01*
X-30656Y-61615D01*
X-29798Y-61104D01*
X-28960Y-60561D01*
X-28144Y-59985D01*
X-27352Y-59378D01*
X-26583Y-58740D01*
X-25840Y-58073D01*
X-25124Y-57377D01*
X-24435Y-56654D01*
X-23775Y-55904D01*
X-23145Y-55130D01*
X-22545Y-54331D01*
X-21978Y-53510D01*
X-21442Y-52667D01*
X-20940Y-51803D01*
X-20472Y-50921D01*
X-20039Y-50021D01*
X-19641Y-49106D01*
X-19279Y-48175D01*
X-18954Y-47231D01*
X-18665Y-46274D01*
X-18415Y-45308D01*
X-18202Y-44332D01*
X-18028Y-43349D01*
X-17892Y-42359D01*
X-17795Y-41366D01*
X-17736Y-40369D01*
X-17717Y-39370D01*
X68898Y-39370D02*
X68878Y-38372D01*
X68820Y-37375D01*
X68722Y-36381D01*
X68586Y-35392D01*
X68412Y-34408D01*
X68199Y-33432D01*
X67949Y-32466D01*
X67660Y-31510D01*
X67335Y-30566D01*
X66974Y-29635D01*
X66576Y-28719D01*
X66142Y-27819D01*
X65674Y-26937D01*
X65172Y-26074D01*
X64637Y-25231D01*
X64069Y-24409D01*
X63469Y-23611D01*
X62839Y-22836D01*
X62179Y-22086D01*
X61490Y-21363D01*
X60774Y-20668D01*
X60031Y-20000D01*
X59263Y-19363D01*
X58470Y-18755D01*
X57654Y-18179D01*
X56816Y-17636D01*
X55958Y-17125D01*
X55080Y-16649D01*
X54185Y-16207D01*
X53273Y-15800D01*
X52346Y-15429D01*
X51405Y-15094D01*
X50451Y-14797D01*
X49487Y-14537D01*
X48514Y-14315D01*
X47532Y-14131D01*
X46544Y-13985D01*
X45551Y-13878D01*
X44555Y-13810D01*
X43557Y-13781D01*
X42558Y-13791D01*
X41561Y-13839D01*
X40566Y-13927D01*
X39575Y-14053D01*
X38590Y-14218D01*
X37613Y-14421D01*
X36644Y-14662D01*
X35685Y-14941D01*
X34737Y-15257D01*
X33803Y-15610D01*
X32883Y-15999D01*
X31979Y-16423D01*
X31093Y-16883D01*
X30225Y-17376D01*
X29377Y-17903D01*
X28550Y-18463D01*
X27745Y-19055D01*
X26964Y-19678D01*
X26208Y-20330D01*
X25479Y-21012D01*
X24776Y-21722D01*
X24102Y-22458D01*
X23456Y-23220D01*
X22841Y-24007D01*
X22257Y-24817D01*
X21706Y-25649D01*
X21187Y-26503D01*
X20702Y-27376D01*
X20251Y-28267D01*
X19835Y-29175D01*
X19455Y-30098D01*
X19112Y-31036D01*
X18805Y-31986D01*
X18535Y-32948D01*
X18304Y-33919D01*
X18110Y-34899D01*
X17955Y-35885D01*
X17838Y-36877D01*
X17760Y-37873D01*
X17721Y-38871D01*
Y-39869D01*
X17760Y-40867D01*
X17838Y-41863D01*
X17955Y-42855D01*
X18110Y-43841D01*
X18304Y-44821D01*
X18535Y-45792D01*
X18805Y-46754D01*
X19112Y-47704D01*
X19455Y-48642D01*
X19835Y-49565D01*
X20251Y-50473D01*
X20701Y-51364D01*
X21187Y-52237D01*
X21706Y-53091D01*
X22257Y-53923D01*
X22841Y-54733D01*
X23456Y-55520D01*
X24101Y-56282D01*
X24776Y-57019D01*
X25479Y-57728D01*
X26208Y-58410D01*
X26964Y-59062D01*
X27745Y-59685D01*
X28550Y-60277D01*
X29376Y-60837D01*
X30224Y-61364D01*
X31093Y-61857D01*
X31979Y-62317D01*
X32883Y-62741D01*
X33803Y-63130D01*
X34737Y-63483D01*
X35685Y-63799D01*
X36643Y-64078D01*
X37613Y-64319D01*
X38590Y-64522D01*
X39575Y-64687D01*
X40566Y-64813D01*
X41561Y-64901D01*
X42558Y-64950D01*
X43557Y-64959D01*
X44555Y-64930D01*
X45551Y-64862D01*
X46544Y-64755D01*
X47532Y-64609D01*
X48513Y-64425D01*
X49487Y-64203D01*
X50451Y-63943D01*
X51405Y-63646D01*
X52346Y-63311D01*
X53273Y-62940D01*
X54185Y-62534D01*
X55080Y-62092D01*
X55958Y-61615D01*
X56816Y-61104D01*
X57654Y-60561D01*
X58470Y-59985D01*
X59263Y-59378D01*
X60031Y-58740D01*
X60774Y-58073D01*
X61490Y-57377D01*
X62179Y-56654D01*
X62839Y-55904D01*
X63469Y-55130D01*
X64069Y-54331D01*
X64637Y-53510D01*
X65172Y-52667D01*
X65674Y-51803D01*
X66142Y-50921D01*
X66576Y-50021D01*
X66974Y-49106D01*
X67335Y-48175D01*
X67660Y-47231D01*
X67949Y-46274D01*
X68199Y-45308D01*
X68412Y-44332D01*
X68586Y-43349D01*
X68722Y-42359D01*
X68820Y-41366D01*
X68878Y-40369D01*
X68898Y-39370D01*
X-84646Y-39370D02*
X-84665Y-38372D01*
X-84724Y-37375D01*
X-84821Y-36381D01*
X-84957Y-35392D01*
X-85131Y-34408D01*
X-85344Y-33432D01*
X-85595Y-32466D01*
X-85883Y-31510D01*
X-86208Y-30566D01*
X-86570Y-29635D01*
X-86968Y-28719D01*
X-87401Y-27819D01*
X-87869Y-26937D01*
X-88371Y-26074D01*
X-88907Y-25231D01*
X-89474Y-24409D01*
X-90074Y-23611D01*
X-90704Y-22836D01*
X-91364Y-22086D01*
X-92053Y-21363D01*
X-92769Y-20668D01*
X-93512Y-20000D01*
X-94281Y-19363D01*
X-95073Y-18755D01*
X-95889Y-18179D01*
X-96727Y-17636D01*
X-97585Y-17125D01*
X-98463Y-16649D01*
X-99358Y-16207D01*
X-100270Y-15800D01*
X-101198Y-15429D01*
X-102139Y-15094D01*
X-103092Y-14797D01*
X-104056Y-14537D01*
X-105030Y-14315D01*
X-106011Y-14131D01*
X-106999Y-13985D01*
X-107992Y-13878D01*
X-108988Y-13810D01*
X-109986Y-13781D01*
X-110985Y-13791D01*
X-111983Y-13839D01*
X-112977Y-13927D01*
X-113968Y-14053D01*
X-114953Y-14218D01*
X-115931Y-14421D01*
X-116900Y-14662D01*
X-117859Y-14941D01*
X-118806Y-15257D01*
X-119740Y-15610D01*
X-120660Y-15999D01*
X-121564Y-16423D01*
X-122451Y-16883D01*
X-123319Y-17376D01*
X-124167Y-17903D01*
X-124994Y-18463D01*
X-125798Y-19055D01*
X-126579Y-19678D01*
X-127335Y-20330D01*
X-128065Y-21012D01*
X-128767Y-21722D01*
X-129442Y-22458D01*
X-130087Y-23220D01*
X-130702Y-24007D01*
X-131286Y-24817D01*
X-131838Y-25649D01*
X-132357Y-26503D01*
X-132842Y-27376D01*
X-133292Y-28267D01*
X-133708Y-29175D01*
X-134088Y-30098D01*
X-134432Y-31036D01*
X-134738Y-31986D01*
X-135008Y-32948D01*
X-135240Y-33919D01*
X-135433Y-34899D01*
X-135588Y-35885D01*
X-135705Y-36877D01*
X-135783Y-37873D01*
X-135822Y-38871D01*
Y-39869D01*
X-135783Y-40867D01*
X-135705Y-41863D01*
X-135588Y-42855D01*
X-135433Y-43841D01*
X-135240Y-44821D01*
X-135008Y-45792D01*
X-134738Y-46754D01*
X-134432Y-47704D01*
X-134088Y-48642D01*
X-133708Y-49565D01*
X-133292Y-50473D01*
X-132842Y-51364D01*
X-132357Y-52237D01*
X-131838Y-53091D01*
X-131286Y-53923D01*
X-130702Y-54733D01*
X-130087Y-55520D01*
X-129442Y-56282D01*
X-128768Y-57019D01*
X-128065Y-57728D01*
X-127335Y-58410D01*
X-126579Y-59062D01*
X-125798Y-59685D01*
X-124994Y-60277D01*
X-124167Y-60837D01*
X-123319Y-61364D01*
X-122451Y-61857D01*
X-121564Y-62317D01*
X-120660Y-62741D01*
X-119740Y-63130D01*
X-118806Y-63483D01*
X-117859Y-63799D01*
X-116900Y-64078D01*
X-115931Y-64319D01*
X-114953Y-64522D01*
X-113968Y-64687D01*
X-112977Y-64813D01*
X-111983Y-64901D01*
X-110985Y-64950D01*
X-109987Y-64959D01*
X-108988Y-64930D01*
X-107992Y-64862D01*
X-106999Y-64755D01*
X-106011Y-64609D01*
X-105030Y-64425D01*
X-104056Y-64203D01*
X-103092Y-63943D01*
X-102139Y-63646D01*
X-101198Y-63311D01*
X-100270Y-62940D01*
X-99358Y-62534D01*
X-98463Y-62092D01*
X-97585Y-61615D01*
X-96727Y-61104D01*
X-95890Y-60561D01*
X-95074Y-59985D01*
X-94281Y-59378D01*
X-93512Y-58740D01*
X-92769Y-58073D01*
X-92053Y-57377D01*
X-91364Y-56654D01*
X-90704Y-55904D01*
X-90074Y-55130D01*
X-89474Y-54331D01*
X-88907Y-53510D01*
X-88371Y-52667D01*
X-87869Y-51803D01*
X-87401Y-50921D01*
X-86968Y-50021D01*
X-86570Y-49106D01*
X-86208Y-48175D01*
X-85883Y-47231D01*
X-85595Y-46274D01*
X-85344Y-45308D01*
X-85131Y-44332D01*
X-84957Y-43349D01*
X-84821Y-42359D01*
X-84724Y-41366D01*
X-84665Y-40369D01*
X-84646Y-39370D01*
X103150Y-5813D02*
Y-9812D01*
X105149Y-11811D01*
X107148Y-9812D01*
Y-5813D01*
X109148D02*
Y-11811D01*
X112147D01*
X113146Y-10811D01*
Y-6813D01*
X112147Y-5813D01*
X109148D01*
X118145Y-11811D02*
Y-5813D01*
X115146Y-8812D01*
X119144D01*
X36220Y-5813D02*
Y-9812D01*
X38220Y-11811D01*
X40219Y-9812D01*
Y-5813D01*
X42219D02*
Y-11811D01*
X45218D01*
X46217Y-10811D01*
Y-6813D01*
X45218Y-5813D01*
X42219D01*
X48217Y-6813D02*
X49216Y-5813D01*
X51216D01*
X52215Y-6813D01*
Y-7812D01*
X51216Y-8812D01*
X50216D01*
X51216D01*
X52215Y-9812D01*
Y-10811D01*
X51216Y-11811D01*
X49216D01*
X48217Y-10811D01*
X-51181Y-5813D02*
Y-9812D01*
X-49182Y-11811D01*
X-47182Y-9812D01*
Y-5813D01*
X-45183D02*
Y-11811D01*
X-42184D01*
X-41184Y-10811D01*
Y-6813D01*
X-42184Y-5813D01*
X-45183D01*
X-35186Y-11811D02*
X-39185D01*
X-35186Y-7812D01*
Y-6813D01*
X-36186Y-5813D01*
X-38185D01*
X-39185Y-6813D01*
X-116142Y-5813D02*
Y-9812D01*
X-114142Y-11811D01*
X-112143Y-9812D01*
Y-5813D01*
X-110144D02*
Y-11811D01*
X-107145D01*
X-106145Y-10811D01*
Y-6813D01*
X-107145Y-5813D01*
X-110144D01*
X-104146Y-11811D02*
X-102146D01*
X-103146D01*
Y-5813D01*
X-104146Y-6813D01*
X-8268Y58754D02*
X-4269Y52756D01*
Y58754D02*
X-8268Y52756D01*
X-2270D02*
Y58754D01*
X729D01*
X1729Y57754D01*
Y55755D01*
X729Y54755D01*
X-2270D01*
X3728Y57754D02*
X4728Y58754D01*
X6727D01*
X7727Y57754D01*
Y56755D01*
X6727Y55755D01*
X5728D01*
X6727D01*
X7727Y54755D01*
Y53756D01*
X6727Y52756D01*
X4728D01*
X3728Y53756D01*
X107388Y31102D02*
X113386D01*
Y34101D01*
X112386Y35101D01*
X108387D01*
X107388Y34101D01*
Y31102D01*
Y37100D02*
X113386D01*
Y40099D01*
X112386Y41099D01*
X108387D01*
X107388Y40099D01*
Y37100D01*
X113386Y46097D02*
X107388D01*
X110387Y43099D01*
Y47097D01*
X40852Y30709D02*
X46850D01*
Y33708D01*
X45851Y34707D01*
X41852D01*
X40852Y33708D01*
Y30709D01*
Y36707D02*
X46850D01*
Y39706D01*
X45851Y40705D01*
X41852D01*
X40852Y39706D01*
Y36707D01*
X41852Y42705D02*
X40852Y43705D01*
Y45704D01*
X41852Y46703D01*
X42852D01*
X43851Y45704D01*
Y44704D01*
Y45704D01*
X44851Y46703D01*
X45851D01*
X46850Y45704D01*
Y43705D01*
X45851Y42705D01*
X-46156Y31102D02*
X-40157D01*
Y34101D01*
X-41157Y35101D01*
X-45156D01*
X-46156Y34101D01*
Y31102D01*
Y37100D02*
X-40157D01*
Y40099D01*
X-41157Y41099D01*
X-45156D01*
X-46156Y40099D01*
Y37100D01*
X-40157Y47097D02*
Y43099D01*
X-44156Y47097D01*
X-45156D01*
X-46156Y46097D01*
Y44098D01*
X-45156Y43099D01*
X-113085Y31102D02*
X-107087D01*
Y34101D01*
X-108086Y35101D01*
X-112085D01*
X-113085Y34101D01*
Y31102D01*
Y37100D02*
X-107087D01*
Y40099D01*
X-108086Y41099D01*
X-112085D01*
X-113085Y40099D01*
Y37100D01*
X-107087Y43099D02*
Y45098D01*
Y44098D01*
X-113085D01*
X-112085Y43099D01*
D26*
X109252Y-36417D02*
D03*
X42323D02*
D03*
X-44291D02*
D03*
X-111221D02*
D03*
D27*
X-4921Y62008D02*
X-3937Y61024D01*
X3937D01*
X4921Y62008D01*
Y79724D01*
X3937Y80709D02*
X4921Y79724D01*
X-3937Y80709D02*
X3937D01*
X-4921Y79724D02*
X-3937Y80709D01*
X-4921Y62008D02*
Y79724D01*
D28*
X8402Y-2950D02*
X9102D01*
X-9298D02*
X-8598D01*
X8402Y-2850D02*
X9302D01*
X-9498D02*
X-8598D01*
X8402Y-2750D02*
X9502D01*
X-9698D02*
X-8598D01*
X8402Y-2650D02*
X9602D01*
X-9798D02*
X-8598D01*
X8402Y-2550D02*
X9802D01*
X-9998D02*
X-8598D01*
X8502Y-2450D02*
X9902D01*
X-10098D02*
X-8698D01*
X8502Y-2350D02*
X10102D01*
X-10298D02*
X-8698D01*
X8602Y-2250D02*
X10202D01*
X-10398D02*
X-8798D01*
X15002Y-2150D02*
X15802D01*
X8702D02*
X10402D01*
X-10598D02*
X-8898D01*
X-15998D02*
X-15198D01*
X15002Y-2050D02*
X16102D01*
X9602D02*
X10602D01*
X8702D02*
X9502D01*
X-9698D02*
X-8898D01*
X-10798D02*
X-9798D01*
X-16298D02*
X-15198D01*
X15002Y-1950D02*
X16402D01*
X9802D02*
X10702D01*
X8802D02*
X9602D01*
X-9798D02*
X-8998D01*
X-10898D02*
X-9998D01*
X-16598D02*
X-15198D01*
X15002Y-1850D02*
X16602D01*
X9902D02*
X10802D01*
X8902D02*
X9702D01*
X-9898D02*
X-9098D01*
X-10998D02*
X-10098D01*
X-16798D02*
X-15198D01*
X18602Y-1750D02*
X19002D01*
X15002D02*
X16802D01*
X10002D02*
X11002D01*
X9002D02*
X9702D01*
X-9898D02*
X-9198D01*
X-11198D02*
X-10198D01*
X-16998D02*
X-15198D01*
X-19198D02*
X-18798D01*
X18602Y-1650D02*
X19002D01*
X15702D02*
X17002D01*
X15002D02*
X15602D01*
X10202D02*
X11102D01*
X9102D02*
X9802D01*
X-9998D02*
X-9298D01*
X-11298D02*
X-10398D01*
X-15798D02*
X-15198D01*
X-17198D02*
X-15898D01*
X-19198D02*
X-18798D01*
X18602Y-1550D02*
X19102D01*
X16002D02*
X17202D01*
X15002D02*
X15602D01*
X10302D02*
X11302D01*
X9202D02*
X9902D01*
X-10098D02*
X-9398D01*
X-11498D02*
X-10498D01*
X-15798D02*
X-15198D01*
X-17398D02*
X-16198D01*
X-19298D02*
X-18798D01*
X18602Y-1450D02*
X19102D01*
X16202D02*
X17402D01*
X15102D02*
X15702D01*
X10502D02*
X11402D01*
X9302D02*
X10002D01*
X-10198D02*
X-9498D01*
X-11598D02*
X-10698D01*
X-15898D02*
X-15298D01*
X-17598D02*
X-16398D01*
X-19298D02*
X-18798D01*
X18602Y-1350D02*
X19102D01*
X16402D02*
X17702D01*
X15102D02*
X15802D01*
X10602D02*
X11602D01*
X9402D02*
X10102D01*
X-10298D02*
X-9598D01*
X-11798D02*
X-10798D01*
X-15998D02*
X-15298D01*
X-17898D02*
X-16598D01*
X-19298D02*
X-18798D01*
X18602Y-1250D02*
X19102D01*
X16602D02*
X17902D01*
X15202D02*
X15802D01*
X10802D02*
X11702D01*
X9502D02*
X10202D01*
X-10398D02*
X-9698D01*
X-11898D02*
X-10998D01*
X-15998D02*
X-15398D01*
X-18098D02*
X-16798D01*
X-19298D02*
X-18798D01*
X18702Y-1150D02*
X19102D01*
X16902D02*
X18202D01*
X15202D02*
X15902D01*
X10902D02*
X11902D01*
X9502D02*
X10302D01*
X-10498D02*
X-9698D01*
X-12098D02*
X-11098D01*
X-16098D02*
X-15398D01*
X-18398D02*
X-17098D01*
X-19298D02*
X-18898D01*
X18602Y-1050D02*
X19102D01*
X17102D02*
X18502D01*
X15302D02*
X16002D01*
X11102D02*
X12002D01*
X9702D02*
X10402D01*
X-10598D02*
X-9898D01*
X-12198D02*
X-11298D01*
X-16198D02*
X-15498D01*
X-18698D02*
X-17298D01*
X-19298D02*
X-18798D01*
X17302Y-950D02*
X19102D01*
X15402D02*
X16102D01*
X11202D02*
X12102D01*
X9702D02*
X10502D01*
X-10698D02*
X-9898D01*
X-12298D02*
X-11398D01*
X-16298D02*
X-15598D01*
X-19298D02*
X-17498D01*
X17502Y-850D02*
X19102D01*
X15402D02*
X16102D01*
X11402D02*
X12202D01*
X9902D02*
X10602D01*
X-10798D02*
X-10098D01*
X-12398D02*
X-11598D01*
X-16298D02*
X-15598D01*
X-19298D02*
X-17698D01*
X17802Y-750D02*
X19102D01*
X15502D02*
X16202D01*
X11502D02*
X12402D01*
X9902D02*
X10702D01*
X-10898D02*
X-10098D01*
X-12598D02*
X-11698D01*
X-16398D02*
X-15698D01*
X-19298D02*
X-17998D01*
X18102Y-650D02*
X19002D01*
X15602D02*
X16302D01*
X11602D02*
X12602D01*
X10002D02*
X10802D01*
X-10998D02*
X-10198D01*
X-12798D02*
X-11798D01*
X-16498D02*
X-15798D01*
X-19198D02*
X-18298D01*
X15702Y-550D02*
X16402D01*
X11802D02*
X12702D01*
X10102D02*
X10902D01*
X-11098D02*
X-10298D01*
X-12898D02*
X-11998D01*
X-16598D02*
X-15898D01*
X15802Y-450D02*
X16502D01*
X11902D02*
X12802D01*
X10202D02*
X11002D01*
X-11198D02*
X-10398D01*
X-12998D02*
X-12098D01*
X-16698D02*
X-15998D01*
X15802Y-350D02*
X16502D01*
X12102D02*
X13002D01*
X10302D02*
X11102D01*
X-11298D02*
X-10498D01*
X-13198D02*
X-12298D01*
X-16698D02*
X-15998D01*
X15902Y-250D02*
X16602D01*
X12202D02*
X13102D01*
X10402D02*
X11202D01*
X-11398D02*
X-10598D01*
X-13298D02*
X-12398D01*
X-16798D02*
X-16098D01*
X16002Y-150D02*
X16702D01*
X12302D02*
X13302D01*
X10502D02*
X11302D01*
X6102D02*
X6802D01*
X-6998D02*
X-6298D01*
X-11498D02*
X-10698D01*
X-13498D02*
X-12498D01*
X-16898D02*
X-16198D01*
X16102Y-50D02*
X16802D01*
X12502D02*
X13402D01*
X10602D02*
X11402D01*
X6102D02*
X7002D01*
X-7198D02*
X-6298D01*
X-11598D02*
X-10798D01*
X-13598D02*
X-12698D01*
X-16998D02*
X-16298D01*
X16202Y50D02*
X16902D01*
X12602D02*
X13602D01*
X10702D02*
X11502D01*
X6102D02*
X7202D01*
X-7398D02*
X-6298D01*
X-11698D02*
X-10898D01*
X-13798D02*
X-12798D01*
X-17098D02*
X-16398D01*
X16302Y150D02*
X17002D01*
X12702D02*
X13702D01*
X10802D02*
X11602D01*
X6102D02*
X7302D01*
X-7498D02*
X-6298D01*
X-11798D02*
X-10998D01*
X-13898D02*
X-12898D01*
X-17198D02*
X-16498D01*
X16302Y250D02*
X17102D01*
X12902D02*
X13802D01*
X10902D02*
X11702D01*
X6102D02*
X7502D01*
X-7698D02*
X-6298D01*
X-11898D02*
X-11098D01*
X-13998D02*
X-13098D01*
X-17298D02*
X-16498D01*
X16402Y350D02*
X17202D01*
X13002D02*
X14002D01*
X11002D02*
X11802D01*
X6102D02*
X7602D01*
X-7798D02*
X-6298D01*
X-11998D02*
X-11198D01*
X-14198D02*
X-13198D01*
X-17398D02*
X-16598D01*
X16502Y450D02*
X17202D01*
X13202D02*
X14102D01*
X11202D02*
X11902D01*
X6202D02*
X7802D01*
X-7998D02*
X-6398D01*
X-12098D02*
X-11398D01*
X-14298D02*
X-13398D01*
X-17398D02*
X-16698D01*
X16602Y550D02*
X17302D01*
X13302D02*
X14202D01*
X11202D02*
X12002D01*
X6302D02*
X7902D01*
X-8098D02*
X-6498D01*
X-12198D02*
X-11398D01*
X-14398D02*
X-13498D01*
X-17498D02*
X-16798D01*
X16702Y650D02*
X17402D01*
X13402D02*
X14402D01*
X11302D02*
X12102D01*
X6302D02*
X8102D01*
X-8298D02*
X-6498D01*
X-12298D02*
X-11498D01*
X-14598D02*
X-13598D01*
X-17598D02*
X-16898D01*
X16802Y750D02*
X17502D01*
X13602D02*
X14502D01*
X11402D02*
X12202D01*
X7302D02*
X8202D01*
X6402D02*
X7102D01*
X-7298D02*
X-6598D01*
X-8398D02*
X-7498D01*
X-12398D02*
X-11598D01*
X-14698D02*
X-13798D01*
X-17698D02*
X-16998D01*
X16902Y850D02*
X17602D01*
X13702D02*
X14602D01*
X11602D02*
X12302D01*
X7402D02*
X8402D01*
X6502D02*
X7202D01*
X-7398D02*
X-6698D01*
X-8598D02*
X-7598D01*
X-12498D02*
X-11798D01*
X-14798D02*
X-13898D01*
X-17798D02*
X-17098D01*
X17002Y950D02*
X17702D01*
X13902D02*
X14802D01*
X11602D02*
X12402D01*
X7602D02*
X8502D01*
X6602D02*
X7302D01*
X-7498D02*
X-6798D01*
X-8698D02*
X-7798D01*
X-12598D02*
X-11798D01*
X-14998D02*
X-14098D01*
X-17898D02*
X-17198D01*
X17002Y1050D02*
X17802D01*
X14002D02*
X14902D01*
X11702D02*
X12502D01*
X7702D02*
X8702D01*
X6702D02*
X7402D01*
X-7598D02*
X-6898D01*
X-8898D02*
X-7898D01*
X-12698D02*
X-11898D01*
X-15098D02*
X-14198D01*
X-17998D02*
X-17198D01*
X17102Y1150D02*
X17902D01*
X14202D02*
X15002D01*
X11902D02*
X12602D01*
X7902D02*
X8802D01*
X6802D02*
X7502D01*
X-7698D02*
X-6998D01*
X-8998D02*
X-8098D01*
X-12798D02*
X-12098D01*
X-15198D02*
X-14398D01*
X-18098D02*
X-17298D01*
X17202Y1250D02*
X18002D01*
X14302D02*
X15202D01*
X11902D02*
X12702D01*
X8002D02*
X8902D01*
X6802D02*
X7602D01*
X-7798D02*
X-6998D01*
X-9098D02*
X-8198D01*
X-12898D02*
X-12098D01*
X-15398D02*
X-14498D01*
X-18198D02*
X-17398D01*
X17302Y1350D02*
X18002D01*
X14502D02*
X15302D01*
X12102D02*
X12802D01*
X8202D02*
X9102D01*
X6902D02*
X7702D01*
X-7898D02*
X-7098D01*
X-9298D02*
X-8398D01*
X-12998D02*
X-12298D01*
X-15498D02*
X-14698D01*
X-18198D02*
X-17498D01*
X17402Y1450D02*
X18102D01*
X14602D02*
X15402D01*
X12202D02*
X12902D01*
X8302D02*
X9202D01*
X7002D02*
X7802D01*
X-7998D02*
X-7198D01*
X-9398D02*
X-8498D01*
X-13098D02*
X-12398D01*
X-15598D02*
X-14798D01*
X-18298D02*
X-17598D01*
X17502Y1550D02*
X18202D01*
X14702D02*
X15602D01*
X12202D02*
X13002D01*
X8402D02*
X9302D01*
X7102D02*
X7902D01*
X-8098D02*
X-7298D01*
X-9498D02*
X-8598D01*
X-13198D02*
X-12398D01*
X-15798D02*
X-14898D01*
X-18398D02*
X-17698D01*
X17602Y1650D02*
X18302D01*
X14902D02*
X15702D01*
X12402D02*
X13102D01*
X8602D02*
X9502D01*
X7202D02*
X8002D01*
X-8198D02*
X-7398D01*
X-9698D02*
X-8798D01*
X-13298D02*
X-12598D01*
X-15898D02*
X-15098D01*
X-18498D02*
X-17798D01*
X17702Y1750D02*
X18402D01*
X15002D02*
X15902D01*
X12402D02*
X13202D01*
X8702D02*
X9602D01*
X7302D02*
X8002D01*
X-8198D02*
X-7498D01*
X-9798D02*
X-8898D01*
X-13398D02*
X-12598D01*
X-16098D02*
X-15198D01*
X-18598D02*
X-17898D01*
X17802Y1850D02*
X18502D01*
X15102D02*
X16002D01*
X12602D02*
X13302D01*
X8902D02*
X9802D01*
X7402D02*
X8102D01*
X-8298D02*
X-7598D01*
X-9998D02*
X-9098D01*
X-13498D02*
X-12798D01*
X-16198D02*
X-15298D01*
X-18698D02*
X-17998D01*
X17902Y1950D02*
X18602D01*
X15302D02*
X16102D01*
X12602D02*
X13402D01*
X9002D02*
X9902D01*
X7502D02*
X8202D01*
X-8398D02*
X-7698D01*
X-10098D02*
X-9198D01*
X-13598D02*
X-12798D01*
X-16298D02*
X-15498D01*
X-18798D02*
X-18098D01*
X18002Y2050D02*
X18702D01*
X15402D02*
X16302D01*
X12802D02*
X13502D01*
X9102D02*
X10002D01*
X7602D02*
X8302D01*
X-8498D02*
X-7798D01*
X-10198D02*
X-9298D01*
X-13698D02*
X-12998D01*
X-16498D02*
X-15598D01*
X-18898D02*
X-18198D01*
X18102Y2150D02*
X18802D01*
X15602D02*
X16402D01*
X12902D02*
X13602D01*
X9302D02*
X10202D01*
X7702D02*
X8402D01*
X-8598D02*
X-7898D01*
X-10398D02*
X-9498D01*
X-13798D02*
X-13098D01*
X-16598D02*
X-15798D01*
X-18998D02*
X-18298D01*
X18102Y2250D02*
X18902D01*
X15702D02*
X16602D01*
X13002D02*
X13702D01*
X9402D02*
X10302D01*
X7802D02*
X8502D01*
X-8698D02*
X-7998D01*
X-10498D02*
X-9598D01*
X-13898D02*
X-13198D01*
X-16798D02*
X-15898D01*
X-19098D02*
X-18298D01*
X18202Y2350D02*
X18902D01*
X15802D02*
X16702D01*
X13102D02*
X13802D01*
X9602D02*
X10402D01*
X7902D02*
X8602D01*
X-8798D02*
X-8098D01*
X-10598D02*
X-9798D01*
X-13998D02*
X-13298D01*
X-16898D02*
X-15998D01*
X-19098D02*
X-18398D01*
X18302Y2450D02*
X19002D01*
X16002D02*
X16902D01*
X13202D02*
X13902D01*
X9702D02*
X10602D01*
X8002D02*
X8702D01*
X-8898D02*
X-8198D01*
X-10798D02*
X-9898D01*
X-14098D02*
X-13398D01*
X-17098D02*
X-16198D01*
X-19198D02*
X-18498D01*
X18402Y2550D02*
X19102D01*
X16102D02*
X17002D01*
X13302D02*
X14002D01*
X9802D02*
X10702D01*
X8102D02*
X8802D01*
X-8998D02*
X-8298D01*
X-10898D02*
X-9998D01*
X-14198D02*
X-13498D01*
X-17198D02*
X-16298D01*
X-19298D02*
X-18598D01*
X18502Y2650D02*
X19202D01*
X16302D02*
X17102D01*
X13402D02*
X14102D01*
X10002D02*
X10802D01*
X8202D02*
X8902D01*
X-9098D02*
X-8398D01*
X-10998D02*
X-10198D01*
X-14298D02*
X-13598D01*
X-17298D02*
X-16498D01*
X-19398D02*
X-18698D01*
X18602Y2750D02*
X19302D01*
X16402D02*
X17302D01*
X13502D02*
X14302D01*
X10102D02*
X11002D01*
X8302D02*
X9002D01*
X-9198D02*
X-8498D01*
X-11198D02*
X-10298D01*
X-14498D02*
X-13698D01*
X-17498D02*
X-16598D01*
X-19498D02*
X-18798D01*
X18702Y2850D02*
X19402D01*
X16502D02*
X17402D01*
X13602D02*
X14302D01*
X10202D02*
X11102D01*
X8402D02*
X9102D01*
X-9298D02*
X-8598D01*
X-11298D02*
X-10398D01*
X-14498D02*
X-13798D01*
X-17598D02*
X-16698D01*
X-19598D02*
X-18898D01*
X18802Y2950D02*
X19502D01*
X16602D02*
X17602D01*
X13702D02*
X14502D01*
X10402D02*
X11302D01*
X8502D02*
X9202D01*
X-9398D02*
X-8698D01*
X-11498D02*
X-10598D01*
X-14698D02*
X-13898D01*
X-17798D02*
X-16798D01*
X-19698D02*
X-18998D01*
X18802Y3050D02*
X19602D01*
X16802D02*
X17702D01*
X13802D02*
X14502D01*
X10502D02*
X11402D01*
X8502D02*
X9302D01*
X-9498D02*
X-8698D01*
X-11598D02*
X-10698D01*
X-14698D02*
X-13998D01*
X-17898D02*
X-16998D01*
X-19798D02*
X-18998D01*
X18902Y3150D02*
X19702D01*
X17002D02*
X17902D01*
X13902D02*
X14602D01*
X10602D02*
X11502D01*
X8602D02*
X9402D01*
X-9598D02*
X-8798D01*
X-11698D02*
X-10798D01*
X-14798D02*
X-14098D01*
X-18098D02*
X-17198D01*
X-19898D02*
X-19098D01*
X19002Y3250D02*
X19702D01*
X17102D02*
X18002D01*
X14002D02*
X14802D01*
X10802D02*
X11602D01*
X8702D02*
X9502D01*
X-9698D02*
X-8898D01*
X-11798D02*
X-10998D01*
X-14998D02*
X-14198D01*
X-18198D02*
X-17298D01*
X-19898D02*
X-19198D01*
X19102Y3350D02*
X19802D01*
X17202D02*
X18202D01*
X14102D02*
X14802D01*
X10902D02*
X11802D01*
X8802D02*
X9602D01*
X-9798D02*
X-8998D01*
X-11998D02*
X-11098D01*
X-14998D02*
X-14298D01*
X-18398D02*
X-17398D01*
X-19998D02*
X-19298D01*
X19202Y3450D02*
X19902D01*
X17402D02*
X18302D01*
X14202D02*
X15002D01*
X11102D02*
X11902D01*
X8902D02*
X9702D01*
X-9898D02*
X-9098D01*
X-12098D02*
X-11298D01*
X-15198D02*
X-14398D01*
X-18498D02*
X-17598D01*
X-20098D02*
X-19398D01*
X19302Y3550D02*
X20002D01*
X17502D02*
X18402D01*
X14302D02*
X15002D01*
X11202D02*
X12102D01*
X9102D02*
X9802D01*
X-9998D02*
X-9298D01*
X-12298D02*
X-11398D01*
X-15198D02*
X-14498D01*
X-18598D02*
X-17698D01*
X-20198D02*
X-19498D01*
X19402Y3650D02*
X20102D01*
X17702D02*
X18602D01*
X14402D02*
X15202D01*
X11302D02*
X12102D01*
X9202D02*
X9902D01*
X-10098D02*
X-9398D01*
X-12298D02*
X-11498D01*
X-15398D02*
X-14598D01*
X-18798D02*
X-17898D01*
X-20298D02*
X-19598D01*
X19502Y3750D02*
X20202D01*
X17802D02*
X18802D01*
X14502D02*
X15302D01*
X11402D02*
X12302D01*
X9302D02*
X10002D01*
X-10198D02*
X-9498D01*
X-12498D02*
X-11598D01*
X-15498D02*
X-14698D01*
X-18998D02*
X-17998D01*
X-20398D02*
X-19698D01*
X19502Y3850D02*
X20302D01*
X17902D02*
X18902D01*
X14602D02*
X15402D01*
X11602D02*
X12402D01*
X9402D02*
X10102D01*
X-10298D02*
X-9598D01*
X-12598D02*
X-11798D01*
X-15598D02*
X-14798D01*
X-19098D02*
X-18098D01*
X-20498D02*
X-19698D01*
X19602Y3950D02*
X20302D01*
X18102D02*
X19002D01*
X14702D02*
X15502D01*
X11702D02*
X12602D01*
X9502D02*
X10202D01*
X-10398D02*
X-9698D01*
X-12798D02*
X-11898D01*
X-15698D02*
X-14898D01*
X-19198D02*
X-18298D01*
X-20498D02*
X-19798D01*
X19702Y4050D02*
X20402D01*
X18202D02*
X19202D01*
X14902D02*
X15502D01*
X11802D02*
X12702D01*
X9602D02*
X10302D01*
X-10498D02*
X-9798D01*
X-12898D02*
X-11998D01*
X-15698D02*
X-15098D01*
X-19398D02*
X-18398D01*
X-20598D02*
X-19898D01*
X19802Y4150D02*
X20502D01*
X18402D02*
X19402D01*
X14902D02*
X15702D01*
X12002D02*
X12802D01*
X9602D02*
X10402D01*
X-10598D02*
X-9798D01*
X-12998D02*
X-12198D01*
X-15898D02*
X-15098D01*
X-19598D02*
X-18598D01*
X-20698D02*
X-19998D01*
X19902Y4250D02*
X20602D01*
X18502D02*
X19502D01*
X15102D02*
X15802D01*
X12102D02*
X13002D01*
X9702D02*
X10502D01*
X-10698D02*
X-9898D01*
X-13198D02*
X-12298D01*
X-15998D02*
X-15298D01*
X-19698D02*
X-18698D01*
X-20798D02*
X-20098D01*
X20002Y4350D02*
X20602D01*
X18702D02*
X19702D01*
X15102D02*
X15902D01*
X12302D02*
X13102D01*
X9802D02*
X10602D01*
X-10798D02*
X-9998D01*
X-13298D02*
X-12498D01*
X-16098D02*
X-15298D01*
X-19898D02*
X-18898D01*
X-20798D02*
X-20198D01*
X20002Y4450D02*
X20702D01*
X18802D02*
X19802D01*
X15202D02*
X16002D01*
X12402D02*
X13202D01*
X9902D02*
X10702D01*
X-10898D02*
X-10098D01*
X-13398D02*
X-12598D01*
X-16198D02*
X-15398D01*
X-19998D02*
X-18998D01*
X-20898D02*
X-20198D01*
X20102Y4550D02*
X20802D01*
X19002D02*
X20002D01*
X15402D02*
X16102D01*
X12502D02*
X13402D01*
X10002D02*
X10802D01*
X-10998D02*
X-10198D01*
X-13598D02*
X-12698D01*
X-16298D02*
X-15598D01*
X-20198D02*
X-19198D01*
X-20998D02*
X-20298D01*
X19102Y4650D02*
X20802D01*
X15402D02*
X16202D01*
X12702D02*
X13502D01*
X10102D02*
X10902D01*
X-11098D02*
X-10298D01*
X-13698D02*
X-12898D01*
X-16398D02*
X-15598D01*
X-20998D02*
X-19298D01*
X19302Y4750D02*
X20902D01*
X15602D02*
X16302D01*
X12802D02*
X13602D01*
X10202D02*
X11002D01*
X-11198D02*
X-10398D01*
X-13798D02*
X-12998D01*
X-16498D02*
X-15798D01*
X-21098D02*
X-19498D01*
X19502Y4850D02*
X20902D01*
X15702D02*
X16402D01*
X12902D02*
X13802D01*
X10302D02*
X11102D01*
X-11298D02*
X-10498D01*
X-13998D02*
X-13098D01*
X-16598D02*
X-15898D01*
X-21098D02*
X-19698D01*
X19602Y4950D02*
X20902D01*
X15802D02*
X16502D01*
X13102D02*
X13902D01*
X10402D02*
X11202D01*
X-11398D02*
X-10598D01*
X-14098D02*
X-13298D01*
X-16698D02*
X-15998D01*
X-21098D02*
X-19798D01*
X19802Y5050D02*
X20902D01*
X15902D02*
X16602D01*
X13202D02*
X14002D01*
X10502D02*
X11302D01*
X-11498D02*
X-10698D01*
X-14198D02*
X-13398D01*
X-16798D02*
X-16098D01*
X-21098D02*
X-19998D01*
X20002Y5150D02*
X20902D01*
X15902D02*
X16702D01*
X13302D02*
X14202D01*
X10602D02*
X11402D01*
X-11598D02*
X-10798D01*
X-14398D02*
X-13498D01*
X-16898D02*
X-16098D01*
X-21098D02*
X-20198D01*
X20302Y5250D02*
X20802D01*
X16102D02*
X16902D01*
X13502D02*
X14302D01*
X10702D02*
X11502D01*
X-11698D02*
X-10898D01*
X-14498D02*
X-13698D01*
X-17098D02*
X-16298D01*
X-20998D02*
X-20498D01*
X16202Y5350D02*
X16902D01*
X13602D02*
X14402D01*
X10802D02*
X11602D01*
X-11798D02*
X-10998D01*
X-14598D02*
X-13798D01*
X-17098D02*
X-16398D01*
X16302Y5450D02*
X17002D01*
X13702D02*
X14602D01*
X10902D02*
X11702D01*
X-11898D02*
X-11098D01*
X-14798D02*
X-13898D01*
X-17198D02*
X-16498D01*
X16402Y5550D02*
X17102D01*
X13902D02*
X14702D01*
X11102D02*
X11802D01*
X-11998D02*
X-11298D01*
X-14898D02*
X-14098D01*
X-17298D02*
X-16598D01*
X16502Y5650D02*
X17202D01*
X14002D02*
X14802D01*
X11202D02*
X11902D01*
X-12098D02*
X-11398D01*
X-14998D02*
X-14198D01*
X-17398D02*
X-16698D01*
X16602Y5750D02*
X17402D01*
X14102D02*
X15002D01*
X11202D02*
X12002D01*
X-12198D02*
X-11398D01*
X-15198D02*
X-14298D01*
X-17598D02*
X-16798D01*
X16702Y5850D02*
X17402D01*
X14302D02*
X15102D01*
X11302D02*
X12102D01*
X-12298D02*
X-11498D01*
X-15298D02*
X-14498D01*
X-17598D02*
X-16898D01*
X16802Y5950D02*
X17602D01*
X14302D02*
X15202D01*
X11402D02*
X12202D01*
X-12398D02*
X-11598D01*
X-15398D02*
X-14498D01*
X-17798D02*
X-16998D01*
X16902Y6050D02*
X17602D01*
X14502D02*
X15402D01*
X11502D02*
X12302D01*
X-12498D02*
X-11698D01*
X-15598D02*
X-14698D01*
X-17798D02*
X-17098D01*
X17002Y6150D02*
X17802D01*
X14702D02*
X15502D01*
X11602D02*
X12402D01*
X7902D02*
X8702D01*
X-8898D02*
X-8098D01*
X-12598D02*
X-11798D01*
X-15698D02*
X-14898D01*
X-17998D02*
X-17198D01*
X17102Y6250D02*
X17902D01*
X14702D02*
X15602D01*
X11702D02*
X12502D01*
X7902D02*
X8902D01*
X-9098D02*
X-8098D01*
X-12698D02*
X-11898D01*
X-15798D02*
X-14898D01*
X-18098D02*
X-17298D01*
X17202Y6350D02*
X18002D01*
X14902D02*
X15802D01*
X11802D02*
X12602D01*
X7902D02*
X9202D01*
X-9398D02*
X-8098D01*
X-12798D02*
X-11998D01*
X-15998D02*
X-15098D01*
X-18198D02*
X-17398D01*
X17302Y6450D02*
X18102D01*
X15102D02*
X15902D01*
X11902D02*
X12702D01*
X7902D02*
X9302D01*
X-9498D02*
X-8098D01*
X-12898D02*
X-12098D01*
X-16098D02*
X-15298D01*
X-18298D02*
X-17498D01*
X17502Y6550D02*
X18202D01*
X15102D02*
X16002D01*
X12002D02*
X12802D01*
X7902D02*
X9502D01*
X-9698D02*
X-8098D01*
X-12998D02*
X-12198D01*
X-16198D02*
X-15298D01*
X-18398D02*
X-17698D01*
X17502Y6650D02*
X18302D01*
X15302D02*
X16202D01*
X12102D02*
X12902D01*
X8602D02*
X9702D01*
X7902D02*
X8502D01*
X-8698D02*
X-8098D01*
X-9898D02*
X-8798D01*
X-13098D02*
X-12298D01*
X-16398D02*
X-15498D01*
X-18498D02*
X-17698D01*
X17702Y6750D02*
X18402D01*
X15502D02*
X16302D01*
X12202D02*
X12902D01*
X8802D02*
X9902D01*
X7902D02*
X8502D01*
X-8698D02*
X-8098D01*
X-10098D02*
X-8998D01*
X-13098D02*
X-12398D01*
X-16498D02*
X-15698D01*
X-18598D02*
X-17898D01*
X17702Y6850D02*
X18502D01*
X15502D02*
X16402D01*
X13902D02*
X14502D01*
X12302D02*
X13002D01*
X9002D02*
X10102D01*
X8002D02*
X8602D01*
X-8798D02*
X-8198D01*
X-10298D02*
X-9198D01*
X-13198D02*
X-12498D01*
X-14698D02*
X-14098D01*
X-16598D02*
X-15698D01*
X-18698D02*
X-17898D01*
X17902Y6950D02*
X18602D01*
X15702D02*
X16602D01*
X13702D02*
X14502D01*
X12402D02*
X13102D01*
X9202D02*
X10202D01*
X8002D02*
X8602D01*
X-8798D02*
X-8198D01*
X-10398D02*
X-9398D01*
X-13298D02*
X-12598D01*
X-14698D02*
X-13898D01*
X-16798D02*
X-15898D01*
X-18798D02*
X-18098D01*
X17902Y7050D02*
X18702D01*
X15902D02*
X16702D01*
X13602D02*
X14502D01*
X12502D02*
X13202D01*
X9302D02*
X10402D01*
X8102D02*
X8702D01*
X-8898D02*
X-8298D01*
X-10598D02*
X-9498D01*
X-13398D02*
X-12698D01*
X-14698D02*
X-13798D01*
X-16898D02*
X-16098D01*
X-18898D02*
X-18098D01*
X18102Y7150D02*
X18802D01*
X15902D02*
X16802D01*
X12602D02*
X14502D01*
X9502D02*
X10502D01*
X8102D02*
X8702D01*
X-8898D02*
X-8298D01*
X-10698D02*
X-9698D01*
X-14698D02*
X-12798D01*
X-16998D02*
X-16098D01*
X-18998D02*
X-18298D01*
X18102Y7250D02*
X18902D01*
X16102D02*
X17002D01*
X12702D02*
X14502D01*
X9702D02*
X10702D01*
X8202D02*
X8802D01*
X-8998D02*
X-8398D01*
X-10898D02*
X-9898D01*
X-14698D02*
X-12898D01*
X-17198D02*
X-16298D01*
X-19098D02*
X-18298D01*
X18302Y7350D02*
X19002D01*
X16302D02*
X17002D01*
X12802D02*
X14402D01*
X9802D02*
X10802D01*
X8202D02*
X8902D01*
X-9098D02*
X-8398D01*
X-10998D02*
X-9998D01*
X-14598D02*
X-12998D01*
X-17198D02*
X-16498D01*
X-19198D02*
X-18498D01*
X18302Y7450D02*
X19102D01*
X16302D02*
X17202D01*
X12902D02*
X14302D01*
X10002D02*
X11002D01*
X8302D02*
X8902D01*
X-9098D02*
X-8498D01*
X-11198D02*
X-10198D01*
X-14498D02*
X-13098D01*
X-17398D02*
X-16498D01*
X-19298D02*
X-18498D01*
X18502Y7550D02*
X19202D01*
X16502D02*
X17402D01*
X12902D02*
X14302D01*
X10202D02*
X11202D01*
X8402D02*
X9002D01*
X-9198D02*
X-8598D01*
X-11398D02*
X-10398D01*
X-14498D02*
X-13098D01*
X-17598D02*
X-16698D01*
X-19398D02*
X-18698D01*
X18502Y7650D02*
X19302D01*
X16602D02*
X17502D01*
X12702D02*
X14202D01*
X10302D02*
X11302D01*
X8402D02*
X9102D01*
X7202D02*
X7802D01*
X-7998D02*
X-7398D01*
X-9298D02*
X-8598D01*
X-11498D02*
X-10498D01*
X-14398D02*
X-12898D01*
X-17698D02*
X-16798D01*
X-19498D02*
X-18698D01*
X18702Y7750D02*
X19402D01*
X16702D02*
X17602D01*
X12602D02*
X14102D01*
X10502D02*
X11502D01*
X8502D02*
X9102D01*
X7002D02*
X7802D01*
X-7998D02*
X-7198D01*
X-9298D02*
X-8698D01*
X-11698D02*
X-10698D01*
X-14298D02*
X-12798D01*
X-17798D02*
X-16898D01*
X-19598D02*
X-18898D01*
X18702Y7850D02*
X19502D01*
X16902D02*
X17702D01*
X12502D02*
X14002D01*
X10702D02*
X11602D01*
X8602D02*
X9202D01*
X6902D02*
X7802D01*
X-7998D02*
X-7098D01*
X-9398D02*
X-8798D01*
X-11798D02*
X-10898D01*
X-14198D02*
X-12698D01*
X-17898D02*
X-17098D01*
X-19698D02*
X-18898D01*
X18902Y7950D02*
X19602D01*
X17002D02*
X17902D01*
X12402D02*
X14102D01*
X10802D02*
X11802D01*
X8602D02*
X9302D01*
X6702D02*
X7802D01*
X-7998D02*
X-6898D01*
X-9498D02*
X-8798D01*
X-11998D02*
X-10998D01*
X-14298D02*
X-12598D01*
X-18098D02*
X-17198D01*
X-19798D02*
X-19098D01*
X19002Y8050D02*
X19702D01*
X17202D02*
X18002D01*
X12202D02*
X14202D01*
X10902D02*
X12002D01*
X8702D02*
X9302D01*
X6602D02*
X7802D01*
X-7998D02*
X-6798D01*
X-9498D02*
X-8898D01*
X-12198D02*
X-11098D01*
X-14398D02*
X-12398D01*
X-18198D02*
X-17398D01*
X-19898D02*
X-19198D01*
X19102Y8150D02*
X19802D01*
X17302D02*
X18202D01*
X11102D02*
X14302D01*
X8802D02*
X9402D01*
X6402D02*
X7702D01*
X-7898D02*
X-6598D01*
X-9598D02*
X-8998D01*
X-14498D02*
X-11298D01*
X-18398D02*
X-17498D01*
X-19998D02*
X-19298D01*
X19202Y8250D02*
X19902D01*
X17402D02*
X18302D01*
X13702D02*
X14402D01*
X12902D02*
X13602D01*
X11302D02*
X12802D01*
X8802D02*
X9502D01*
X6302D02*
X7702D01*
X-7898D02*
X-6498D01*
X-9698D02*
X-8998D01*
X-12998D02*
X-11498D01*
X-13798D02*
X-13098D01*
X-14598D02*
X-13898D01*
X-18498D02*
X-17598D01*
X-20098D02*
X-19398D01*
X19302Y8350D02*
X20002D01*
X17602D02*
X18402D01*
X13802D02*
X14502D01*
X11402D02*
X13502D01*
X8902D02*
X9502D01*
X6102D02*
X7602D01*
X-7798D02*
X-6298D01*
X-9698D02*
X-9098D01*
X-13698D02*
X-11598D01*
X-14698D02*
X-13998D01*
X-18598D02*
X-17798D01*
X-20198D02*
X-19498D01*
X19402Y8450D02*
X20102D01*
X17702D02*
X18502D01*
X13902D02*
X14602D01*
X11602D02*
X13402D01*
X9002D02*
X9602D01*
X6002D02*
X7502D01*
X502D02*
X1102D01*
X-1298D02*
X-698D01*
X-7698D02*
X-6198D01*
X-9798D02*
X-9198D01*
X-13598D02*
X-11798D01*
X-14798D02*
X-14098D01*
X-18698D02*
X-17898D01*
X-20298D02*
X-19598D01*
X19502Y8550D02*
X20202D01*
X17902D02*
X18702D01*
X13902D02*
X14702D01*
X11602D02*
X13302D01*
X9002D02*
X9702D01*
X5802D02*
X7402D01*
X302D02*
X1102D01*
X-1298D02*
X-498D01*
X-7598D02*
X-5998D01*
X-9898D02*
X-9198D01*
X-13498D02*
X-11798D01*
X-14898D02*
X-14098D01*
X-18898D02*
X-18098D01*
X-20398D02*
X-19698D01*
X19602Y8650D02*
X20302D01*
X17902D02*
X18802D01*
X14102D02*
X14802D01*
X11402D02*
X13202D01*
X9102D02*
X9702D01*
X5702D02*
X7302D01*
X102D02*
X1102D01*
X-1298D02*
X-298D01*
X-7498D02*
X-5898D01*
X-9898D02*
X-9298D01*
X-13398D02*
X-11598D01*
X-14998D02*
X-14298D01*
X-18998D02*
X-18098D01*
X-20498D02*
X-19798D01*
X19702Y8750D02*
X20402D01*
X18102D02*
X19002D01*
X14102D02*
X14902D01*
X11302D02*
X13102D01*
X9202D02*
X9802D01*
X5502D02*
X7202D01*
X-1298D02*
X1102D01*
X-7398D02*
X-5698D01*
X-9998D02*
X-9398D01*
X-13298D02*
X-11498D01*
X-15098D02*
X-14298D01*
X-19198D02*
X-18298D01*
X-20598D02*
X-19898D01*
X19802Y8850D02*
X20502D01*
X18202D02*
X19102D01*
X14202D02*
X15002D01*
X12202D02*
X13202D01*
X11202D02*
X12002D01*
X9202D02*
X9802D01*
X6402D02*
X7102D01*
X5402D02*
X6302D01*
X-1298D02*
X1102D01*
X-6498D02*
X-5598D01*
X-7298D02*
X-6598D01*
X-9998D02*
X-9398D01*
X-12198D02*
X-11398D01*
X-13398D02*
X-12398D01*
X-15198D02*
X-14398D01*
X-19298D02*
X-18398D01*
X-20698D02*
X-19998D01*
X19902Y8950D02*
X20602D01*
X18402D02*
X19202D01*
X14302D02*
X15102D01*
X12102D02*
X13302D01*
X11102D02*
X11902D01*
X9302D02*
X9902D01*
X6302D02*
X7102D01*
X5302D02*
X6202D01*
X-1298D02*
X1102D01*
X-6398D02*
X-5498D01*
X-7298D02*
X-6498D01*
X-10098D02*
X-9498D01*
X-12098D02*
X-11298D01*
X-13498D02*
X-12298D01*
X-15298D02*
X-14498D01*
X-19398D02*
X-18598D01*
X-20798D02*
X-20098D01*
X20002Y9050D02*
X20702D01*
X18502D02*
X19402D01*
X14402D02*
X15202D01*
X12002D02*
X13502D01*
X10902D02*
X11702D01*
X9302D02*
X9902D01*
X6202D02*
X6902D01*
X5202D02*
X6102D01*
X-1198D02*
X1002D01*
X-6298D02*
X-5398D01*
X-7098D02*
X-6398D01*
X-10098D02*
X-9498D01*
X-11898D02*
X-11098D01*
X-13698D02*
X-12198D01*
X-15398D02*
X-14598D01*
X-19598D02*
X-18698D01*
X-20898D02*
X-20198D01*
X20102Y9150D02*
X20802D01*
X18602D02*
X19502D01*
X14502D02*
X15202D01*
X11902D02*
X13602D01*
X10802D02*
X11602D01*
X9402D02*
X10002D01*
X6102D02*
X6802D01*
X5002D02*
X5902D01*
X-1198D02*
X1002D01*
X-6098D02*
X-5198D01*
X-6998D02*
X-6298D01*
X-10198D02*
X-9598D01*
X-11798D02*
X-10998D01*
X-13798D02*
X-12098D01*
X-15398D02*
X-14698D01*
X-19698D02*
X-18798D01*
X-20998D02*
X-20298D01*
X20202Y9250D02*
X20902D01*
X18802D02*
X19602D01*
X14602D02*
X15302D01*
X12802D02*
X13802D01*
X11802D02*
X12602D01*
X10702D02*
X11502D01*
X9402D02*
X10002D01*
X4902D02*
X6802D01*
X-1098D02*
X902D01*
X-6998D02*
X-5098D01*
X-10198D02*
X-9598D01*
X-11698D02*
X-10898D01*
X-12798D02*
X-11998D01*
X-13998D02*
X-12998D01*
X-15498D02*
X-14798D01*
X-19798D02*
X-18998D01*
X-21098D02*
X-20398D01*
X20302Y9350D02*
X21002D01*
X18902D02*
X19802D01*
X14702D02*
X15402D01*
X13002D02*
X14002D01*
X11702D02*
X12402D01*
X10502D02*
X11402D01*
X9502D02*
X10002D01*
X4802D02*
X6702D01*
X-998D02*
X802D01*
X-6898D02*
X-4998D01*
X-10198D02*
X-9698D01*
X-11598D02*
X-10698D01*
X-12598D02*
X-11898D01*
X-14198D02*
X-13198D01*
X-15598D02*
X-14898D01*
X-19998D02*
X-19098D01*
X-21198D02*
X-20498D01*
X20402Y9450D02*
X21102D01*
X19002D02*
X19902D01*
X14802D02*
X15502D01*
X13102D02*
X14102D01*
X11602D02*
X12302D01*
X10402D02*
X11202D01*
X9502D02*
X10002D01*
X4602D02*
X6602D01*
X2D02*
X1002D01*
X-1198D02*
X-198D01*
X-6798D02*
X-4798D01*
X-10198D02*
X-9698D01*
X-11398D02*
X-10598D01*
X-12498D02*
X-11798D01*
X-14298D02*
X-13298D01*
X-15698D02*
X-14998D01*
X-20098D02*
X-19198D01*
X-21298D02*
X-20598D01*
X20502Y9550D02*
X21202D01*
X19202D02*
X20102D01*
X14902D02*
X15602D01*
X13302D02*
X14302D01*
X11402D02*
X12302D01*
X10302D02*
X11102D01*
X9602D02*
X10002D01*
X4502D02*
X6802D01*
X-1298D02*
X1102D01*
X-6998D02*
X-4698D01*
X-10198D02*
X-9798D01*
X-11298D02*
X-10498D01*
X-12498D02*
X-11598D01*
X-14498D02*
X-13498D01*
X-15798D02*
X-15098D01*
X-20298D02*
X-19398D01*
X-21398D02*
X-20698D01*
X20602Y9650D02*
X21302D01*
X19302D02*
X20202D01*
X16402D02*
X16902D01*
X15002D02*
X15702D01*
X13402D02*
X14502D01*
X11402D02*
X12102D01*
X10102D02*
X11002D01*
X8902D02*
X10002D01*
X5302D02*
X7102D01*
X4302D02*
X5202D01*
X-1398D02*
X1202D01*
X-5398D02*
X-4498D01*
X-7298D02*
X-5498D01*
X-10198D02*
X-9098D01*
X-11198D02*
X-10298D01*
X-12298D02*
X-11598D01*
X-14698D02*
X-13598D01*
X-15898D02*
X-15198D01*
X-17098D02*
X-16598D01*
X-20398D02*
X-19498D01*
X-21498D02*
X-20798D01*
X20702Y9750D02*
X21402D01*
X19402D02*
X20302D01*
X16202D02*
X16902D01*
X15002D02*
X15702D01*
X13602D02*
X14602D01*
X11302D02*
X12002D01*
X8902D02*
X10802D01*
X5302D02*
X7302D01*
X4202D02*
X5102D01*
X502D02*
X1402D01*
X-598D02*
X402D01*
X-1598D02*
X-698D01*
X-5298D02*
X-4398D01*
X-7498D02*
X-5498D01*
X-10998D02*
X-9098D01*
X-12198D02*
X-11498D01*
X-14798D02*
X-13798D01*
X-15898D02*
X-15198D01*
X-17098D02*
X-16398D01*
X-20498D02*
X-19598D01*
X-21598D02*
X-20898D01*
X20802Y9850D02*
X21502D01*
X19602D02*
X20502D01*
X16002D02*
X16902D01*
X15102D02*
X15802D01*
X13702D02*
X14802D01*
X11202D02*
X11902D01*
X8902D02*
X10702D01*
X5302D02*
X7502D01*
X4102D02*
X5002D01*
X602D02*
X1502D01*
X-598D02*
X402D01*
X-1698D02*
X-798D01*
X-5198D02*
X-4298D01*
X-7698D02*
X-5498D01*
X-10898D02*
X-9098D01*
X-12098D02*
X-11398D01*
X-14998D02*
X-13898D01*
X-15998D02*
X-15298D01*
X-17098D02*
X-16198D01*
X-20698D02*
X-19798D01*
X-21698D02*
X-20998D01*
X20902Y9950D02*
X21602D01*
X19702D02*
X20602D01*
X15202D02*
X16902D01*
X13902D02*
X15002D01*
X11102D02*
X11802D01*
X8902D02*
X10602D01*
X6402D02*
X7702D01*
X5302D02*
X6102D01*
X4002D02*
X4802D01*
X702D02*
X1702D01*
X-498D02*
X302D01*
X-1898D02*
X-898D01*
X-4998D02*
X-4198D01*
X-6298D02*
X-5498D01*
X-7898D02*
X-6598D01*
X-10798D02*
X-9098D01*
X-11998D02*
X-11298D01*
X-15198D02*
X-14098D01*
X-17098D02*
X-15398D01*
X-20798D02*
X-19898D01*
X-21798D02*
X-21098D01*
X21002Y10050D02*
X21702D01*
X19902D02*
X20802D01*
X15302D02*
X16902D01*
X14102D02*
X15102D01*
X11002D02*
X11702D01*
X8902D02*
X10402D01*
X6702D02*
X7902D01*
X5202D02*
X6002D01*
X3802D02*
X4702D01*
X902D02*
X1802D01*
X-598D02*
X402D01*
X-1998D02*
X-1098D01*
X-4898D02*
X-3998D01*
X-6198D02*
X-5398D01*
X-8098D02*
X-6898D01*
X-10598D02*
X-9098D01*
X-11898D02*
X-11198D01*
X-15298D02*
X-14298D01*
X-17098D02*
X-15498D01*
X-20998D02*
X-20098D01*
X-21898D02*
X-21198D01*
X21002Y10150D02*
X21802D01*
X20002D02*
X20902D01*
X15402D02*
X16802D01*
X14202D02*
X15302D01*
X10902D02*
X11602D01*
X9502D02*
X10302D01*
X8902D02*
X9402D01*
X6902D02*
X8202D01*
X5102D02*
X6102D01*
X3702D02*
X4502D01*
X1002D02*
X2002D01*
X-598D02*
X402D01*
X-2198D02*
X-1198D01*
X-4698D02*
X-3898D01*
X-6298D02*
X-5298D01*
X-8398D02*
X-7098D01*
X-9598D02*
X-9098D01*
X-10498D02*
X-9698D01*
X-11798D02*
X-11098D01*
X-15498D02*
X-14398D01*
X-16998D02*
X-15598D01*
X-21098D02*
X-20198D01*
X-21998D02*
X-21198D01*
X21202Y10250D02*
X21902D01*
X20202D02*
X21002D01*
X14402D02*
X16802D01*
X10702D02*
X11502D01*
X8902D02*
X10202D01*
X7102D02*
X8402D01*
X5002D02*
X6202D01*
X3602D02*
X4402D01*
X1202D02*
X2102D01*
X-798D02*
X602D01*
X-2298D02*
X-1398D01*
X-4598D02*
X-3798D01*
X-6398D02*
X-5198D01*
X-8598D02*
X-7298D01*
X-10398D02*
X-9098D01*
X-11698D02*
X-10898D01*
X-16998D02*
X-14598D01*
X-21198D02*
X-20398D01*
X-22098D02*
X-21398D01*
X21302Y10350D02*
X22002D01*
X20302D02*
X21202D01*
X14602D02*
X16702D01*
X10602D02*
X11402D01*
X8902D02*
X10102D01*
X7302D02*
X8702D01*
X4902D02*
X6202D01*
X3402D02*
X4302D01*
X1302D02*
X2202D01*
X-798D02*
X602D01*
X-2398D02*
X-1498D01*
X-4498D02*
X-3598D01*
X-6398D02*
X-5098D01*
X-8898D02*
X-7498D01*
X-10298D02*
X-9098D01*
X-11598D02*
X-10798D01*
X-16898D02*
X-14798D01*
X-21398D02*
X-20498D01*
X-22198D02*
X-21498D01*
X20402Y10450D02*
X22102D01*
X14702D02*
X16602D01*
X10502D02*
X11302D01*
X7502D02*
X9902D01*
X5602D02*
X6302D01*
X4802D02*
X5502D01*
X3302D02*
X4102D01*
X1502D02*
X2402D01*
X2D02*
X702D01*
X-898D02*
X-198D01*
X-2598D02*
X-1698D01*
X-4298D02*
X-3498D01*
X-5698D02*
X-4998D01*
X-6498D02*
X-5798D01*
X-10098D02*
X-7698D01*
X-11498D02*
X-10698D01*
X-16798D02*
X-14898D01*
X-22298D02*
X-20598D01*
X20502Y10550D02*
X22202D01*
X14902D02*
X16502D01*
X10402D02*
X11202D01*
X7802D02*
X9802D01*
X5702D02*
X6402D01*
X4702D02*
X5402D01*
X3202D02*
X4002D01*
X1602D02*
X2502D01*
X102D02*
X802D01*
X-998D02*
X-298D01*
X-2698D02*
X-1798D01*
X-4198D02*
X-3398D01*
X-5598D02*
X-4898D01*
X-6598D02*
X-5898D01*
X-9998D02*
X-7998D01*
X-11398D02*
X-10598D01*
X-16698D02*
X-15098D01*
X-22398D02*
X-20698D01*
X20702Y10650D02*
X22302D01*
X14902D02*
X16402D01*
X10302D02*
X11002D01*
X8002D02*
X9702D01*
X5802D02*
X6502D01*
X4602D02*
X5302D01*
X3002D02*
X3902D01*
X1702D02*
X2702D01*
X202D02*
X902D01*
X-1098D02*
X-398D01*
X-2898D02*
X-1898D01*
X-4098D02*
X-3198D01*
X-5498D02*
X-4798D01*
X-6698D02*
X-5998D01*
X-9898D02*
X-8198D01*
X-11198D02*
X-10498D01*
X-16598D02*
X-15098D01*
X-22498D02*
X-20898D01*
X20802Y10750D02*
X22302D01*
X14802D02*
X16302D01*
X10202D02*
X10902D01*
X8302D02*
X9602D01*
X5802D02*
X6502D01*
X4502D02*
X5202D01*
X2902D02*
X3702D01*
X1902D02*
X2802D01*
X302D02*
X1002D01*
X-1198D02*
X-498D01*
X-2998D02*
X-2098D01*
X-3898D02*
X-3098D01*
X-5398D02*
X-4698D01*
X-6698D02*
X-5998D01*
X-9798D02*
X-8498D01*
X-11098D02*
X-10398D01*
X-16498D02*
X-14998D01*
X-22498D02*
X-20998D01*
X21002Y10850D02*
X22402D01*
X14602D02*
X16202D01*
X10102D02*
X10802D01*
X8602D02*
X9502D01*
X5902D02*
X6602D01*
X4302D02*
X5102D01*
X2002D02*
X3602D01*
X402D02*
X1102D01*
X-1298D02*
X-598D01*
X-3798D02*
X-2198D01*
X-5298D02*
X-4498D01*
X-6798D02*
X-6098D01*
X-9698D02*
X-8798D01*
X-10998D02*
X-10298D01*
X-16398D02*
X-14798D01*
X-22598D02*
X-21198D01*
X21102Y10950D02*
X22502D01*
X14502D02*
X16102D01*
X10002D02*
X10702D01*
X8502D02*
X9202D01*
X6002D02*
X6702D01*
X4302D02*
X5002D01*
X2202D02*
X3502D01*
X502D02*
X1202D01*
X-1398D02*
X-698D01*
X-3698D02*
X-2398D01*
X-5198D02*
X-4498D01*
X-6898D02*
X-6198D01*
X-9398D02*
X-8698D01*
X-10898D02*
X-10198D01*
X-16298D02*
X-14698D01*
X-22698D02*
X-21298D01*
X21302Y11050D02*
X22602D01*
X14402D02*
X16002D01*
X9902D02*
X10602D01*
X8402D02*
X9102D01*
X6102D02*
X6802D01*
X4202D02*
X4902D01*
X2302D02*
X3302D01*
X602D02*
X1302D01*
X-1498D02*
X-798D01*
X-3498D02*
X-2498D01*
X-5098D02*
X-4398D01*
X-6998D02*
X-6298D01*
X-9298D02*
X-8598D01*
X-10798D02*
X-10098D01*
X-16198D02*
X-14598D01*
X-22798D02*
X-21498D01*
X21402Y11150D02*
X22702D01*
X15202D02*
X15902D01*
X14202D02*
X15102D01*
X9802D02*
X10502D01*
X8302D02*
X9002D01*
X6202D02*
X6902D01*
X4002D02*
X4802D01*
X2402D02*
X3302D01*
X702D02*
X1402D01*
X-1598D02*
X-898D01*
X-3498D02*
X-2598D01*
X-4998D02*
X-4198D01*
X-7098D02*
X-6398D01*
X-9198D02*
X-8498D01*
X-10698D02*
X-9998D01*
X-15298D02*
X-14398D01*
X-16098D02*
X-15398D01*
X-22898D02*
X-21598D01*
X21602Y11250D02*
X22702D01*
X14102D02*
X15802D01*
X9702D02*
X10402D01*
X8102D02*
X8902D01*
X6302D02*
X7002D01*
X3902D02*
X4702D01*
X2302D02*
X3502D01*
X802D02*
X1502D01*
X-1698D02*
X-998D01*
X-3698D02*
X-2498D01*
X-4898D02*
X-4098D01*
X-7198D02*
X-6498D01*
X-9098D02*
X-8298D01*
X-10598D02*
X-9898D01*
X-15998D02*
X-14298D01*
X-22898D02*
X-21798D01*
X21702Y11350D02*
X22702D01*
X14902D02*
X15702D01*
X14002D02*
X14802D01*
X9602D02*
X10302D01*
X8002D02*
X8802D01*
X6402D02*
X7102D01*
X3902D02*
X4602D01*
X2102D02*
X3602D01*
X902D02*
X1602D01*
X-1798D02*
X-1098D01*
X-3798D02*
X-2298D01*
X-4798D02*
X-4098D01*
X-7298D02*
X-6598D01*
X-8998D02*
X-8198D01*
X-10498D02*
X-9798D01*
X-14998D02*
X-14198D01*
X-15898D02*
X-15098D01*
X-22898D02*
X-21898D01*
X21902Y11450D02*
X22702D01*
X14802D02*
X15602D01*
X13802D02*
X14702D01*
X9502D02*
X10202D01*
X7902D02*
X8702D01*
X6402D02*
X7102D01*
X2902D02*
X4502D01*
X2002D02*
X2802D01*
X1002D02*
X1702D01*
X-1898D02*
X-1198D01*
X-2998D02*
X-2198D01*
X-4698D02*
X-3098D01*
X-7298D02*
X-6598D01*
X-8898D02*
X-8098D01*
X-10398D02*
X-9698D01*
X-14898D02*
X-13998D01*
X-15798D02*
X-14998D01*
X-22898D02*
X-22098D01*
X22102Y11550D02*
X22702D01*
X14702D02*
X15502D01*
X13702D02*
X14602D01*
X9302D02*
X10102D01*
X7802D02*
X8502D01*
X6502D02*
X7202D01*
X3002D02*
X4302D01*
X1102D02*
X2702D01*
X-2898D02*
X-1298D01*
X-4498D02*
X-3198D01*
X-7398D02*
X-6698D01*
X-8698D02*
X-7998D01*
X-10298D02*
X-9498D01*
X-14798D02*
X-13898D01*
X-15698D02*
X-14898D01*
X-22898D02*
X-22298D01*
X14602Y11650D02*
X15402D01*
X13602D02*
X14402D01*
X9202D02*
X10002D01*
X7702D02*
X8402D01*
X6602D02*
X7302D01*
X3202D02*
X4302D01*
X1202D02*
X2602D01*
X-2798D02*
X-1398D01*
X-4498D02*
X-3398D01*
X-7498D02*
X-6798D01*
X-8598D02*
X-7898D01*
X-10198D02*
X-9398D01*
X-14598D02*
X-13798D01*
X-15598D02*
X-14798D01*
X14502Y11750D02*
X15202D01*
X13502D02*
X14302D01*
X9102D02*
X9902D01*
X6702D02*
X8302D01*
X3302D02*
X4202D01*
X1302D02*
X2402D01*
X-2598D02*
X-1498D01*
X-4398D02*
X-3498D01*
X-8498D02*
X-6898D01*
X-10098D02*
X-9298D01*
X-14498D02*
X-13698D01*
X-15398D02*
X-14698D01*
X14402Y11850D02*
X15202D01*
X13402D02*
X14102D01*
X9002D02*
X9702D01*
X6802D02*
X8202D01*
X3302D02*
X4302D01*
X1402D02*
X2302D01*
X-2498D02*
X-1598D01*
X-4498D02*
X-3498D01*
X-8398D02*
X-6998D01*
X-9898D02*
X-9198D01*
X-14298D02*
X-13598D01*
X-15398D02*
X-14598D01*
X14302Y11950D02*
X15002D01*
X13202D02*
X14002D01*
X8902D02*
X9602D01*
X6902D02*
X8102D01*
X3202D02*
X4502D01*
X1402D02*
X2202D01*
X-2398D02*
X-1598D01*
X-4698D02*
X-3398D01*
X-8298D02*
X-7098D01*
X-9798D02*
X-9098D01*
X-14198D02*
X-13398D01*
X-15198D02*
X-14498D01*
X14202Y12050D02*
X15002D01*
X13102D02*
X13902D01*
X8802D02*
X9502D01*
X7002D02*
X7902D01*
X3102D02*
X4602D01*
X1202D02*
X2302D01*
X-2498D02*
X-1398D01*
X-4798D02*
X-3298D01*
X-8098D02*
X-7198D01*
X-9698D02*
X-8998D01*
X-14098D02*
X-13298D01*
X-15198D02*
X-14398D01*
X14102Y12150D02*
X14802D01*
X13002D02*
X13802D01*
X8802D02*
X9402D01*
X6902D02*
X7802D01*
X3802D02*
X4802D01*
X3002D02*
X3702D01*
X1102D02*
X2502D01*
X-2698D02*
X-1298D01*
X-3898D02*
X-3198D01*
X-4998D02*
X-3998D01*
X-7998D02*
X-7098D01*
X-9598D02*
X-8998D01*
X-13998D02*
X-13198D01*
X-14998D02*
X-14298D01*
X14002Y12250D02*
X14702D01*
X12902D02*
X13702D01*
X8702D02*
X9302D01*
X6802D02*
X7802D01*
X4002D02*
X4902D01*
X2902D02*
X3702D01*
X902D02*
X2502D01*
X-2698D02*
X-1098D01*
X-3898D02*
X-3098D01*
X-5098D02*
X-4198D01*
X-7998D02*
X-6998D01*
X-9498D02*
X-8898D01*
X-13898D02*
X-13098D01*
X-14898D02*
X-14198D01*
X13902Y12350D02*
X14702D01*
X12702D02*
X13502D01*
X8502D02*
X9202D01*
X6702D02*
X7902D01*
X4102D02*
X5002D01*
X2802D02*
X3502D01*
X1902D02*
X2602D01*
X802D02*
X1702D01*
X-1898D02*
X-998D01*
X-2798D02*
X-2098D01*
X-3698D02*
X-2998D01*
X-5198D02*
X-4298D01*
X-8098D02*
X-6898D01*
X-9398D02*
X-8698D01*
X-13698D02*
X-12898D01*
X-14898D02*
X-14098D01*
X13802Y12450D02*
X14502D01*
X12602D02*
X13402D01*
X8402D02*
X9102D01*
X6502D02*
X8002D01*
X4202D02*
X5202D01*
X2002D02*
X3402D01*
X702D02*
X1502D01*
X-1698D02*
X-898D01*
X-3598D02*
X-2198D01*
X-5398D02*
X-4398D01*
X-8198D02*
X-6698D01*
X-9298D02*
X-8598D01*
X-13598D02*
X-12798D01*
X-14698D02*
X-13998D01*
X13702Y12550D02*
X14402D01*
X12502D02*
X13302D01*
X8302D02*
X9102D01*
X7402D02*
X8102D01*
X6402D02*
X7202D01*
X4402D02*
X5302D01*
X2102D02*
X3302D01*
X502D02*
X1402D01*
X-1598D02*
X-698D01*
X-3498D02*
X-2298D01*
X-5498D02*
X-4598D01*
X-7398D02*
X-6598D01*
X-8298D02*
X-7598D01*
X-9298D02*
X-8498D01*
X-13498D02*
X-12698D01*
X-14598D02*
X-13898D01*
X13602Y12650D02*
X14402D01*
X12402D02*
X13202D01*
X7502D02*
X8902D01*
X6302D02*
X7102D01*
X4502D02*
X5502D01*
X2202D02*
X3202D01*
X402D02*
X1202D01*
X-1398D02*
X-598D01*
X-3398D02*
X-2398D01*
X-5698D02*
X-4698D01*
X-7298D02*
X-6498D01*
X-9098D02*
X-7698D01*
X-13398D02*
X-12598D01*
X-14598D02*
X-13798D01*
X13502Y12750D02*
X14202D01*
X12102D02*
X13002D01*
X7602D02*
X8802D01*
X6302D02*
X6902D01*
X4702D02*
X5602D01*
X2302D02*
X3102D01*
X302D02*
X1102D01*
X-1298D02*
X-498D01*
X-3298D02*
X-2498D01*
X-5798D02*
X-4898D01*
X-7098D02*
X-6498D01*
X-8998D02*
X-7798D01*
X-13198D02*
X-12298D01*
X-14398D02*
X-13698D01*
X13402Y12850D02*
X14102D01*
X12002D02*
X12902D01*
X7702D02*
X8702D01*
X6102D02*
X6802D01*
X4802D02*
X5702D01*
X2202D02*
X3202D01*
X102D02*
X1002D01*
X-1198D02*
X-298D01*
X-3398D02*
X-2398D01*
X-5898D02*
X-4998D01*
X-6998D02*
X-6298D01*
X-8898D02*
X-7898D01*
X-13098D02*
X-12198D01*
X-14298D02*
X-13598D01*
X13302Y12950D02*
X14002D01*
X11902D02*
X12802D01*
X7802D02*
X8602D01*
X6002D02*
X6702D01*
X4902D02*
X5902D01*
X2202D02*
X3202D01*
X2D02*
X802D01*
X-998D02*
X-198D01*
X-3398D02*
X-2398D01*
X-6098D02*
X-5098D01*
X-6898D02*
X-6198D01*
X-8798D02*
X-7998D01*
X-12998D02*
X-12098D01*
X-14198D02*
X-13498D01*
X13202Y13050D02*
X13902D01*
X11802D02*
X12602D01*
X7802D02*
X8602D01*
X5102D02*
X6502D01*
X2102D02*
X3402D01*
X-898D02*
X702D01*
X-3598D02*
X-2298D01*
X-6698D02*
X-5298D01*
X-8798D02*
X-7998D01*
X-12798D02*
X-11998D01*
X-14098D02*
X-13398D01*
X13102Y13150D02*
X13802D01*
X11702D02*
X12402D01*
X7702D02*
X8602D01*
X5202D02*
X6502D01*
X2702D02*
X3402D01*
X2002D02*
X2602D01*
X-798D02*
X602D01*
X-2798D02*
X-2198D01*
X-3598D02*
X-2898D01*
X-6698D02*
X-5398D01*
X-8798D02*
X-7898D01*
X-12598D02*
X-11898D01*
X-13998D02*
X-13298D01*
X13002Y13250D02*
X13702D01*
X11602D02*
X12302D01*
X7502D02*
X8702D01*
X5402D02*
X6402D01*
X2802D02*
X3602D01*
X1902D02*
X2602D01*
X-598D02*
X402D01*
X-2798D02*
X-2098D01*
X-3798D02*
X-2998D01*
X-6598D02*
X-5598D01*
X-8898D02*
X-7698D01*
X-12498D02*
X-11798D01*
X-13898D02*
X-13198D01*
X12902Y13350D02*
X13602D01*
X11502D02*
X12202D01*
X7402D02*
X8802D01*
X5502D02*
X6402D01*
X2902D02*
X3702D01*
X1802D02*
X2502D01*
X-498D02*
X302D01*
X-2698D02*
X-1998D01*
X-3898D02*
X-3098D01*
X-6598D02*
X-5698D01*
X-8998D02*
X-7598D01*
X-12398D02*
X-11698D01*
X-13798D02*
X-13098D01*
X12802Y13450D02*
X13502D01*
X11302D02*
X12102D01*
X8202D02*
X8902D01*
X7302D02*
X8102D01*
X5402D02*
X6602D01*
X3002D02*
X3802D01*
X1702D02*
X2402D01*
X-598D02*
X402D01*
X-2598D02*
X-1898D01*
X-3998D02*
X-3198D01*
X-6798D02*
X-5598D01*
X-8298D02*
X-7498D01*
X-9098D02*
X-8398D01*
X-12298D02*
X-11498D01*
X-13698D02*
X-12998D01*
X12602Y13550D02*
X13402D01*
X11202D02*
X12002D01*
X8302D02*
X9002D01*
X7202D02*
X7902D01*
X5202D02*
X6702D01*
X3102D02*
X3902D01*
X1602D02*
X2302D01*
X-798D02*
X602D01*
X-2498D02*
X-1798D01*
X-4098D02*
X-3298D01*
X-6898D02*
X-5398D01*
X-8098D02*
X-7398D01*
X-9198D02*
X-8498D01*
X-12198D02*
X-11398D01*
X-13598D02*
X-12798D01*
X12502Y13650D02*
X13302D01*
X11102D02*
X11902D01*
X8402D02*
X9102D01*
X7002D02*
X7802D01*
X5102D02*
X6902D01*
X3202D02*
X4002D01*
X1402D02*
X2202D01*
X-898D02*
X702D01*
X-2398D02*
X-1598D01*
X-4198D02*
X-3398D01*
X-7098D02*
X-5298D01*
X-7998D02*
X-7198D01*
X-9298D02*
X-8598D01*
X-12098D02*
X-11298D01*
X-13498D02*
X-12698D01*
X12402Y13750D02*
X13202D01*
X11002D02*
X11702D01*
X8502D02*
X9202D01*
X6102D02*
X7702D01*
X5002D02*
X5802D01*
X3402D02*
X4102D01*
X1302D02*
X2102D01*
X2D02*
X802D01*
X-998D02*
X-198D01*
X-2298D02*
X-1498D01*
X-4298D02*
X-3598D01*
X-5998D02*
X-5198D01*
X-7898D02*
X-6298D01*
X-9398D02*
X-8698D01*
X-11898D02*
X-11198D01*
X-13398D02*
X-12598D01*
X12302Y13850D02*
X13102D01*
X10902D02*
X11602D01*
X8602D02*
X9302D01*
X6202D02*
X7602D01*
X4802D02*
X5602D01*
X3402D02*
X4202D01*
X1202D02*
X2002D01*
X102D02*
X902D01*
X-1098D02*
X-298D01*
X-2198D02*
X-1398D01*
X-4398D02*
X-3598D01*
X-5798D02*
X-4998D01*
X-7798D02*
X-6398D01*
X-9498D02*
X-8798D01*
X-11798D02*
X-11098D01*
X-13298D02*
X-12498D01*
X12202Y13950D02*
X12902D01*
X10702D02*
X11502D01*
X8602D02*
X9402D01*
X6302D02*
X7402D01*
X4702D02*
X5502D01*
X3602D02*
X4302D01*
X302D02*
X1902D01*
X-2098D02*
X-498D01*
X-4498D02*
X-3798D01*
X-5698D02*
X-4898D01*
X-7598D02*
X-6498D01*
X-9598D02*
X-8798D01*
X-11698D02*
X-10898D01*
X-13098D02*
X-12398D01*
X12102Y14050D02*
X12802D01*
X10502D02*
X11402D01*
X8702D02*
X9502D01*
X6502D02*
X7402D01*
X4502D02*
X5402D01*
X3602D02*
X4402D01*
X402D02*
X1702D01*
X-1898D02*
X-598D01*
X-4598D02*
X-3798D01*
X-5598D02*
X-4698D01*
X-7598D02*
X-6698D01*
X-9698D02*
X-8898D01*
X-11598D02*
X-10698D01*
X-12998D02*
X-12298D01*
X12002Y14150D02*
X12702D01*
X10402D02*
X11302D01*
X8802D02*
X9602D01*
X6502D02*
X7602D01*
X3802D02*
X5202D01*
X502D02*
X1602D01*
X-1798D02*
X-698D01*
X-5398D02*
X-3998D01*
X-7798D02*
X-6698D01*
X-9798D02*
X-8998D01*
X-11498D02*
X-10598D01*
X-12898D02*
X-12198D01*
X11902Y14250D02*
X12602D01*
X10402D02*
X11102D01*
X8902D02*
X9602D01*
X6502D02*
X7702D01*
X3802D02*
X5102D01*
X602D02*
X1502D01*
X-1698D02*
X-798D01*
X-5298D02*
X-3998D01*
X-7898D02*
X-6698D01*
X-9798D02*
X-9098D01*
X-11298D02*
X-10598D01*
X-12798D02*
X-12098D01*
X11802Y14350D02*
X12502D01*
X10202D02*
X11002D01*
X9002D02*
X9702D01*
X6402D02*
X7802D01*
X4002D02*
X4902D01*
X602D02*
X1602D01*
X-1798D02*
X-798D01*
X-5098D02*
X-4198D01*
X-7998D02*
X-6598D01*
X-9898D02*
X-9198D01*
X-11198D02*
X-10398D01*
X-12698D02*
X-11998D01*
X11702Y14450D02*
X12402D01*
X10102D02*
X10802D01*
X9102D02*
X9802D01*
X7102D02*
X8002D01*
X6202D02*
X6902D01*
X4002D02*
X4802D01*
X502D02*
X1702D01*
X-1898D02*
X-698D01*
X-4998D02*
X-4198D01*
X-7098D02*
X-6398D01*
X-8198D02*
X-7298D01*
X-9998D02*
X-9298D01*
X-10998D02*
X-10298D01*
X-12598D02*
X-11898D01*
X11602Y14550D02*
X12302D01*
X10002D02*
X10602D01*
X9202D02*
X9902D01*
X7202D02*
X8102D01*
X6102D02*
X6802D01*
X4002D02*
X4902D01*
X402D02*
X1802D01*
X-1998D02*
X-598D01*
X-5098D02*
X-4198D01*
X-6998D02*
X-6298D01*
X-8298D02*
X-7398D01*
X-10098D02*
X-9398D01*
X-10798D02*
X-10198D01*
X-12498D02*
X-11798D01*
X11502Y14650D02*
X12202D01*
X9302D02*
X10602D01*
X7302D02*
X8302D01*
X5902D02*
X6802D01*
X3902D02*
X5002D01*
X1202D02*
X2002D01*
X302D02*
X1002D01*
X-1198D02*
X-498D01*
X-2198D02*
X-1398D01*
X-5198D02*
X-4098D01*
X-6998D02*
X-6098D01*
X-8498D02*
X-7498D01*
X-10798D02*
X-9498D01*
X-12398D02*
X-11698D01*
X11302Y14750D02*
X12102D01*
X9402D02*
X10502D01*
X7502D02*
X8402D01*
X5902D02*
X6602D01*
X3702D02*
X5102D01*
X1302D02*
X2102D01*
X202D02*
X902D01*
X-1098D02*
X-398D01*
X-2298D02*
X-1498D01*
X-5298D02*
X-3898D01*
X-6798D02*
X-6098D01*
X-8598D02*
X-7698D01*
X-10698D02*
X-9598D01*
X-12298D02*
X-11498D01*
X11202Y14850D02*
X12002D01*
X9502D02*
X10402D01*
X7602D02*
X8602D01*
X5802D02*
X6502D01*
X4502D02*
X5202D01*
X3602D02*
X4402D01*
X1402D02*
X2202D01*
X102D02*
X802D01*
X-998D02*
X-298D01*
X-2398D02*
X-1598D01*
X-4598D02*
X-3798D01*
X-5398D02*
X-4698D01*
X-6698D02*
X-5998D01*
X-8798D02*
X-7798D01*
X-10598D02*
X-9698D01*
X-12198D02*
X-11398D01*
X11102Y14950D02*
X11902D01*
X9402D02*
X10202D01*
X7802D02*
X8702D01*
X5702D02*
X6302D01*
X4502D02*
X5302D01*
X3402D02*
X4302D01*
X1502D02*
X2302D01*
X2D02*
X702D01*
X-898D02*
X-198D01*
X-2498D02*
X-1698D01*
X-4498D02*
X-3598D01*
X-5498D02*
X-4698D01*
X-6498D02*
X-5898D01*
X-8898D02*
X-7998D01*
X-10398D02*
X-9598D01*
X-12098D02*
X-11298D01*
X11002Y15050D02*
X11702D01*
X9302D02*
X10302D01*
X7902D02*
X8802D01*
X5502D02*
X6202D01*
X4702D02*
X5402D01*
X3302D02*
X4102D01*
X1702D02*
X2502D01*
X-798D02*
X602D01*
X-2698D02*
X-1898D01*
X-4298D02*
X-3498D01*
X-5598D02*
X-4898D01*
X-6398D02*
X-5698D01*
X-8998D02*
X-8098D01*
X-10498D02*
X-9498D01*
X-11898D02*
X-11198D01*
X10902Y15150D02*
X11602D01*
X9202D02*
X10402D01*
X8102D02*
X9002D01*
X4802D02*
X6202D01*
X3202D02*
X4002D01*
X1802D02*
X2602D01*
X-698D02*
X502D01*
X-2798D02*
X-1998D01*
X-4198D02*
X-3398D01*
X-6398D02*
X-4998D01*
X-9198D02*
X-8298D01*
X-10598D02*
X-9398D01*
X-11798D02*
X-11098D01*
X10802Y15250D02*
X11502D01*
X8202D02*
X10502D01*
X4902D02*
X6102D01*
X3002D02*
X3802D01*
X1902D02*
X2702D01*
X-598D02*
X402D01*
X-2898D02*
X-2098D01*
X-3998D02*
X-3198D01*
X-6298D02*
X-5098D01*
X-10698D02*
X-8398D01*
X-11698D02*
X-10998D01*
X10702Y15350D02*
X11402D01*
X9902D02*
X10602D01*
X8302D02*
X9702D01*
X5002D02*
X5902D01*
X3002D02*
X3702D01*
X2002D02*
X2902D01*
X-498D02*
X302D01*
X-3098D02*
X-2198D01*
X-3898D02*
X-3198D01*
X-6098D02*
X-5198D01*
X-9898D02*
X-8498D01*
X-10798D02*
X-10098D01*
X-11598D02*
X-10898D01*
X10002Y15450D02*
X11302D01*
X8502D02*
X9602D01*
X5102D02*
X5802D01*
X2202D02*
X3602D01*
X-498D02*
X302D01*
X-3798D02*
X-2398D01*
X-5998D02*
X-5298D01*
X-9798D02*
X-8698D01*
X-11498D02*
X-10198D01*
X10002Y15550D02*
X11202D01*
X8602D02*
X9602D01*
X5002D02*
X5902D01*
X2302D02*
X3402D01*
X-598D02*
X402D01*
X-3598D02*
X-2498D01*
X-6098D02*
X-5198D01*
X-9798D02*
X-8798D01*
X-11398D02*
X-10198D01*
X10102Y15650D02*
X11102D01*
X8502D02*
X9802D01*
X5002D02*
X6002D01*
X2402D02*
X3302D01*
X-798D02*
X602D01*
X-3498D02*
X-2598D01*
X-6198D02*
X-5198D01*
X-9998D02*
X-8698D01*
X-11298D02*
X-10298D01*
X10202Y15750D02*
X11002D01*
X8302D02*
X9902D01*
X4802D02*
X6202D01*
X2502D02*
X3402D01*
X-898D02*
X702D01*
X-3598D02*
X-2698D01*
X-6398D02*
X-4998D01*
X-10098D02*
X-8498D01*
X-11198D02*
X-10398D01*
X10202Y15850D02*
X10902D01*
X9102D02*
X10102D01*
X8302D02*
X9002D01*
X5502D02*
X6202D01*
X4702D02*
X5402D01*
X2302D02*
X3502D01*
X2D02*
X802D01*
X-998D02*
X-198D01*
X-3698D02*
X-2498D01*
X-5598D02*
X-4898D01*
X-6398D02*
X-5698D01*
X-9198D02*
X-8498D01*
X-10298D02*
X-9298D01*
X-11098D02*
X-10398D01*
X9202Y15950D02*
X11002D01*
X8202D02*
X8902D01*
X5602D02*
X6302D01*
X4502D02*
X5202D01*
X2202D02*
X3602D01*
X202D02*
X902D01*
X-1098D02*
X-398D01*
X-3798D02*
X-2398D01*
X-5398D02*
X-4698D01*
X-6498D02*
X-5798D01*
X-9098D02*
X-8398D01*
X-11198D02*
X-9398D01*
X9402Y16050D02*
X11102D01*
X8102D02*
X8702D01*
X5702D02*
X6502D01*
X4502D02*
X5202D01*
X2002D02*
X3702D01*
X302D02*
X1002D01*
X-1198D02*
X-498D01*
X-3898D02*
X-2198D01*
X-5398D02*
X-4698D01*
X-6698D02*
X-5898D01*
X-8898D02*
X-8298D01*
X-11298D02*
X-9598D01*
X14502Y16150D02*
X15102D01*
X9602D02*
X11102D01*
X7902D02*
X8602D01*
X5802D02*
X6502D01*
X4402D02*
X5102D01*
X3102D02*
X3902D01*
X2002D02*
X2702D01*
X402D02*
X1102D01*
X-1298D02*
X-598D01*
X-2898D02*
X-2198D01*
X-4098D02*
X-3298D01*
X-5298D02*
X-4598D01*
X-6698D02*
X-5998D01*
X-8798D02*
X-8098D01*
X-11298D02*
X-9798D01*
X-15298D02*
X-14698D01*
X14302Y16250D02*
X15102D01*
X9702D02*
X11102D01*
X7802D02*
X8602D01*
X5902D02*
X6702D01*
X4202D02*
X4902D01*
X3202D02*
X4002D01*
X1902D02*
X2602D01*
X502D02*
X1202D01*
X-1398D02*
X-698D01*
X-2798D02*
X-2098D01*
X-4198D02*
X-3398D01*
X-5098D02*
X-4398D01*
X-6898D02*
X-6098D01*
X-8798D02*
X-7998D01*
X-11298D02*
X-9898D01*
X-15298D02*
X-14498D01*
X14102Y16350D02*
X15102D01*
X9602D02*
X11102D01*
X7602D02*
X8502D01*
X6002D02*
X6702D01*
X3302D02*
X4802D01*
X1702D02*
X2402D01*
X602D02*
X1302D01*
X-1498D02*
X-798D01*
X-2598D02*
X-1898D01*
X-4998D02*
X-3498D01*
X-6898D02*
X-6198D01*
X-8698D02*
X-7798D01*
X-11298D02*
X-9798D01*
X-15298D02*
X-14298D01*
X13902Y16450D02*
X15102D01*
X9502D02*
X11102D01*
X7502D02*
X8302D01*
X6102D02*
X6902D01*
X3402D02*
X4802D01*
X1602D02*
X2302D01*
X702D02*
X1502D01*
X-1698D02*
X-898D01*
X-2498D02*
X-1798D01*
X-4998D02*
X-3598D01*
X-7098D02*
X-6298D01*
X-8498D02*
X-7698D01*
X-11298D02*
X-9698D01*
X-15298D02*
X-14098D01*
X13802Y16550D02*
X15002D01*
X10302D02*
X11102D01*
X9402D02*
X10102D01*
X7502D02*
X8202D01*
X6202D02*
X7002D01*
X3602D02*
X4602D01*
X802D02*
X2302D01*
X-2498D02*
X-998D01*
X-4798D02*
X-3798D01*
X-7198D02*
X-6398D01*
X-8398D02*
X-7698D01*
X-10298D02*
X-9598D01*
X-11298D02*
X-10498D01*
X-15198D02*
X-13998D01*
X13602Y16650D02*
X15002D01*
X10502D02*
X11102D01*
X9302D02*
X10002D01*
X7302D02*
X8002D01*
X6302D02*
X7102D01*
X3702D02*
X4502D01*
X902D02*
X2102D01*
X-2298D02*
X-1098D01*
X-4698D02*
X-3898D01*
X-7298D02*
X-6498D01*
X-8198D02*
X-7498D01*
X-10198D02*
X-9498D01*
X-11298D02*
X-10698D01*
X-15198D02*
X-13798D01*
X13502Y16750D02*
X14902D01*
X9302D02*
X9902D01*
X6402D02*
X7902D01*
X3602D02*
X4602D01*
X1102D02*
X2002D01*
X-2198D02*
X-1298D01*
X-4798D02*
X-3798D01*
X-8098D02*
X-6598D01*
X-10098D02*
X-9498D01*
X-15098D02*
X-13698D01*
X13402Y16850D02*
X14902D01*
X9102D02*
X9802D01*
X6602D02*
X7702D01*
X3602D02*
X4802D01*
X1002D02*
X1902D01*
X-2098D02*
X-1198D01*
X-4998D02*
X-3798D01*
X-7898D02*
X-6798D01*
X-9998D02*
X-9298D01*
X-15098D02*
X-13598D01*
X13202Y16950D02*
X14802D01*
X9002D02*
X9702D01*
X6602D02*
X7702D01*
X3502D02*
X4902D01*
X1002D02*
X1902D01*
X-2098D02*
X-1198D01*
X-5098D02*
X-3698D01*
X-7898D02*
X-6798D01*
X-9898D02*
X-9198D01*
X-14998D02*
X-13398D01*
X13102Y17050D02*
X14702D01*
X8902D02*
X9502D01*
X6702D02*
X7602D01*
X4202D02*
X5002D01*
X3302D02*
X4002D01*
X902D02*
X2002D01*
X-2198D02*
X-1098D01*
X-4198D02*
X-3498D01*
X-5198D02*
X-4398D01*
X-7798D02*
X-6898D01*
X-9698D02*
X-9098D01*
X-14898D02*
X-13298D01*
X13002Y17150D02*
X14602D01*
X8802D02*
X9502D01*
X6602D02*
X7602D01*
X4302D02*
X5202D01*
X3202D02*
X3902D01*
X702D02*
X2102D01*
X-2298D02*
X-898D01*
X-4098D02*
X-3398D01*
X-5398D02*
X-4498D01*
X-7798D02*
X-6798D01*
X-9698D02*
X-8998D01*
X-14798D02*
X-13198D01*
X13802Y17250D02*
X14502D01*
X12802D02*
X13702D01*
X8602D02*
X9402D01*
X6602D02*
X7702D01*
X4502D02*
X5302D01*
X3202D02*
X3902D01*
X1502D02*
X2202D01*
X602D02*
X1302D01*
X-1498D02*
X-798D01*
X-2398D02*
X-1698D01*
X-4098D02*
X-3398D01*
X-5498D02*
X-4698D01*
X-7898D02*
X-6798D01*
X-9598D02*
X-8798D01*
X-13898D02*
X-12998D01*
X-14698D02*
X-13998D01*
X13702Y17350D02*
X14402D01*
X12702D02*
X13602D01*
X8502D02*
X9302D01*
X6402D02*
X7802D01*
X4602D02*
X5402D01*
X3002D02*
X3702D01*
X1602D02*
X2402D01*
X402D02*
X1302D01*
X-1498D02*
X-598D01*
X-2598D02*
X-1798D01*
X-3898D02*
X-3198D01*
X-5598D02*
X-4798D01*
X-7998D02*
X-6598D01*
X-9498D02*
X-8698D01*
X-13798D02*
X-12898D01*
X-14598D02*
X-13898D01*
X12602Y17450D02*
X14302D01*
X8402D02*
X9202D01*
X7102D02*
X7902D01*
X6302D02*
X7002D01*
X4702D02*
X5602D01*
X2902D02*
X3602D01*
X1702D02*
X2502D01*
X302D02*
X1102D01*
X-1298D02*
X-498D01*
X-2698D02*
X-1898D01*
X-3798D02*
X-3098D01*
X-5798D02*
X-4898D01*
X-7198D02*
X-6498D01*
X-8098D02*
X-7298D01*
X-9398D02*
X-8598D01*
X-14498D02*
X-12798D01*
X13402Y17550D02*
X14202D01*
X12402D02*
X13302D01*
X8402D02*
X9002D01*
X7302D02*
X8002D01*
X6102D02*
X6802D01*
X4902D02*
X5702D01*
X2702D02*
X3402D01*
X1802D02*
X2602D01*
X202D02*
X1002D01*
X-1198D02*
X-398D01*
X-2798D02*
X-1998D01*
X-3598D02*
X-2898D01*
X-5898D02*
X-5098D01*
X-6998D02*
X-6298D01*
X-8198D02*
X-7498D01*
X-9198D02*
X-8598D01*
X-13498D02*
X-12598D01*
X-14398D02*
X-13598D01*
X13302Y17650D02*
X14102D01*
X12302D02*
X13202D01*
X8302D02*
X8902D01*
X7402D02*
X8102D01*
X6002D02*
X6802D01*
X5002D02*
X5802D01*
X2002D02*
X3402D01*
X2D02*
X802D01*
X-998D02*
X-198D01*
X-3598D02*
X-2198D01*
X-5998D02*
X-5198D01*
X-6998D02*
X-6198D01*
X-8298D02*
X-7598D01*
X-9098D02*
X-8498D01*
X-13398D02*
X-12498D01*
X-14298D02*
X-13498D01*
X13202Y17750D02*
X14002D01*
X12202D02*
X13002D01*
X7502D02*
X8802D01*
X5102D02*
X6702D01*
X2102D02*
X3302D01*
X2D02*
X702D01*
X-898D02*
X-198D01*
X-3498D02*
X-2298D01*
X-6898D02*
X-5298D01*
X-8998D02*
X-7698D01*
X-13198D02*
X-12398D01*
X-14198D02*
X-13398D01*
X13202Y17850D02*
X13902D01*
X12002D02*
X12902D01*
X7602D02*
X8702D01*
X5302D02*
X6502D01*
X2202D02*
X3102D01*
X-798D02*
X602D01*
X-3298D02*
X-2398D01*
X-6698D02*
X-5498D01*
X-8898D02*
X-7798D01*
X-13098D02*
X-12198D01*
X-14098D02*
X-13398D01*
X13102Y17950D02*
X13802D01*
X11902D02*
X12802D01*
X7702D02*
X8702D01*
X5402D02*
X6402D01*
X2302D02*
X3002D01*
X-598D02*
X402D01*
X-3198D02*
X-2498D01*
X-6598D02*
X-5598D01*
X-8898D02*
X-7898D01*
X-12998D02*
X-12098D01*
X-13998D02*
X-13298D01*
X13002Y18050D02*
X13702D01*
X11802D02*
X12602D01*
X7702D02*
X8502D01*
X5502D02*
X6302D01*
X2302D02*
X3202D01*
X-498D02*
X302D01*
X-3398D02*
X-2498D01*
X-6498D02*
X-5698D01*
X-8698D02*
X-7898D01*
X-12798D02*
X-11998D01*
X-13898D02*
X-13198D01*
X12902Y18150D02*
X13602D01*
X11602D02*
X12502D01*
X7602D02*
X8702D01*
X5402D02*
X6402D01*
X2102D02*
X3302D01*
X-598D02*
X402D01*
X-3498D02*
X-2298D01*
X-6598D02*
X-5598D01*
X-8898D02*
X-7798D01*
X-12698D02*
X-11798D01*
X-13798D02*
X-13098D01*
X12702Y18250D02*
X13502D01*
X11502D02*
X12302D01*
X7602D02*
X8702D01*
X5402D02*
X6602D01*
X2002D02*
X3402D01*
X-698D02*
X502D01*
X-3598D02*
X-2198D01*
X-6798D02*
X-5598D01*
X-8898D02*
X-7798D01*
X-12498D02*
X-11698D01*
X-13698D02*
X-12898D01*
X12702Y18350D02*
X13402D01*
X11402D02*
X12202D01*
X7502D02*
X8902D01*
X5202D02*
X6702D01*
X2802D02*
X3502D01*
X2002D02*
X2702D01*
X-898D02*
X702D01*
X-2898D02*
X-2198D01*
X-3698D02*
X-2998D01*
X-6898D02*
X-5398D01*
X-9098D02*
X-7698D01*
X-12398D02*
X-11598D01*
X-13598D02*
X-12898D01*
X12602Y18450D02*
X13302D01*
X11202D02*
X12102D01*
X8202D02*
X8902D01*
X7302D02*
X8002D01*
X6002D02*
X6802D01*
X5102D02*
X5802D01*
X2902D02*
X3602D01*
X1802D02*
X2502D01*
X2D02*
X702D01*
X-898D02*
X-198D01*
X-2698D02*
X-1998D01*
X-3798D02*
X-3098D01*
X-5998D02*
X-5298D01*
X-6998D02*
X-6198D01*
X-8198D02*
X-7498D01*
X-9098D02*
X-8398D01*
X-12298D02*
X-11398D01*
X-13498D02*
X-12798D01*
X12402Y18550D02*
X13202D01*
X11102D02*
X12002D01*
X8302D02*
X9102D01*
X7202D02*
X7902D01*
X6102D02*
X7002D01*
X4902D02*
X5602D01*
X3002D02*
X3702D01*
X1702D02*
X2402D01*
X102D02*
X802D01*
X-998D02*
X-298D01*
X-2598D02*
X-1898D01*
X-3898D02*
X-3198D01*
X-5798D02*
X-5098D01*
X-7198D02*
X-6298D01*
X-8098D02*
X-7398D01*
X-9298D02*
X-8498D01*
X-12198D02*
X-11298D01*
X-13398D02*
X-12598D01*
X12402Y18650D02*
X13102D01*
X11002D02*
X11802D01*
X8402D02*
X9102D01*
X6302D02*
X7902D01*
X4702D02*
X5602D01*
X3102D02*
X3702D01*
X1702D02*
X2202D01*
X302D02*
X902D01*
X-1098D02*
X-498D01*
X-2398D02*
X-1898D01*
X-3898D02*
X-3298D01*
X-5798D02*
X-4898D01*
X-8098D02*
X-6498D01*
X-9298D02*
X-8598D01*
X-11998D02*
X-11198D01*
X-13298D02*
X-12598D01*
X12202Y18750D02*
X13002D01*
X10802D02*
X11702D01*
X8502D02*
X9302D01*
X6402D02*
X7702D01*
X4702D02*
X5502D01*
X3202D02*
X3902D01*
X1502D02*
X2202D01*
X402D02*
X1102D01*
X-1298D02*
X-598D01*
X-2398D02*
X-1698D01*
X-4098D02*
X-3398D01*
X-5698D02*
X-4898D01*
X-7898D02*
X-6598D01*
X-9498D02*
X-8698D01*
X-11898D02*
X-10998D01*
X-13198D02*
X-12398D01*
X12202Y18850D02*
X12902D01*
X10702D02*
X11502D01*
X8602D02*
X9302D01*
X6502D02*
X7602D01*
X4602D02*
X5302D01*
X3302D02*
X4002D01*
X1402D02*
X2102D01*
X402D02*
X1202D01*
X-1398D02*
X-598D01*
X-2298D02*
X-1598D01*
X-4198D02*
X-3498D01*
X-5498D02*
X-4798D01*
X-7798D02*
X-6698D01*
X-9498D02*
X-8798D01*
X-11698D02*
X-10898D01*
X-13098D02*
X-12398D01*
X12002Y18950D02*
X12802D01*
X10502D02*
X11502D01*
X8702D02*
X9502D01*
X6702D02*
X7502D01*
X4402D02*
X5102D01*
X3502D02*
X4102D01*
X502D02*
X1902D01*
X-2098D02*
X-698D01*
X-4298D02*
X-3698D01*
X-5298D02*
X-4598D01*
X-7698D02*
X-6898D01*
X-9698D02*
X-8898D01*
X-11698D02*
X-10698D01*
X-12998D02*
X-12198D01*
X12002Y19050D02*
X12702D01*
X10502D02*
X11302D01*
X8802D02*
X9602D01*
X6702D02*
X7602D01*
X4302D02*
X5002D01*
X3502D02*
X4202D01*
X702D02*
X1902D01*
X-2098D02*
X-898D01*
X-4398D02*
X-3698D01*
X-5198D02*
X-4498D01*
X-7798D02*
X-6898D01*
X-9798D02*
X-8998D01*
X-11498D02*
X-10698D01*
X-12898D02*
X-12198D01*
X11802Y19150D02*
X12602D01*
X10402D02*
X11102D01*
X8902D02*
X9602D01*
X6602D02*
X7802D01*
X3602D02*
X5002D01*
X802D02*
X1802D01*
X-1998D02*
X-998D01*
X-5198D02*
X-3798D01*
X-7998D02*
X-6798D01*
X-9798D02*
X-9098D01*
X-11298D02*
X-10598D01*
X-12798D02*
X-11998D01*
X11802Y19250D02*
X12502D01*
X10202D02*
X11002D01*
X9002D02*
X9802D01*
X6402D02*
X7902D01*
X3702D02*
X4802D01*
X902D02*
X1702D01*
X-1898D02*
X-1098D01*
X-4998D02*
X-3898D01*
X-8098D02*
X-6598D01*
X-9998D02*
X-9198D01*
X-11198D02*
X-10398D01*
X-12698D02*
X-11998D01*
X11602Y19350D02*
X12402D01*
X10102D02*
X10902D01*
X9102D02*
X9802D01*
X7202D02*
X8002D01*
X6402D02*
X7102D01*
X3802D02*
X4702D01*
X902D02*
X1802D01*
X-1998D02*
X-1098D01*
X-4898D02*
X-3998D01*
X-7298D02*
X-6598D01*
X-8198D02*
X-7398D01*
X-9998D02*
X-9298D01*
X-11098D02*
X-10298D01*
X-12598D02*
X-11798D01*
X11602Y19450D02*
X12302D01*
X9202D02*
X10802D01*
X7302D02*
X8102D01*
X6302D02*
X7002D01*
X3802D02*
X4702D01*
X702D02*
X1902D01*
X-2098D02*
X-898D01*
X-4898D02*
X-3998D01*
X-7198D02*
X-6498D01*
X-8298D02*
X-7498D01*
X-10998D02*
X-9398D01*
X-12498D02*
X-11798D01*
X11402Y19550D02*
X12202D01*
X9302D02*
X10702D01*
X7502D02*
X8302D01*
X6202D02*
X6802D01*
X3602D02*
X4802D01*
X1402D02*
X2102D01*
X602D02*
X1302D01*
X-1498D02*
X-798D01*
X-2298D02*
X-1598D01*
X-4998D02*
X-3798D01*
X-6998D02*
X-6398D01*
X-8498D02*
X-7698D01*
X-10898D02*
X-9498D01*
X-12398D02*
X-11598D01*
X11302Y19650D02*
X12102D01*
X9402D02*
X10502D01*
X7602D02*
X8502D01*
X6002D02*
X6702D01*
X3602D02*
X4902D01*
X1402D02*
X2202D01*
X402D02*
X1102D01*
X-1298D02*
X-598D01*
X-2398D02*
X-1598D01*
X-5098D02*
X-3798D01*
X-6898D02*
X-6198D01*
X-8698D02*
X-7798D01*
X-10698D02*
X-9598D01*
X-12298D02*
X-11498D01*
X11302Y19750D02*
X12002D01*
X9502D02*
X10402D01*
X7702D02*
X8602D01*
X5902D02*
X6702D01*
X4302D02*
X5002D01*
X3502D02*
X4202D01*
X1502D02*
X2402D01*
X402D02*
X1102D01*
X-1298D02*
X-598D01*
X-2598D02*
X-1698D01*
X-4398D02*
X-3698D01*
X-5198D02*
X-4498D01*
X-6898D02*
X-6098D01*
X-8798D02*
X-7898D01*
X-10598D02*
X-9698D01*
X-12198D02*
X-11498D01*
X11102Y19850D02*
X11902D01*
X9402D02*
X10402D01*
X7802D02*
X8702D01*
X5802D02*
X6602D01*
X4402D02*
X5102D01*
X3302D02*
X4002D01*
X1702D02*
X2502D01*
X302D02*
X1002D01*
X-1198D02*
X-498D01*
X-2698D02*
X-1898D01*
X-4198D02*
X-3498D01*
X-5298D02*
X-4598D01*
X-6798D02*
X-5998D01*
X-8898D02*
X-7998D01*
X-10598D02*
X-9598D01*
X-12098D02*
X-11298D01*
X11002Y19950D02*
X11702D01*
X9302D02*
X10502D01*
X8002D02*
X8802D01*
X5802D02*
X6402D01*
X4502D02*
X5202D01*
X3102D02*
X3902D01*
X1802D02*
X2702D01*
X102D02*
X802D01*
X-998D02*
X-298D01*
X-2898D02*
X-1998D01*
X-4098D02*
X-3298D01*
X-5398D02*
X-4698D01*
X-6598D02*
X-5998D01*
X-8998D02*
X-8198D01*
X-10698D02*
X-9498D01*
X-11898D02*
X-11198D01*
X10902Y20050D02*
X11702D01*
X9202D02*
X10502D01*
X8202D02*
X9002D01*
X5602D02*
X6302D01*
X4602D02*
X5302D01*
X3102D02*
X3902D01*
X2002D02*
X2702D01*
X102D02*
X702D01*
X-898D02*
X-298D01*
X-2898D02*
X-2198D01*
X-4098D02*
X-3298D01*
X-5498D02*
X-4798D01*
X-6498D02*
X-5798D01*
X-9198D02*
X-8398D01*
X-10698D02*
X-9398D01*
X-11898D02*
X-11098D01*
X10802Y20150D02*
X11602D01*
X9902D02*
X10702D01*
X8202D02*
X9802D01*
X4702D02*
X6202D01*
X3002D02*
X3702D01*
X2102D02*
X2802D01*
X2D02*
X702D01*
X-898D02*
X-198D01*
X-2998D02*
X-2298D01*
X-3898D02*
X-3198D01*
X-6398D02*
X-4898D01*
X-9998D02*
X-8398D01*
X-10898D02*
X-10098D01*
X-11798D02*
X-10998D01*
X10002Y20250D02*
X11402D01*
X8402D02*
X9702D01*
X4802D02*
X6002D01*
X2302D02*
X3502D01*
X-698D02*
X502D01*
X-3698D02*
X-2498D01*
X-6198D02*
X-4998D01*
X-9898D02*
X-8598D01*
X-11598D02*
X-10198D01*
X10102Y20350D02*
X11402D01*
X8502D02*
X9602D01*
X4902D02*
X6002D01*
X2402D02*
X3402D01*
X-598D02*
X402D01*
X-3598D02*
X-2598D01*
X-6198D02*
X-5098D01*
X-9798D02*
X-8698D01*
X-11598D02*
X-10298D01*
X10202Y20450D02*
X11202D01*
X8602D02*
X9502D01*
X5102D02*
X5902D01*
X2402D02*
X3402D01*
X-598D02*
X402D01*
X-3598D02*
X-2598D01*
X-6098D02*
X-5298D01*
X-9698D02*
X-8798D01*
X-11398D02*
X-10398D01*
X10302Y20550D02*
X11102D01*
X8502D02*
X9602D01*
X5102D02*
X5802D01*
X2502D02*
X3402D01*
X-498D02*
X302D01*
X-3598D02*
X-2698D01*
X-5998D02*
X-5298D01*
X-9798D02*
X-8698D01*
X-11298D02*
X-10498D01*
X10302Y20650D02*
X11202D01*
X8402D02*
X9802D01*
X4902D02*
X5902D01*
X2302D02*
X3502D01*
X-698D02*
X502D01*
X-3698D02*
X-2498D01*
X-6098D02*
X-5098D01*
X-9998D02*
X-8598D01*
X-11398D02*
X-10498D01*
X10202Y20750D02*
X11302D01*
X8302D02*
X9902D01*
X4802D02*
X6002D01*
X2202D02*
X3602D01*
X-698D02*
X502D01*
X-3798D02*
X-2398D01*
X-6198D02*
X-4998D01*
X-10098D02*
X-8498D01*
X-11498D02*
X-10398D01*
X9202Y20850D02*
X11402D01*
X8202D02*
X9002D01*
X4702D02*
X6102D01*
X3002D02*
X3802D01*
X2002D02*
X2702D01*
X-798D02*
X602D01*
X-2898D02*
X-2198D01*
X-3998D02*
X-3198D01*
X-6298D02*
X-4898D01*
X-9198D02*
X-8398D01*
X-11598D02*
X-9398D01*
X9302Y20950D02*
X11502D01*
X8002D02*
X8802D01*
X5502D02*
X6302D01*
X4702D02*
X5302D01*
X3102D02*
X3802D01*
X2002D02*
X2702D01*
X102D02*
X802D01*
X-998D02*
X-298D01*
X-2898D02*
X-2198D01*
X-3998D02*
X-3298D01*
X-5498D02*
X-4898D01*
X-6498D02*
X-5698D01*
X-8998D02*
X-8198D01*
X-11698D02*
X-9498D01*
X10802Y21050D02*
X11602D01*
X9502D02*
X10602D01*
X7902D02*
X8702D01*
X5602D02*
X6402D01*
X4502D02*
X5202D01*
X3202D02*
X3902D01*
X1802D02*
X2602D01*
X202D02*
X802D01*
X-998D02*
X-398D01*
X-2798D02*
X-1998D01*
X-4098D02*
X-3398D01*
X-5398D02*
X-4698D01*
X-6598D02*
X-5798D01*
X-8898D02*
X-8098D01*
X-10798D02*
X-9698D01*
X-11798D02*
X-10998D01*
X10902Y21150D02*
X11702D01*
X9602D02*
X10502D01*
X7702D02*
X8602D01*
X5702D02*
X6502D01*
X4402D02*
X5102D01*
X3402D02*
X4102D01*
X1702D02*
X2402D01*
X202D02*
X1002D01*
X-1198D02*
X-398D01*
X-2598D02*
X-1898D01*
X-4298D02*
X-3598D01*
X-5298D02*
X-4598D01*
X-6698D02*
X-5898D01*
X-8798D02*
X-7898D01*
X-10698D02*
X-9798D01*
X-11898D02*
X-11098D01*
X11002Y21250D02*
X11702D01*
X9702D02*
X10602D01*
X7602D02*
X8502D01*
X5902D02*
X6602D01*
X4302D02*
X4902D01*
X3502D02*
X4202D01*
X1502D02*
X2202D01*
X402D02*
X1102D01*
X-1298D02*
X-598D01*
X-2398D02*
X-1698D01*
X-4398D02*
X-3698D01*
X-5098D02*
X-4498D01*
X-6798D02*
X-6098D01*
X-8698D02*
X-7798D01*
X-10798D02*
X-9898D01*
X-11898D02*
X-11198D01*
X11102Y21350D02*
X11902D01*
X9602D02*
X10702D01*
X7502D02*
X8302D01*
X6002D02*
X6702D01*
X3502D02*
X4902D01*
X1502D02*
X2202D01*
X602D02*
X1302D01*
X-1498D02*
X-798D01*
X-2398D02*
X-1698D01*
X-5098D02*
X-3698D01*
X-6898D02*
X-6198D01*
X-8498D02*
X-7698D01*
X-10898D02*
X-9798D01*
X-12098D02*
X-11298D01*
X11202Y21450D02*
X11902D01*
X9502D02*
X10802D01*
X7402D02*
X8102D01*
X6102D02*
X6802D01*
X3702D02*
X4802D01*
X602D02*
X2102D01*
X-2298D02*
X-798D01*
X-4998D02*
X-3898D01*
X-6998D02*
X-6298D01*
X-8298D02*
X-7598D01*
X-10998D02*
X-9698D01*
X-12098D02*
X-11398D01*
X11302Y21550D02*
X12102D01*
X9302D02*
X11002D01*
X7202D02*
X8002D01*
X6202D02*
X6902D01*
X3802D02*
X4702D01*
X702D02*
X1902D01*
X-2098D02*
X-898D01*
X-4898D02*
X-3998D01*
X-7098D02*
X-6398D01*
X-8198D02*
X-7398D01*
X-11198D02*
X-9498D01*
X-12298D02*
X-11498D01*
X11402Y21650D02*
X12102D01*
X10202D02*
X11102D01*
X9202D02*
X10002D01*
X7102D02*
X7902D01*
X6302D02*
X7002D01*
X3902D02*
X4802D01*
X902D02*
X1702D01*
X-1898D02*
X-1098D01*
X-4998D02*
X-4098D01*
X-7198D02*
X-6498D01*
X-8098D02*
X-7298D01*
X-10198D02*
X-9398D01*
X-11298D02*
X-10398D01*
X-12298D02*
X-11598D01*
X11502Y21750D02*
X12202D01*
X10402D02*
X11302D01*
X9102D02*
X9902D01*
X6402D02*
X7802D01*
X3702D02*
X4902D01*
X1002D02*
X1702D01*
X-1898D02*
X-1198D01*
X-5098D02*
X-3898D01*
X-7998D02*
X-6598D01*
X-10098D02*
X-9298D01*
X-11498D02*
X-10598D01*
X-12398D02*
X-11698D01*
X11602Y21850D02*
X12302D01*
X10502D02*
X11402D01*
X9102D02*
X9802D01*
X6502D02*
X7702D01*
X3602D02*
X5002D01*
X902D02*
X1702D01*
X-1898D02*
X-1098D01*
X-5198D02*
X-3798D01*
X-7898D02*
X-6698D01*
X-9998D02*
X-9298D01*
X-11598D02*
X-10698D01*
X-12498D02*
X-11798D01*
X11702Y21950D02*
X12402D01*
X10702D02*
X11602D01*
X9002D02*
X9602D01*
X6602D02*
X7502D01*
X4402D02*
X5202D01*
X3602D02*
X4302D01*
X702D02*
X1902D01*
X-2098D02*
X-898D01*
X-4498D02*
X-3798D01*
X-5398D02*
X-4598D01*
X-7698D02*
X-6798D01*
X-9798D02*
X-9198D01*
X-11798D02*
X-10898D01*
X-12598D02*
X-11898D01*
X11802Y22050D02*
X12502D01*
X10802D02*
X11702D01*
X8802D02*
X9502D01*
X6602D02*
X7502D01*
X4502D02*
X5302D01*
X3402D02*
X4102D01*
X502D02*
X1902D01*
X-2098D02*
X-698D01*
X-4298D02*
X-3598D01*
X-5498D02*
X-4698D01*
X-7698D02*
X-6798D01*
X-9698D02*
X-8998D01*
X-11898D02*
X-10998D01*
X-12698D02*
X-11998D01*
X10902Y22150D02*
X12602D01*
X8702D02*
X9502D01*
X6502D02*
X7602D01*
X4602D02*
X5302D01*
X3302D02*
X4002D01*
X502D02*
X2102D01*
X-2298D02*
X-698D01*
X-4198D02*
X-3498D01*
X-5498D02*
X-4798D01*
X-7798D02*
X-6698D01*
X-9698D02*
X-8898D01*
X-12798D02*
X-11098D01*
X11102Y22250D02*
X12702D01*
X8602D02*
X9402D01*
X6402D02*
X7702D01*
X4802D02*
X5402D01*
X3202D02*
X3802D01*
X1502D02*
X2202D01*
X402D02*
X1102D01*
X-1298D02*
X-598D01*
X-2398D02*
X-1698D01*
X-3998D02*
X-3398D01*
X-5598D02*
X-4998D01*
X-7898D02*
X-6598D01*
X-9598D02*
X-8798D01*
X-12898D02*
X-11298D01*
X11202Y22350D02*
X12802D01*
X8502D02*
X9302D01*
X7102D02*
X7802D01*
X6302D02*
X7002D01*
X4902D02*
X5602D01*
X3002D02*
X3802D01*
X1702D02*
X2402D01*
X202D02*
X902D01*
X-1098D02*
X-398D01*
X-2598D02*
X-1898D01*
X-3998D02*
X-3198D01*
X-5798D02*
X-5098D01*
X-7198D02*
X-6498D01*
X-7998D02*
X-7298D01*
X-9498D02*
X-8698D01*
X-12998D02*
X-11398D01*
X11402Y22450D02*
X12802D01*
X8402D02*
X9102D01*
X7202D02*
X7902D01*
X6102D02*
X6902D01*
X5002D02*
X5702D01*
X2902D02*
X3702D01*
X1702D02*
X2402D01*
X2D02*
X802D01*
X-998D02*
X-198D01*
X-2598D02*
X-1898D01*
X-3898D02*
X-3098D01*
X-5898D02*
X-5198D01*
X-7098D02*
X-6298D01*
X-8098D02*
X-7398D01*
X-9298D02*
X-8598D01*
X-12998D02*
X-11598D01*
X11502Y22550D02*
X12902D01*
X8202D02*
X9002D01*
X7302D02*
X8002D01*
X5902D02*
X6802D01*
X5002D02*
X5802D01*
X2902D02*
X3602D01*
X1802D02*
X2502D01*
X2D02*
X802D01*
X-998D02*
X-198D01*
X-2698D02*
X-1998D01*
X-3798D02*
X-3098D01*
X-5998D02*
X-5198D01*
X-6998D02*
X-6098D01*
X-8198D02*
X-7498D01*
X-9198D02*
X-8398D01*
X-13098D02*
X-11698D01*
X11702Y22650D02*
X13202D01*
X8202D02*
X8902D01*
X7402D02*
X8102D01*
X5202D02*
X6702D01*
X2802D02*
X3402D01*
X2002D02*
X2702D01*
X-798D02*
X602D01*
X-2898D02*
X-2198D01*
X-3598D02*
X-2998D01*
X-6898D02*
X-5398D01*
X-8298D02*
X-7598D01*
X-9098D02*
X-8398D01*
X-13398D02*
X-11898D01*
X11802Y22750D02*
X13202D01*
X7502D02*
X8802D01*
X5302D02*
X6602D01*
X2102D02*
X3302D01*
X-598D02*
X402D01*
X-3498D02*
X-2298D01*
X-6798D02*
X-5498D01*
X-8998D02*
X-7698D01*
X-13398D02*
X-11998D01*
X12002Y22850D02*
X13202D01*
X7602D02*
X8702D01*
X5402D02*
X6302D01*
X2102D02*
X3202D01*
X-498D02*
X302D01*
X-3398D02*
X-2298D01*
X-6498D02*
X-5598D01*
X-8898D02*
X-7798D01*
X-13398D02*
X-12198D01*
X12002Y22950D02*
X13202D01*
X7702D02*
X8602D01*
X5502D02*
X6402D01*
X2302D02*
X3202D01*
X-498D02*
X302D01*
X-3398D02*
X-2498D01*
X-6598D02*
X-5698D01*
X-8798D02*
X-7898D01*
X-13398D02*
X-12198D01*
X11802Y23050D02*
X13202D01*
X7802D02*
X8502D01*
X5402D02*
X6502D01*
X2402D02*
X3002D01*
X-598D02*
X402D01*
X-3198D02*
X-2598D01*
X-6698D02*
X-5598D01*
X-8698D02*
X-7998D01*
X-13398D02*
X-11998D01*
X11702Y23150D02*
X13202D01*
X7602D02*
X8602D01*
X5202D02*
X6602D01*
X2202D02*
X3202D01*
X-798D02*
X602D01*
X-3398D02*
X-2398D01*
X-6798D02*
X-5398D01*
X-8798D02*
X-7798D01*
X-13398D02*
X-11898D01*
X11502Y23250D02*
X13102D01*
X7502D02*
X8802D01*
X6002D02*
X6702D01*
X5102D02*
X5902D01*
X2102D02*
X3302D01*
X2D02*
X802D01*
X-998D02*
X-198D01*
X-3498D02*
X-2298D01*
X-6098D02*
X-5298D01*
X-6898D02*
X-6198D01*
X-8998D02*
X-7698D01*
X-13298D02*
X-11698D01*
X11402Y23350D02*
X13002D01*
X7402D02*
X8902D01*
X6102D02*
X6902D01*
X5002D02*
X5802D01*
X2802D02*
X3502D01*
X1902D02*
X2602D01*
X2D02*
X802D01*
X-998D02*
X-198D01*
X-2798D02*
X-2098D01*
X-3698D02*
X-2998D01*
X-5998D02*
X-5198D01*
X-7098D02*
X-6298D01*
X-9098D02*
X-7598D01*
X-13198D02*
X-11598D01*
X12302Y23450D02*
X13002D01*
X11202D02*
X12202D01*
X8202D02*
X9002D01*
X7302D02*
X8102D01*
X6202D02*
X7002D01*
X4902D02*
X5602D01*
X2802D02*
X3502D01*
X1802D02*
X2602D01*
X202D02*
X902D01*
X-1098D02*
X-398D01*
X-2798D02*
X-1998D01*
X-3698D02*
X-2998D01*
X-5798D02*
X-5098D01*
X-7198D02*
X-6398D01*
X-8298D02*
X-7498D01*
X-9198D02*
X-8398D01*
X-12398D02*
X-11398D01*
X-13198D02*
X-12498D01*
X12202Y23550D02*
X12902D01*
X11102D02*
X12002D01*
X8402D02*
X9102D01*
X7202D02*
X7902D01*
X6302D02*
X7102D01*
X4802D02*
X5502D01*
X2902D02*
X3602D01*
X1802D02*
X2502D01*
X402D02*
X1102D01*
X-1298D02*
X-598D01*
X-2698D02*
X-1998D01*
X-3798D02*
X-3098D01*
X-5698D02*
X-4998D01*
X-7298D02*
X-6498D01*
X-8098D02*
X-7398D01*
X-9298D02*
X-8598D01*
X-12198D02*
X-11298D01*
X-13098D02*
X-12398D01*
X12102Y23650D02*
X12802D01*
X10902D02*
X11902D01*
X8502D02*
X9202D01*
X6502D02*
X7802D01*
X4602D02*
X5402D01*
X3102D02*
X3802D01*
X1702D02*
X2302D01*
X502D02*
X1302D01*
X-1498D02*
X-698D01*
X-2498D02*
X-1898D01*
X-3998D02*
X-3298D01*
X-5598D02*
X-4798D01*
X-7998D02*
X-6698D01*
X-9398D02*
X-8698D01*
X-12098D02*
X-11098D01*
X-12998D02*
X-12298D01*
X12002Y23750D02*
X12702D01*
X10802D02*
X11702D01*
X8602D02*
X9302D01*
X6602D02*
X7702D01*
X4502D02*
X5302D01*
X3202D02*
X3802D01*
X1502D02*
X2202D01*
X502D02*
X1302D01*
X-1498D02*
X-698D01*
X-2398D02*
X-1698D01*
X-3998D02*
X-3398D01*
X-5498D02*
X-4698D01*
X-7898D02*
X-6798D01*
X-9498D02*
X-8798D01*
X-11898D02*
X-10998D01*
X-12898D02*
X-12198D01*
X11902Y23850D02*
X12602D01*
X10702D02*
X11602D01*
X8702D02*
X9402D01*
X6702D02*
X7602D01*
X4302D02*
X5202D01*
X3202D02*
X3902D01*
X702D02*
X2102D01*
X-2298D02*
X-898D01*
X-4098D02*
X-3398D01*
X-5398D02*
X-4498D01*
X-7798D02*
X-6898D01*
X-9598D02*
X-8898D01*
X-11798D02*
X-10898D01*
X-12798D02*
X-12098D01*
X11802Y23950D02*
X12502D01*
X10502D02*
X11402D01*
X8802D02*
X9602D01*
X6802D02*
X7602D01*
X4202D02*
X5002D01*
X3402D02*
X4102D01*
X902D02*
X2102D01*
X-2298D02*
X-1098D01*
X-4298D02*
X-3598D01*
X-5198D02*
X-4398D01*
X-7798D02*
X-6998D01*
X-9798D02*
X-8998D01*
X-11598D02*
X-10698D01*
X-12698D02*
X-11998D01*
X11702Y24050D02*
X12402D01*
X10302D02*
X11302D01*
X8902D02*
X9702D01*
X6702D02*
X7702D01*
X3502D02*
X4902D01*
X1002D02*
X1902D01*
X-2098D02*
X-1198D01*
X-5098D02*
X-3698D01*
X-7898D02*
X-6898D01*
X-9898D02*
X-9098D01*
X-11498D02*
X-10498D01*
X-12598D02*
X-11898D01*
X11602Y24150D02*
X12302D01*
X10202D02*
X11102D01*
X9002D02*
X9802D01*
X6602D02*
X7902D01*
X3502D02*
X4802D01*
X1002D02*
X1802D01*
X-1998D02*
X-1198D01*
X-4998D02*
X-3698D01*
X-8098D02*
X-6798D01*
X-9998D02*
X-9198D01*
X-11298D02*
X-10398D01*
X-12498D02*
X-11798D01*
X11502Y24250D02*
X12302D01*
X10102D02*
X11002D01*
X9102D02*
X9902D01*
X6502D02*
X8002D01*
X3702D02*
X4602D01*
X1002D02*
X1902D01*
X-2098D02*
X-1198D01*
X-4798D02*
X-3898D01*
X-8198D02*
X-6698D01*
X-10098D02*
X-9298D01*
X-11198D02*
X-10298D01*
X-12498D02*
X-11698D01*
X11402Y24350D02*
X12202D01*
X9302D02*
X10902D01*
X7302D02*
X8102D01*
X6402D02*
X7102D01*
X3702D02*
X4602D01*
X902D02*
X2102D01*
X-2298D02*
X-1098D01*
X-4798D02*
X-3898D01*
X-7298D02*
X-6598D01*
X-8298D02*
X-7498D01*
X-11098D02*
X-9498D01*
X-12398D02*
X-11598D01*
X11402Y24450D02*
X12102D01*
X9402D02*
X10702D01*
X7502D02*
X8202D01*
X6302D02*
X7002D01*
X3502D02*
X4602D01*
X702D02*
X2302D01*
X-2498D02*
X-898D01*
X-4798D02*
X-3698D01*
X-7198D02*
X-6498D01*
X-8398D02*
X-7698D01*
X-10898D02*
X-9598D01*
X-12298D02*
X-11598D01*
X11202Y24550D02*
X12002D01*
X9502D02*
X10602D01*
X7602D02*
X8302D01*
X6102D02*
X6902D01*
X3402D02*
X4702D01*
X1502D02*
X2302D01*
X602D02*
X1402D01*
X-1598D02*
X-798D01*
X-2498D02*
X-1698D01*
X-4898D02*
X-3598D01*
X-7098D02*
X-6298D01*
X-8498D02*
X-7798D01*
X-10798D02*
X-9698D01*
X-12198D02*
X-11398D01*
X11202Y24650D02*
X11902D01*
X9502D02*
X10502D01*
X7702D02*
X8602D01*
X6002D02*
X6802D01*
X4202D02*
X4902D01*
X3302D02*
X4102D01*
X1702D02*
X2402D01*
X602D02*
X1302D01*
X-1498D02*
X-798D01*
X-2598D02*
X-1898D01*
X-4298D02*
X-3498D01*
X-5098D02*
X-4398D01*
X-6998D02*
X-6198D01*
X-8798D02*
X-7898D01*
X-10698D02*
X-9698D01*
X-12098D02*
X-11398D01*
X11102Y24750D02*
X11802D01*
X9402D02*
X10302D01*
X7802D02*
X8702D01*
X5902D02*
X6702D01*
X4302D02*
X4902D01*
X3202D02*
X3902D01*
X1902D02*
X2602D01*
X502D02*
X1102D01*
X-1298D02*
X-698D01*
X-2798D02*
X-2098D01*
X-4098D02*
X-3398D01*
X-5098D02*
X-4498D01*
X-6898D02*
X-6098D01*
X-8898D02*
X-7998D01*
X-10498D02*
X-9598D01*
X-11998D02*
X-11298D01*
X11002Y24850D02*
X11702D01*
X9302D02*
X10502D01*
X7902D02*
X8802D01*
X5802D02*
X6602D01*
X4302D02*
X5002D01*
X3102D02*
X3802D01*
X2002D02*
X2802D01*
X302D02*
X1002D01*
X-1198D02*
X-498D01*
X-2998D02*
X-2198D01*
X-3998D02*
X-3298D01*
X-5198D02*
X-4498D01*
X-6798D02*
X-5998D01*
X-8998D02*
X-8098D01*
X-10698D02*
X-9498D01*
X-11898D02*
X-11198D01*
X10902Y24950D02*
X11602D01*
X9102D02*
X10602D01*
X8102D02*
X8902D01*
X5702D02*
X6402D01*
X4502D02*
X5202D01*
X2902D02*
X3702D01*
X2002D02*
X2802D01*
X202D02*
X902D01*
X-1098D02*
X-398D01*
X-2998D02*
X-2198D01*
X-3898D02*
X-3098D01*
X-5398D02*
X-4698D01*
X-6598D02*
X-5898D01*
X-9098D02*
X-8298D01*
X-10798D02*
X-9298D01*
X-11798D02*
X-11098D01*
X10802Y25050D02*
X11502D01*
X8302D02*
X10702D01*
X5602D02*
X6302D01*
X4602D02*
X5302D01*
X2202D02*
X3602D01*
X102D02*
X902D01*
X-1098D02*
X-298D01*
X-3798D02*
X-2398D01*
X-5498D02*
X-4798D01*
X-6498D02*
X-5798D01*
X-10898D02*
X-8498D01*
X-11698D02*
X-10998D01*
X10002Y25150D02*
X11402D01*
X8402D02*
X9702D01*
X5602D02*
X6202D01*
X4602D02*
X5302D01*
X2402D02*
X3502D01*
X102D02*
X702D01*
X-898D02*
X-298D01*
X-3698D02*
X-2598D01*
X-5498D02*
X-4798D01*
X-6398D02*
X-5798D01*
X-9898D02*
X-8598D01*
X-11598D02*
X-10198D01*
X10202Y25250D02*
X11302D01*
X8502D02*
X9602D01*
X4802D02*
X6102D01*
X2502D02*
X3302D01*
X-798D02*
X602D01*
X-3498D02*
X-2698D01*
X-6298D02*
X-4998D01*
X-9798D02*
X-8698D01*
X-11498D02*
X-10398D01*
X10302Y25350D02*
X11202D01*
X8602D02*
X9502D01*
X4902D02*
X6002D01*
X2402D02*
X3202D01*
X-698D02*
X502D01*
X-3398D02*
X-2598D01*
X-6198D02*
X-5098D01*
X-9698D02*
X-8798D01*
X-11398D02*
X-10498D01*
X10402Y25450D02*
X11102D01*
X8502D02*
X9602D01*
X5102D02*
X6002D01*
X2302D02*
X3402D01*
X-498D02*
X302D01*
X-3598D02*
X-2498D01*
X-6198D02*
X-5298D01*
X-9798D02*
X-8698D01*
X-11298D02*
X-10598D01*
X10302Y25550D02*
X11202D01*
X8302D02*
X9702D01*
X5102D02*
X5902D01*
X2202D02*
X3602D01*
X-498D02*
X302D01*
X-3798D02*
X-2398D01*
X-6098D02*
X-5298D01*
X-9898D02*
X-8498D01*
X-11398D02*
X-10498D01*
X10202Y25650D02*
X11302D01*
X8202D02*
X9802D01*
X5002D02*
X5902D01*
X3002D02*
X3702D01*
X2102D02*
X2802D01*
X-598D02*
X402D01*
X-2998D02*
X-2298D01*
X-3898D02*
X-3198D01*
X-6098D02*
X-5198D01*
X-9998D02*
X-8398D01*
X-11498D02*
X-10398D01*
X10102Y25750D02*
X11402D01*
X9102D02*
X9902D01*
X8002D02*
X8902D01*
X4902D02*
X6102D01*
X3002D02*
X3702D01*
X1902D02*
X2702D01*
X-598D02*
X402D01*
X-2898D02*
X-2098D01*
X-3898D02*
X-3198D01*
X-6298D02*
X-5098D01*
X-9098D02*
X-8198D01*
X-10098D02*
X-9298D01*
X-11598D02*
X-10298D01*
X10802Y25850D02*
X11602D01*
X9302D02*
X10702D01*
X7902D02*
X8802D01*
X4802D02*
X6102D01*
X3202D02*
X3902D01*
X1802D02*
X2602D01*
X-698D02*
X502D01*
X-2798D02*
X-1998D01*
X-4098D02*
X-3398D01*
X-6298D02*
X-4998D01*
X-8998D02*
X-8098D01*
X-10898D02*
X-9498D01*
X-11798D02*
X-10998D01*
X10902Y25950D02*
X11702D01*
X9402D02*
X10602D01*
X7802D02*
X8602D01*
X5502D02*
X6202D01*
X4602D02*
X5402D01*
X3302D02*
X4102D01*
X1702D02*
X2502D01*
X2D02*
X702D01*
X-898D02*
X-198D01*
X-2698D02*
X-1898D01*
X-4298D02*
X-3498D01*
X-5598D02*
X-4798D01*
X-6398D02*
X-5698D01*
X-8798D02*
X-7998D01*
X-10798D02*
X-9598D01*
X-11898D02*
X-11098D01*
X11002Y26050D02*
X11702D01*
X9502D02*
X10602D01*
X7702D02*
X8502D01*
X5702D02*
X6402D01*
X4502D02*
X5302D01*
X3502D02*
X4202D01*
X1602D02*
X2302D01*
X102D02*
X802D01*
X-998D02*
X-298D01*
X-2498D02*
X-1798D01*
X-4398D02*
X-3698D01*
X-5498D02*
X-4698D01*
X-6598D02*
X-5898D01*
X-8698D02*
X-7898D01*
X-10798D02*
X-9698D01*
X-11898D02*
X-11198D01*
X11102Y26150D02*
X11902D01*
X9602D02*
X10502D01*
X7502D02*
X8402D01*
X5802D02*
X6502D01*
X4402D02*
X5202D01*
X3502D02*
X4202D01*
X1502D02*
X2202D01*
X102D02*
X902D01*
X-1098D02*
X-298D01*
X-2398D02*
X-1698D01*
X-4398D02*
X-3698D01*
X-5398D02*
X-4598D01*
X-6698D02*
X-5998D01*
X-8598D02*
X-7698D01*
X-10698D02*
X-9798D01*
X-12098D02*
X-11298D01*
X11302Y26250D02*
X12002D01*
X9602D02*
X10502D01*
X7402D02*
X8202D01*
X5802D02*
X6502D01*
X3702D02*
X5102D01*
X1302D02*
X2102D01*
X302D02*
X1002D01*
X-1198D02*
X-498D01*
X-2298D02*
X-1498D01*
X-5298D02*
X-3898D01*
X-6698D02*
X-5998D01*
X-8398D02*
X-7598D01*
X-10698D02*
X-9798D01*
X-12198D02*
X-11498D01*
X11302Y26350D02*
X12002D01*
X9502D02*
X10702D01*
X7202D02*
X8102D01*
X6002D02*
X6702D01*
X3802D02*
X4902D01*
X402D02*
X2002D01*
X-2198D02*
X-598D01*
X-5098D02*
X-3998D01*
X-6898D02*
X-6198D01*
X-8298D02*
X-7398D01*
X-10898D02*
X-9698D01*
X-12198D02*
X-11498D01*
X11402Y26450D02*
X12202D01*
X9402D02*
X10802D01*
X7102D02*
X8002D01*
X6102D02*
X6802D01*
X4002D02*
X4802D01*
X502D02*
X1902D01*
X-2098D02*
X-698D01*
X-4998D02*
X-4198D01*
X-6998D02*
X-6298D01*
X-8198D02*
X-7298D01*
X-10998D02*
X-9598D01*
X-12398D02*
X-11598D01*
X11602Y26550D02*
X12302D01*
X9302D02*
X10902D01*
X6302D02*
X7802D01*
X4002D02*
X4902D01*
X602D02*
X1702D01*
X-1898D02*
X-798D01*
X-5098D02*
X-4198D01*
X-7998D02*
X-6498D01*
X-11098D02*
X-9498D01*
X-12498D02*
X-11798D01*
X11602Y26650D02*
X12402D01*
X10202D02*
X11102D01*
X9202D02*
X10002D01*
X6302D02*
X7702D01*
X3902D02*
X4902D01*
X802D02*
X1602D01*
X-1798D02*
X-998D01*
X-5098D02*
X-4098D01*
X-7898D02*
X-6498D01*
X-10198D02*
X-9398D01*
X-11298D02*
X-10398D01*
X-12598D02*
X-11798D01*
X11702Y26750D02*
X12502D01*
X10402D02*
X11202D01*
X9102D02*
X9902D01*
X6402D02*
X7502D01*
X3802D02*
X5002D01*
X602D02*
X1502D01*
X-1698D02*
X-798D01*
X-5198D02*
X-3998D01*
X-7698D02*
X-6598D01*
X-10098D02*
X-9298D01*
X-11398D02*
X-10598D01*
X-12698D02*
X-11898D01*
X11902Y26850D02*
X12602D01*
X10502D02*
X11402D01*
X9002D02*
X9802D01*
X6602D02*
X7502D01*
X3702D02*
X5202D01*
X502D02*
X1702D01*
X-1898D02*
X-698D01*
X-5398D02*
X-3898D01*
X-7698D02*
X-6798D01*
X-9998D02*
X-9198D01*
X-11598D02*
X-10698D01*
X-12798D02*
X-12098D01*
X12002Y26950D02*
X12702D01*
X10602D02*
X11502D01*
X8902D02*
X9702D01*
X6502D02*
X7402D01*
X4602D02*
X5302D01*
X3602D02*
X4402D01*
X402D02*
X1802D01*
X-1998D02*
X-598D01*
X-4598D02*
X-3798D01*
X-5498D02*
X-4798D01*
X-7598D02*
X-6698D01*
X-9898D02*
X-9098D01*
X-11698D02*
X-10798D01*
X-12898D02*
X-12198D01*
X12002Y27050D02*
X12802D01*
X10802D02*
X11702D01*
X8802D02*
X9602D01*
X6302D02*
X7402D01*
X4602D02*
X5502D01*
X3502D02*
X4202D01*
X202D02*
X1902D01*
X-2098D02*
X-398D01*
X-4398D02*
X-3698D01*
X-5698D02*
X-4798D01*
X-7598D02*
X-6498D01*
X-9798D02*
X-8998D01*
X-11898D02*
X-10998D01*
X-12998D02*
X-12198D01*
X12202Y27150D02*
X12902D01*
X10902D02*
X11802D01*
X8702D02*
X9502D01*
X6202D02*
X7602D01*
X4802D02*
X5502D01*
X3402D02*
X4102D01*
X1302D02*
X1902D01*
X102D02*
X902D01*
X-1098D02*
X-298D01*
X-2098D02*
X-1498D01*
X-4298D02*
X-3598D01*
X-5698D02*
X-4998D01*
X-7798D02*
X-6398D01*
X-9698D02*
X-8898D01*
X-11998D02*
X-11098D01*
X-13098D02*
X-12398D01*
X12202Y27250D02*
X13002D01*
X11102D02*
X11902D01*
X8602D02*
X9402D01*
X7002D02*
X7702D01*
X6102D02*
X6902D01*
X4902D02*
X5602D01*
X3202D02*
X4002D01*
X1402D02*
X2002D01*
X2D02*
X802D01*
X-998D02*
X-198D01*
X-2198D02*
X-1598D01*
X-4198D02*
X-3398D01*
X-5798D02*
X-5098D01*
X-7098D02*
X-6298D01*
X-7898D02*
X-7198D01*
X-9598D02*
X-8798D01*
X-12098D02*
X-11298D01*
X-13198D02*
X-12398D01*
X12402Y27350D02*
X13102D01*
X11202D02*
X12002D01*
X8502D02*
X9302D01*
X7202D02*
X7902D01*
X5902D02*
X6802D01*
X5102D02*
X5802D01*
X3202D02*
X3902D01*
X1502D02*
X2202D01*
X-798D02*
X602D01*
X-2398D02*
X-1698D01*
X-4098D02*
X-3398D01*
X-5998D02*
X-5298D01*
X-6998D02*
X-6098D01*
X-8098D02*
X-7398D01*
X-9498D02*
X-8698D01*
X-12198D02*
X-11398D01*
X-13298D02*
X-12598D01*
X12402Y27450D02*
X13202D01*
X11402D02*
X12202D01*
X8402D02*
X9202D01*
X7202D02*
X7902D01*
X5202D02*
X6602D01*
X3102D02*
X3802D01*
X1602D02*
X2302D01*
X-698D02*
X502D01*
X-2498D02*
X-1798D01*
X-3998D02*
X-3298D01*
X-6798D02*
X-5398D01*
X-8098D02*
X-7398D01*
X-9398D02*
X-8598D01*
X-12398D02*
X-11598D01*
X-13398D02*
X-12598D01*
X12602Y27550D02*
X13302D01*
X11402D02*
X12302D01*
X8302D02*
X9102D01*
X7302D02*
X8002D01*
X5202D02*
X6502D01*
X3002D02*
X3702D01*
X1602D02*
X2402D01*
X-598D02*
X402D01*
X-2598D02*
X-1798D01*
X-3898D02*
X-3198D01*
X-6698D02*
X-5398D01*
X-8198D02*
X-7498D01*
X-9298D02*
X-8498D01*
X-12498D02*
X-11598D01*
X-13498D02*
X-12798D01*
X12702Y27650D02*
X13402D01*
X11602D02*
X12402D01*
X7502D02*
X9002D01*
X5402D02*
X6402D01*
X2902D02*
X3602D01*
X1802D02*
X2502D01*
X-498D02*
X302D01*
X-2698D02*
X-1998D01*
X-3798D02*
X-3098D01*
X-6598D02*
X-5598D01*
X-9198D02*
X-7698D01*
X-12598D02*
X-11798D01*
X-13598D02*
X-12898D01*
X12802Y27750D02*
X13502D01*
X11702D02*
X12602D01*
X7602D02*
X8902D01*
X5402D02*
X6302D01*
X1902D02*
X3502D01*
X-598D02*
X402D01*
X-3698D02*
X-2098D01*
X-6498D02*
X-5598D01*
X-9098D02*
X-7798D01*
X-12798D02*
X-11898D01*
X-13698D02*
X-12998D01*
X12902Y27850D02*
X13602D01*
X11902D02*
X12702D01*
X7602D02*
X8802D01*
X5302D02*
X6402D01*
X2002D02*
X3402D01*
X-698D02*
X502D01*
X-3598D02*
X-2198D01*
X-6598D02*
X-5498D01*
X-8998D02*
X-7798D01*
X-12898D02*
X-12098D01*
X-13798D02*
X-13098D01*
X13002Y27950D02*
X13702D01*
X12002D02*
X12902D01*
X7802D02*
X8602D01*
X5102D02*
X6602D01*
X2102D02*
X3302D01*
X-898D02*
X702D01*
X-3498D02*
X-2298D01*
X-6798D02*
X-5298D01*
X-8798D02*
X-7998D01*
X-13098D02*
X-12198D01*
X-13898D02*
X-13198D01*
X13102Y28050D02*
X13802D01*
X12102D02*
X13002D01*
X7802D02*
X8602D01*
X5902D02*
X6702D01*
X5002D02*
X5802D01*
X2302D02*
X3202D01*
X2D02*
X802D01*
X-998D02*
X-198D01*
X-3398D02*
X-2498D01*
X-5998D02*
X-5198D01*
X-6898D02*
X-6098D01*
X-8798D02*
X-7998D01*
X-13198D02*
X-12298D01*
X-13998D02*
X-13298D01*
X13202Y28150D02*
X13902D01*
X12202D02*
X13102D01*
X7702D02*
X8702D01*
X6002D02*
X6702D01*
X4902D02*
X5702D01*
X2402D02*
X3002D01*
X102D02*
X902D01*
X-1098D02*
X-298D01*
X-3198D02*
X-2598D01*
X-5898D02*
X-5098D01*
X-6898D02*
X-6198D01*
X-8898D02*
X-7898D01*
X-13298D02*
X-12398D01*
X-14098D02*
X-13398D01*
X12402Y28250D02*
X14002D01*
X7602D02*
X8902D01*
X6202D02*
X6902D01*
X4702D02*
X5602D01*
X2202D02*
X3102D01*
X302D02*
X1002D01*
X-1198D02*
X-498D01*
X-3298D02*
X-2398D01*
X-5798D02*
X-4898D01*
X-7098D02*
X-6398D01*
X-9098D02*
X-7798D01*
X-14198D02*
X-12598D01*
X12502Y28350D02*
X14102D01*
X7502D02*
X9002D01*
X6302D02*
X7002D01*
X4602D02*
X5402D01*
X2102D02*
X3302D01*
X402D02*
X1102D01*
X-1298D02*
X-598D01*
X-3498D02*
X-2298D01*
X-5598D02*
X-4798D01*
X-7198D02*
X-6498D01*
X-9198D02*
X-7698D01*
X-14298D02*
X-12698D01*
X12702Y28450D02*
X14202D01*
X8302D02*
X9002D01*
X7402D02*
X8202D01*
X6502D02*
X7202D01*
X4502D02*
X5302D01*
X2002D02*
X3402D01*
X502D02*
X1302D01*
X-1498D02*
X-698D01*
X-3598D02*
X-2198D01*
X-5498D02*
X-4698D01*
X-7398D02*
X-6698D01*
X-8398D02*
X-7598D01*
X-9198D02*
X-8498D01*
X-14398D02*
X-12898D01*
X12802Y28550D02*
X14302D01*
X8502D02*
X9102D01*
X6502D02*
X8102D01*
X4302D02*
X5202D01*
X1902D02*
X3502D01*
X602D02*
X1402D01*
X-1598D02*
X-798D01*
X-3698D02*
X-2098D01*
X-5398D02*
X-4498D01*
X-8298D02*
X-6698D01*
X-9298D02*
X-8698D01*
X-14498D02*
X-12998D01*
X12902Y28650D02*
X14402D01*
X8602D02*
X9302D01*
X6602D02*
X8002D01*
X4202D02*
X5002D01*
X2902D02*
X3602D01*
X1802D02*
X2502D01*
X702D02*
X1602D01*
X-1798D02*
X-898D01*
X-2698D02*
X-1998D01*
X-3798D02*
X-3098D01*
X-5198D02*
X-4398D01*
X-8198D02*
X-6798D01*
X-9498D02*
X-8798D01*
X-14598D02*
X-13098D01*
X13002Y28750D02*
X14502D01*
X8702D02*
X9402D01*
X6802D02*
X7902D01*
X4102D02*
X4902D01*
X3002D02*
X3702D01*
X902D02*
X2402D01*
X-2598D02*
X-1098D01*
X-3898D02*
X-3198D01*
X-5098D02*
X-4298D01*
X-8098D02*
X-6998D01*
X-9598D02*
X-8898D01*
X-14698D02*
X-13198D01*
X13202Y28850D02*
X14602D01*
X8702D02*
X9502D01*
X6902D02*
X7802D01*
X3902D02*
X4802D01*
X3102D02*
X3802D01*
X1002D02*
X2302D01*
X-2498D02*
X-1198D01*
X-3998D02*
X-3298D01*
X-4998D02*
X-4098D01*
X-7998D02*
X-7098D01*
X-9698D02*
X-8898D01*
X-14798D02*
X-13398D01*
X13302Y28950D02*
X14702D01*
X10602D02*
X11302D01*
X8902D02*
X9502D01*
X6902D02*
X7802D01*
X3202D02*
X4602D01*
X1102D02*
X2202D01*
X-2398D02*
X-1298D01*
X-4798D02*
X-3398D01*
X-7998D02*
X-7098D01*
X-9698D02*
X-9098D01*
X-11498D02*
X-10798D01*
X-14898D02*
X-13498D01*
X13502Y29050D02*
X14702D01*
X10402D02*
X11402D01*
X9002D02*
X9702D01*
X6802D02*
X7902D01*
X3302D02*
X4502D01*
X1302D02*
X2102D01*
X-2298D02*
X-1498D01*
X-4698D02*
X-3498D01*
X-8098D02*
X-6998D01*
X-9898D02*
X-9198D01*
X-11598D02*
X-10598D01*
X-14898D02*
X-13698D01*
X13602Y29150D02*
X14802D01*
X10202D02*
X11402D01*
X9102D02*
X9802D01*
X6702D02*
X8102D01*
X3402D02*
X4402D01*
X1302D02*
X2202D01*
X-2398D02*
X-1498D01*
X-4598D02*
X-3598D01*
X-8298D02*
X-6898D01*
X-9998D02*
X-9298D01*
X-11598D02*
X-10398D01*
X-14998D02*
X-13798D01*
X13702Y29250D02*
X14802D01*
X9302D02*
X11402D01*
X6602D02*
X8202D01*
X3402D02*
X4302D01*
X1202D02*
X2302D01*
X-2498D02*
X-1398D01*
X-4498D02*
X-3598D01*
X-8398D02*
X-6798D01*
X-11598D02*
X-9498D01*
X-14998D02*
X-13898D01*
X13902Y29350D02*
X14802D01*
X9302D02*
X11402D01*
X7502D02*
X8202D01*
X6502D02*
X7302D01*
X3302D02*
X4402D01*
X1002D02*
X2402D01*
X-2598D02*
X-1198D01*
X-4598D02*
X-3498D01*
X-7498D02*
X-6698D01*
X-8398D02*
X-7698D01*
X-11598D02*
X-9498D01*
X-14998D02*
X-14098D01*
X14102Y29450D02*
X14802D01*
X9402D02*
X11402D01*
X7702D02*
X8402D01*
X6402D02*
X7202D01*
X3202D02*
X4502D01*
X1802D02*
X2502D01*
X902D02*
X1702D01*
X-1898D02*
X-1098D01*
X-2698D02*
X-1998D01*
X-4698D02*
X-3398D01*
X-7398D02*
X-6598D01*
X-8598D02*
X-7898D01*
X-11598D02*
X-9598D01*
X-14998D02*
X-14298D01*
X14202Y29550D02*
X14802D01*
X10802D02*
X11402D01*
X9402D02*
X10502D01*
X7802D02*
X8502D01*
X6302D02*
X7102D01*
X3002D02*
X4602D01*
X1902D02*
X2802D01*
X902D02*
X1602D01*
X-1798D02*
X-1098D01*
X-2998D02*
X-2098D01*
X-4798D02*
X-3198D01*
X-7298D02*
X-6498D01*
X-8698D02*
X-7998D01*
X-10698D02*
X-9598D01*
X-11598D02*
X-10998D01*
X-14998D02*
X-14398D01*
X10702Y29650D02*
X11302D01*
X9302D02*
X10302D01*
X8002D02*
X8702D01*
X6202D02*
X7002D01*
X4002D02*
X4702D01*
X2002D02*
X3702D01*
X702D02*
X1502D01*
X-1698D02*
X-898D01*
X-3898D02*
X-2198D01*
X-4898D02*
X-4198D01*
X-7198D02*
X-6398D01*
X-8898D02*
X-8198D01*
X-10498D02*
X-9498D01*
X-11498D02*
X-10898D01*
X10702Y29750D02*
X11302D01*
X9102D02*
X10502D01*
X8002D02*
X8802D01*
X6102D02*
X6902D01*
X4102D02*
X4802D01*
X2102D02*
X3602D01*
X602D02*
X1302D01*
X-1498D02*
X-798D01*
X-3798D02*
X-2298D01*
X-4998D02*
X-4298D01*
X-7098D02*
X-6298D01*
X-8998D02*
X-8198D01*
X-10698D02*
X-9298D01*
X-11498D02*
X-10898D01*
X8102Y29850D02*
X11202D01*
X6102D02*
X6802D01*
X4202D02*
X4902D01*
X2202D02*
X3502D01*
X602D02*
X1302D01*
X-1498D02*
X-798D01*
X-3698D02*
X-2398D01*
X-5098D02*
X-4398D01*
X-6998D02*
X-6298D01*
X-11398D02*
X-8298D01*
X9902Y29950D02*
X11202D01*
X8302D02*
X9802D01*
X6002D02*
X6702D01*
X4302D02*
X5002D01*
X2502D02*
X3302D01*
X402D02*
X1202D01*
X-1398D02*
X-598D01*
X-3498D02*
X-2698D01*
X-5198D02*
X-4498D01*
X-6898D02*
X-6198D01*
X-9998D02*
X-8498D01*
X-11398D02*
X-10098D01*
X10102Y30050D02*
X11102D01*
X8402D02*
X9602D01*
X5802D02*
X6602D01*
X4402D02*
X5102D01*
X2302D02*
X3302D01*
X302D02*
X1002D01*
X-1198D02*
X-498D01*
X-3498D02*
X-2498D01*
X-5298D02*
X-4598D01*
X-6798D02*
X-5998D01*
X-9798D02*
X-8598D01*
X-11298D02*
X-10298D01*
X10202Y30150D02*
X11102D01*
X8402D02*
X9402D01*
X5702D02*
X6502D01*
X4502D02*
X5202D01*
X2202D02*
X3402D01*
X202D02*
X1002D01*
X-1198D02*
X-398D01*
X-3598D02*
X-2398D01*
X-5398D02*
X-4698D01*
X-6698D02*
X-5898D01*
X-9598D02*
X-8598D01*
X-11298D02*
X-10398D01*
X10302Y30250D02*
X11002D01*
X8302D02*
X9402D01*
X5602D02*
X6402D01*
X4602D02*
X5302D01*
X2102D02*
X3602D01*
X102D02*
X902D01*
X-1098D02*
X-298D01*
X-3798D02*
X-2298D01*
X-5498D02*
X-4798D01*
X-6598D02*
X-5798D01*
X-9598D02*
X-8498D01*
X-11198D02*
X-10498D01*
X10302Y30350D02*
X11102D01*
X8102D02*
X9502D01*
X5602D02*
X6302D01*
X4702D02*
X5402D01*
X2902D02*
X3802D01*
X1902D02*
X2802D01*
X2D02*
X702D01*
X-898D02*
X-198D01*
X-2998D02*
X-2098D01*
X-3998D02*
X-3098D01*
X-5598D02*
X-4898D01*
X-6498D02*
X-5798D01*
X-9698D02*
X-8298D01*
X-11298D02*
X-10498D01*
X10202Y30450D02*
X11202D01*
X8002D02*
X9602D01*
X4802D02*
X6202D01*
X3002D02*
X3902D01*
X1902D02*
X2602D01*
X-798D02*
X602D01*
X-2798D02*
X-2098D01*
X-4098D02*
X-3198D01*
X-6398D02*
X-4998D01*
X-9798D02*
X-8198D01*
X-11398D02*
X-10398D01*
X10102Y30550D02*
X11302D01*
X9002D02*
X9802D01*
X7802D02*
X8802D01*
X4902D02*
X6102D01*
X3102D02*
X4002D01*
X1702D02*
X2602D01*
X-798D02*
X602D01*
X-2798D02*
X-1898D01*
X-4198D02*
X-3298D01*
X-6298D02*
X-5098D01*
X-8998D02*
X-7998D01*
X-9998D02*
X-9198D01*
X-11498D02*
X-10298D01*
X10102Y30650D02*
X11402D01*
X9102D02*
X9902D01*
X7702D02*
X8702D01*
X5002D02*
X6002D01*
X3402D02*
X4102D01*
X1602D02*
X2402D01*
X-598D02*
X402D01*
X-2598D02*
X-1798D01*
X-4298D02*
X-3598D01*
X-6198D02*
X-5198D01*
X-8898D02*
X-7898D01*
X-10098D02*
X-9298D01*
X-11598D02*
X-10298D01*
X10802Y30750D02*
X11602D01*
X9202D02*
X10702D01*
X7502D02*
X8502D01*
X5102D02*
X5902D01*
X3502D02*
X4302D01*
X1402D02*
X2302D01*
X-598D02*
X402D01*
X-2498D02*
X-1598D01*
X-4498D02*
X-3698D01*
X-6098D02*
X-5298D01*
X-8698D02*
X-7698D01*
X-10898D02*
X-9398D01*
X-11798D02*
X-10998D01*
X10902Y30850D02*
X11702D01*
X9402D02*
X10602D01*
X7402D02*
X8302D01*
X5102D02*
X6002D01*
X3602D02*
X4402D01*
X1302D02*
X2202D01*
X-498D02*
X302D01*
X-2398D02*
X-1498D01*
X-4598D02*
X-3798D01*
X-6198D02*
X-5298D01*
X-8498D02*
X-7598D01*
X-10798D02*
X-9598D01*
X-11898D02*
X-11098D01*
X11002Y30950D02*
X11802D01*
X9502D02*
X10502D01*
X7202D02*
X8202D01*
X5002D02*
X6102D01*
X3702D02*
X4502D01*
X1202D02*
X2002D01*
X-598D02*
X402D01*
X-2198D02*
X-1398D01*
X-4698D02*
X-3898D01*
X-6298D02*
X-5198D01*
X-8398D02*
X-7398D01*
X-10698D02*
X-9698D01*
X-11998D02*
X-11198D01*
X11202Y31050D02*
X11902D01*
X9602D02*
X10502D01*
X7102D02*
X8002D01*
X4902D02*
X6202D01*
X3802D02*
X4602D01*
X1002D02*
X1902D01*
X-698D02*
X502D01*
X-2098D02*
X-1198D01*
X-4798D02*
X-3998D01*
X-6398D02*
X-5098D01*
X-8198D02*
X-7298D01*
X-10698D02*
X-9798D01*
X-12098D02*
X-11398D01*
X11302Y31150D02*
X12002D01*
X9802D02*
X10602D01*
X6902D02*
X7902D01*
X4002D02*
X6302D01*
X902D02*
X1702D01*
X-798D02*
X602D01*
X-1898D02*
X-1098D01*
X-6498D02*
X-4198D01*
X-8098D02*
X-7098D01*
X-10798D02*
X-9998D01*
X-12198D02*
X-11498D01*
X20002Y31250D02*
X20602D01*
X11402D02*
X12102D01*
X9702D02*
X10702D01*
X6802D02*
X7702D01*
X5702D02*
X6402D01*
X4102D02*
X5402D01*
X2D02*
X1602D01*
X-1798D02*
X-198D01*
X-5598D02*
X-4298D01*
X-6598D02*
X-5898D01*
X-7898D02*
X-6998D01*
X-10898D02*
X-9898D01*
X-12298D02*
X-11598D01*
X-20798D02*
X-20198D01*
X19802Y31350D02*
X20602D01*
X11502D02*
X12302D01*
X9602D02*
X10802D01*
X6602D02*
X7602D01*
X5802D02*
X6502D01*
X4202D02*
X5302D01*
X102D02*
X1502D01*
X-1698D02*
X-298D01*
X-5498D02*
X-4398D01*
X-6698D02*
X-5998D01*
X-7798D02*
X-6798D01*
X-10998D02*
X-9798D01*
X-12498D02*
X-11698D01*
X-20798D02*
X-19998D01*
X19602Y31450D02*
X20602D01*
X11602D02*
X12402D01*
X9602D02*
X11002D01*
X5902D02*
X7402D01*
X4302D02*
X5202D01*
X202D02*
X1402D01*
X-1598D02*
X-398D01*
X-5398D02*
X-4498D01*
X-7598D02*
X-6098D01*
X-11198D02*
X-9798D01*
X-12598D02*
X-11798D01*
X-20798D02*
X-19798D01*
X19402Y31550D02*
X20602D01*
X11702D02*
X12402D01*
X10302D02*
X11102D01*
X9502D02*
X10102D01*
X6002D02*
X7302D01*
X4402D02*
X5302D01*
X302D02*
X1202D01*
X-1398D02*
X-498D01*
X-5498D02*
X-4598D01*
X-7498D02*
X-6198D01*
X-10298D02*
X-9698D01*
X-11298D02*
X-10498D01*
X-12598D02*
X-11898D01*
X-20798D02*
X-19598D01*
X19302Y31650D02*
X20602D01*
X11902D02*
X12502D01*
X10402D02*
X11202D01*
X9502D02*
X10102D01*
X6102D02*
X7102D01*
X4302D02*
X5402D01*
X202D02*
X1202D01*
X-1398D02*
X-398D01*
X-5598D02*
X-4498D01*
X-7298D02*
X-6298D01*
X-10298D02*
X-9698D01*
X-11398D02*
X-10598D01*
X-12698D02*
X-12098D01*
X-20798D02*
X-19498D01*
X19102Y31750D02*
X20602D01*
X12002D02*
X12602D01*
X10602D02*
X11302D01*
X9402D02*
X10002D01*
X6002D02*
X7002D01*
X4202D02*
X5502D01*
X2D02*
X1202D01*
X-1398D02*
X-198D01*
X-5698D02*
X-4398D01*
X-7198D02*
X-6198D01*
X-10198D02*
X-9598D01*
X-11498D02*
X-10798D01*
X-12798D02*
X-12198D01*
X-20798D02*
X-19298D01*
X19002Y31850D02*
X20502D01*
X12102D02*
X12702D01*
X10702D02*
X11502D01*
X9402D02*
X10002D01*
X5802D02*
X7002D01*
X4202D02*
X5702D01*
X-1498D02*
X1302D01*
X-5898D02*
X-4398D01*
X-7198D02*
X-5998D01*
X-10198D02*
X-9598D01*
X-11698D02*
X-10898D01*
X-12898D02*
X-12298D01*
X-20698D02*
X-19198D01*
X18802Y31950D02*
X20502D01*
X12102D02*
X12902D01*
X10802D02*
X11602D01*
X9302D02*
X9902D01*
X5002D02*
X7202D01*
X4102D02*
X4802D01*
X702D02*
X1402D01*
X-798D02*
X602D01*
X-1598D02*
X-898D01*
X-4998D02*
X-4298D01*
X-7398D02*
X-5198D01*
X-10098D02*
X-9498D01*
X-11798D02*
X-10998D01*
X-13098D02*
X-12298D01*
X-20698D02*
X-18998D01*
X19702Y32050D02*
X20402D01*
X18602D02*
X19602D01*
X13302D02*
X14002D01*
X12202D02*
X13002D01*
X10902D02*
X11702D01*
X9302D02*
X9902D01*
X5102D02*
X7302D01*
X4002D02*
X4702D01*
X802D02*
X1602D01*
X-698D02*
X502D01*
X-1798D02*
X-998D01*
X-4898D02*
X-4198D01*
X-7498D02*
X-5298D01*
X-10098D02*
X-9498D01*
X-11898D02*
X-11098D01*
X-13198D02*
X-12398D01*
X-14198D02*
X-13498D01*
X-19798D02*
X-18798D01*
X-20598D02*
X-19898D01*
X19602Y32150D02*
X20302D01*
X18502D02*
X19502D01*
X12302D02*
X14002D01*
X11102D02*
X11802D01*
X9302D02*
X9802D01*
X6602D02*
X7402D01*
X5202D02*
X6302D01*
X3902D02*
X4602D01*
X902D02*
X1702D01*
X-598D02*
X402D01*
X-1898D02*
X-1098D01*
X-4798D02*
X-4098D01*
X-6498D02*
X-5398D01*
X-7598D02*
X-6798D01*
X-9998D02*
X-9498D01*
X-11998D02*
X-11298D01*
X-14198D02*
X-12498D01*
X-19698D02*
X-18698D01*
X-20498D02*
X-19798D01*
X19502Y32250D02*
X20202D01*
X18302D02*
X19302D01*
X12402D02*
X14002D01*
X11202D02*
X11902D01*
X9302D02*
X9802D01*
X6702D02*
X7502D01*
X5202D02*
X6202D01*
X3802D02*
X4502D01*
X1002D02*
X1802D01*
X-598D02*
X402D01*
X-1998D02*
X-1198D01*
X-4698D02*
X-3998D01*
X-6398D02*
X-5398D01*
X-7698D02*
X-6898D01*
X-9998D02*
X-9498D01*
X-12098D02*
X-11398D01*
X-14198D02*
X-12598D01*
X-19498D02*
X-18498D01*
X-20398D02*
X-19698D01*
X19402Y32350D02*
X20102D01*
X18202D02*
X19202D01*
X12502D02*
X14002D01*
X11302D02*
X12102D01*
X9302D02*
X9702D01*
X6902D02*
X7602D01*
X5002D02*
X6302D01*
X3702D02*
X4402D01*
X1102D02*
X1802D01*
X-698D02*
X502D01*
X-1998D02*
X-1298D01*
X-4598D02*
X-3898D01*
X-6498D02*
X-5198D01*
X-7798D02*
X-7098D01*
X-9898D02*
X-9498D01*
X-12298D02*
X-11498D01*
X-14198D02*
X-12698D01*
X-19398D02*
X-18398D01*
X-20298D02*
X-19598D01*
X19302Y32450D02*
X20002D01*
X18102D02*
X19002D01*
X12302D02*
X14002D01*
X11402D02*
X12202D01*
X9302D02*
X10402D01*
X7002D02*
X7702D01*
X4902D02*
X6402D01*
X3602D02*
X4302D01*
X1202D02*
X2002D01*
X-898D02*
X702D01*
X-2198D02*
X-1398D01*
X-4498D02*
X-3798D01*
X-6598D02*
X-5098D01*
X-7898D02*
X-7198D01*
X-10598D02*
X-9498D01*
X-12398D02*
X-11598D01*
X-14198D02*
X-12498D01*
X-19198D02*
X-18298D01*
X-20198D02*
X-19498D01*
X19202Y32550D02*
X20002D01*
X17902D02*
X18902D01*
X11502D02*
X14002D01*
X9302D02*
X10402D01*
X7002D02*
X7802D01*
X4702D02*
X6602D01*
X3502D02*
X4302D01*
X1302D02*
X2002D01*
X-998D02*
X802D01*
X-2198D02*
X-1498D01*
X-4498D02*
X-3698D01*
X-6798D02*
X-4898D01*
X-7998D02*
X-7198D01*
X-10598D02*
X-9498D01*
X-14198D02*
X-11698D01*
X-19098D02*
X-18098D01*
X-20198D02*
X-19398D01*
X19102Y32650D02*
X19902D01*
X17802D02*
X18702D01*
X11702D02*
X14002D01*
X9302D02*
X10402D01*
X7202D02*
X7902D01*
X5802D02*
X6702D01*
X4502D02*
X5502D01*
X3502D02*
X4202D01*
X1402D02*
X2102D01*
X102D02*
X1002D01*
X-1198D02*
X-298D01*
X-2298D02*
X-1598D01*
X-4398D02*
X-3698D01*
X-5698D02*
X-4698D01*
X-6898D02*
X-5998D01*
X-8098D02*
X-7398D01*
X-10598D02*
X-9498D01*
X-14198D02*
X-11898D01*
X-18898D02*
X-17998D01*
X-20098D02*
X-19298D01*
X19002Y32750D02*
X19802D01*
X17602D02*
X18602D01*
X13002D02*
X14002D01*
X11602D02*
X12902D01*
X9302D02*
X10402D01*
X7302D02*
X8002D01*
X6002D02*
X6802D01*
X4402D02*
X5402D01*
X3402D02*
X4102D01*
X1502D02*
X2202D01*
X202D02*
X1102D01*
X-1298D02*
X-398D01*
X-2398D02*
X-1698D01*
X-4298D02*
X-3598D01*
X-5598D02*
X-4598D01*
X-6998D02*
X-6198D01*
X-8198D02*
X-7498D01*
X-10598D02*
X-9498D01*
X-13098D02*
X-11798D01*
X-14198D02*
X-13198D01*
X-18798D02*
X-17798D01*
X-19998D02*
X-19198D01*
X18902Y32850D02*
X19702D01*
X17502D02*
X18402D01*
X13102D02*
X13902D01*
X11402D02*
X12702D01*
X9502D02*
X10402D01*
X7302D02*
X8102D01*
X6102D02*
X7002D01*
X4202D02*
X5202D01*
X3302D02*
X4002D01*
X1602D02*
X2302D01*
X402D02*
X1202D01*
X-1398D02*
X-598D01*
X-2498D02*
X-1798D01*
X-4198D02*
X-3498D01*
X-5398D02*
X-4398D01*
X-7198D02*
X-6298D01*
X-8298D02*
X-7498D01*
X-10598D02*
X-9698D01*
X-12898D02*
X-11598D01*
X-14098D02*
X-13298D01*
X-18598D02*
X-17698D01*
X-19898D02*
X-19098D01*
X18902Y32950D02*
X19602D01*
X17402D02*
X18302D01*
X13202D02*
X13902D01*
X11202D02*
X12802D01*
X9902D02*
X10402D01*
X7502D02*
X8202D01*
X6302D02*
X7102D01*
X4002D02*
X5102D01*
X3302D02*
X3902D01*
X1702D02*
X2402D01*
X502D02*
X1402D01*
X-1598D02*
X-698D01*
X-2598D02*
X-1898D01*
X-4098D02*
X-3498D01*
X-5298D02*
X-4198D01*
X-7298D02*
X-6498D01*
X-8398D02*
X-7698D01*
X-10598D02*
X-10098D01*
X-12998D02*
X-11398D01*
X-14098D02*
X-13398D01*
X-18498D02*
X-17598D01*
X-19798D02*
X-19098D01*
X18802Y33050D02*
X19502D01*
X17202D02*
X18102D01*
X13102D02*
X14102D01*
X10902D02*
X12902D01*
X9902D02*
X10402D01*
X7602D02*
X8302D01*
X6402D02*
X7202D01*
X3202D02*
X4902D01*
X1802D02*
X2502D01*
X602D02*
X1602D01*
X-1798D02*
X-798D01*
X-2698D02*
X-1998D01*
X-5098D02*
X-3398D01*
X-7398D02*
X-6598D01*
X-8498D02*
X-7798D01*
X-10598D02*
X-10098D01*
X-13098D02*
X-11098D01*
X-14298D02*
X-13298D01*
X-18298D02*
X-17398D01*
X-19698D02*
X-18998D01*
X18602Y33150D02*
X19402D01*
X17102D02*
X18002D01*
X12302D02*
X14202D01*
X10602D02*
X12002D01*
X9902D02*
X10402D01*
X7702D02*
X8402D01*
X6502D02*
X7402D01*
X3202D02*
X4702D01*
X1902D02*
X2602D01*
X802D02*
X1702D01*
X-1898D02*
X-998D01*
X-2798D02*
X-2098D01*
X-4898D02*
X-3398D01*
X-7598D02*
X-6698D01*
X-8598D02*
X-7898D01*
X-10598D02*
X-10098D01*
X-12198D02*
X-10798D01*
X-14398D02*
X-12498D01*
X-18198D02*
X-17298D01*
X-19598D02*
X-18798D01*
X18502Y33250D02*
X19302D01*
X16902D02*
X17802D01*
X12402D02*
X14202D01*
X9902D02*
X11802D01*
X7802D02*
X8502D01*
X6702D02*
X7502D01*
X3202D02*
X4602D01*
X1902D02*
X2702D01*
X902D02*
X1802D01*
X-1998D02*
X-1098D01*
X-2898D02*
X-2098D01*
X-4798D02*
X-3398D01*
X-7698D02*
X-6898D01*
X-8698D02*
X-7998D01*
X-11998D02*
X-10098D01*
X-14398D02*
X-12598D01*
X-17998D02*
X-17098D01*
X-19498D02*
X-18698D01*
X18502Y33350D02*
X19202D01*
X16802D02*
X17702D01*
X12502D02*
X14302D01*
X9902D02*
X11502D01*
X7902D02*
X8602D01*
X6802D02*
X7602D01*
X3202D02*
X4402D01*
X2102D02*
X2802D01*
X1002D02*
X2002D01*
X-2198D02*
X-1198D01*
X-2998D02*
X-2298D01*
X-4598D02*
X-3398D01*
X-7798D02*
X-6998D01*
X-8798D02*
X-8098D01*
X-11698D02*
X-10098D01*
X-14498D02*
X-12698D01*
X-17898D02*
X-16998D01*
X-19398D02*
X-18698D01*
X18402Y33450D02*
X19102D01*
X16602D02*
X17602D01*
X13802D02*
X14502D01*
X12602D02*
X13502D01*
X9902D02*
X11302D01*
X8002D02*
X8702D01*
X6902D02*
X7802D01*
X3202D02*
X4202D01*
X1202D02*
X2902D01*
X-3098D02*
X-1398D01*
X-4398D02*
X-3398D01*
X-7998D02*
X-7098D01*
X-8898D02*
X-8198D01*
X-11498D02*
X-10098D01*
X-13698D02*
X-12798D01*
X-14698D02*
X-13998D01*
X-17798D02*
X-16798D01*
X-19298D02*
X-18598D01*
X18302Y33550D02*
X19002D01*
X16502D02*
X17402D01*
X13802D02*
X14602D01*
X12702D02*
X13702D01*
X10002D02*
X11002D01*
X8102D02*
X8802D01*
X7102D02*
X7902D01*
X3202D02*
X4002D01*
X1402D02*
X3002D01*
X-3198D02*
X-1598D01*
X-4198D02*
X-3398D01*
X-8098D02*
X-7298D01*
X-8998D02*
X-8298D01*
X-11198D02*
X-10198D01*
X-13898D02*
X-12898D01*
X-14798D02*
X-13998D01*
X-17598D02*
X-16698D01*
X-19198D02*
X-18498D01*
X18202Y33650D02*
X18902D01*
X16302D02*
X17302D01*
X13902D02*
X14702D01*
X12702D02*
X13702D01*
X8202D02*
X8902D01*
X7202D02*
X8002D01*
X1502D02*
X3002D01*
X-3198D02*
X-1698D01*
X-8198D02*
X-7398D01*
X-9098D02*
X-8398D01*
X-13898D02*
X-12898D01*
X-14898D02*
X-14098D01*
X-17498D02*
X-16498D01*
X-19098D02*
X-18398D01*
X18102Y33750D02*
X18802D01*
X16202D02*
X17102D01*
X14002D02*
X14802D01*
X12602D02*
X13802D01*
X8302D02*
X9002D01*
X7302D02*
X8202D01*
X1602D02*
X3102D01*
X-3298D02*
X-1798D01*
X-8398D02*
X-7498D01*
X-9198D02*
X-8498D01*
X-13998D02*
X-12798D01*
X-14998D02*
X-14198D01*
X-17298D02*
X-16398D01*
X-18998D02*
X-18298D01*
X18002Y33850D02*
X18702D01*
X16102D02*
X17002D01*
X14202D02*
X14902D01*
X12502D02*
X14002D01*
X8402D02*
X9102D01*
X7402D02*
X8302D01*
X1802D02*
X3202D01*
X-3398D02*
X-1998D01*
X-8498D02*
X-7598D01*
X-9298D02*
X-8598D01*
X-14198D02*
X-12698D01*
X-15098D02*
X-14398D01*
X-17198D02*
X-16298D01*
X-18898D02*
X-18198D01*
X17902Y33950D02*
X18602D01*
X15902D02*
X16902D01*
X14302D02*
X15002D01*
X13302D02*
X14102D01*
X12402D02*
X13102D01*
X7602D02*
X9202D01*
X1902D02*
X3302D01*
X-3498D02*
X-2098D01*
X-9398D02*
X-7798D01*
X-13298D02*
X-12598D01*
X-14298D02*
X-13498D01*
X-15198D02*
X-14498D01*
X-17098D02*
X-16098D01*
X-18798D02*
X-18098D01*
X22202Y34050D02*
X22902D01*
X17702D02*
X18502D01*
X15802D02*
X16702D01*
X13402D02*
X15102D01*
X12302D02*
X13002D01*
X7702D02*
X9302D01*
X2102D02*
X3302D01*
X-3498D02*
X-2298D01*
X-9498D02*
X-7898D01*
X-13198D02*
X-12498D01*
X-15298D02*
X-13598D01*
X-16898D02*
X-15998D01*
X-18698D02*
X-17898D01*
X-23098D02*
X-22398D01*
X22102Y34150D02*
X22902D01*
X17702D02*
X18402D01*
X15702D02*
X16602D01*
X14502D02*
X15202D01*
X13502D02*
X14402D01*
X12202D02*
X13002D01*
X7802D02*
X9402D01*
X2202D02*
X3302D01*
X-3498D02*
X-2398D01*
X-9598D02*
X-7998D01*
X-13198D02*
X-12398D01*
X-14598D02*
X-13698D01*
X-15398D02*
X-14698D01*
X-16798D02*
X-15898D01*
X-18598D02*
X-17898D01*
X-23098D02*
X-22298D01*
X21902Y34250D02*
X22902D01*
X17602D02*
X18302D01*
X15502D02*
X16402D01*
X13702D02*
X15302D01*
X12202D02*
X12902D01*
X8002D02*
X9502D01*
X2402D02*
X3302D01*
X-3498D02*
X-2598D01*
X-9698D02*
X-8198D01*
X-13098D02*
X-12398D01*
X-15498D02*
X-13898D01*
X-16598D02*
X-15698D01*
X-18498D02*
X-17798D01*
X-23098D02*
X-22098D01*
X21702Y34350D02*
X22902D01*
X17502D02*
X18202D01*
X13802D02*
X16302D01*
X12102D02*
X12802D01*
X8202D02*
X9602D01*
X2602D02*
X3302D01*
X-3498D02*
X-2798D01*
X-9798D02*
X-8398D01*
X-12998D02*
X-12298D01*
X-16498D02*
X-13998D01*
X-18398D02*
X-17698D01*
X-23098D02*
X-21898D01*
X21602Y34450D02*
X22902D01*
X17402D02*
X18102D01*
X14002D02*
X16202D01*
X12002D02*
X12702D01*
X8302D02*
X9702D01*
X-9898D02*
X-8498D01*
X-12898D02*
X-12198D01*
X-16398D02*
X-14198D01*
X-18298D02*
X-17598D01*
X-23098D02*
X-21798D01*
X21402Y34550D02*
X22902D01*
X17202D02*
X18002D01*
X14102D02*
X16002D01*
X11902D02*
X12602D01*
X8402D02*
X9802D01*
X-9998D02*
X-8598D01*
X-12798D02*
X-12098D01*
X-16198D02*
X-14298D01*
X-18198D02*
X-17398D01*
X-23098D02*
X-21598D01*
X21302Y34650D02*
X22802D01*
X17202D02*
X17902D01*
X14202D02*
X15902D01*
X11802D02*
X12502D01*
X8502D02*
X9902D01*
X-10098D02*
X-8698D01*
X-12698D02*
X-11998D01*
X-16098D02*
X-14398D01*
X-18098D02*
X-17398D01*
X-22998D02*
X-21498D01*
X21102Y34750D02*
X22802D01*
X17102D02*
X17802D01*
X14402D02*
X15802D01*
X11702D02*
X12402D01*
X8702D02*
X9902D01*
X-10098D02*
X-8898D01*
X-12598D02*
X-11898D01*
X-15998D02*
X-14598D01*
X-17998D02*
X-17298D01*
X-22998D02*
X-21298D01*
X22002Y34850D02*
X22702D01*
X21002D02*
X21902D01*
X16902D02*
X17702D01*
X14502D02*
X15902D01*
X11602D02*
X12302D01*
X8802D02*
X10002D01*
X-10198D02*
X-8998D01*
X-12498D02*
X-11798D01*
X-16098D02*
X-14698D01*
X-17898D02*
X-17098D01*
X-22098D02*
X-21198D01*
X-22898D02*
X-22198D01*
X21902Y34950D02*
X22602D01*
X20802D02*
X21802D01*
X16902D02*
X17602D01*
X14502D02*
X16002D01*
X11502D02*
X12202D01*
X9002D02*
X10002D01*
X-10198D02*
X-9198D01*
X-12398D02*
X-11698D01*
X-16198D02*
X-14698D01*
X-17798D02*
X-17098D01*
X-21998D02*
X-20998D01*
X-22798D02*
X-22098D01*
X21802Y35050D02*
X22502D01*
X20702D02*
X21602D01*
X16802D02*
X17502D01*
X14402D02*
X16102D01*
X11402D02*
X12202D01*
X9102D02*
X10002D01*
X-10198D02*
X-9298D01*
X-12398D02*
X-11598D01*
X-16298D02*
X-14598D01*
X-17698D02*
X-16998D01*
X-21798D02*
X-20898D01*
X-22698D02*
X-21998D01*
X21702Y35150D02*
X22402D01*
X20502D02*
X21502D01*
X16602D02*
X17402D01*
X14302D02*
X16202D01*
X11302D02*
X12102D01*
X9302D02*
X10002D01*
X-10198D02*
X-9498D01*
X-12298D02*
X-11498D01*
X-16398D02*
X-14498D01*
X-17598D02*
X-16798D01*
X-21698D02*
X-20698D01*
X-22598D02*
X-21898D01*
X21702Y35250D02*
X22402D01*
X20402D02*
X21302D01*
X16602D02*
X17302D01*
X14102D02*
X16302D01*
X11302D02*
X12002D01*
X9502D02*
X10002D01*
X-10198D02*
X-9698D01*
X-12198D02*
X-11498D01*
X-16498D02*
X-14298D01*
X-17498D02*
X-16798D01*
X-21498D02*
X-20598D01*
X-22598D02*
X-21898D01*
X21602Y35350D02*
X22302D01*
X20302D02*
X21202D01*
X16502D02*
X17202D01*
X15202D02*
X16402D01*
X14002D02*
X14902D01*
X11202D02*
X11902D01*
X-12098D02*
X-11398D01*
X-15098D02*
X-14198D01*
X-16598D02*
X-15398D01*
X-17398D02*
X-16698D01*
X-21398D02*
X-20498D01*
X-22498D02*
X-21798D01*
X21502Y35450D02*
X22202D01*
X20102D02*
X21002D01*
X15302D02*
X17102D01*
X13902D02*
X14802D01*
X11102D02*
X11802D01*
X-11998D02*
X-11298D01*
X-14998D02*
X-14098D01*
X-17298D02*
X-15498D01*
X-21198D02*
X-20298D01*
X-22398D02*
X-21698D01*
X21402Y35550D02*
X22102D01*
X20002D02*
X20902D01*
X15402D02*
X17002D01*
X13702D02*
X14602D01*
X11002D02*
X11702D01*
X-11898D02*
X-11198D01*
X-14798D02*
X-13898D01*
X-17198D02*
X-15598D01*
X-21098D02*
X-20198D01*
X-22298D02*
X-21598D01*
X21302Y35650D02*
X22002D01*
X19902D02*
X20802D01*
X15602D02*
X16902D01*
X13602D02*
X14502D01*
X10902D02*
X11602D01*
X-11798D02*
X-11098D01*
X-14698D02*
X-13798D01*
X-17098D02*
X-15798D01*
X-20998D02*
X-20098D01*
X-22198D02*
X-21498D01*
X21202Y35750D02*
X21902D01*
X19702D02*
X20602D01*
X15702D02*
X16802D01*
X13502D02*
X14302D01*
X10802D02*
X11502D01*
X-11698D02*
X-10998D01*
X-14498D02*
X-13698D01*
X-16998D02*
X-15898D01*
X-20798D02*
X-19898D01*
X-22098D02*
X-21398D01*
X21102Y35850D02*
X21802D01*
X19602D02*
X20502D01*
X15902D02*
X16702D01*
X13302D02*
X14202D01*
X10702D02*
X11402D01*
X-11598D02*
X-10898D01*
X-14398D02*
X-13498D01*
X-16898D02*
X-16098D01*
X-20698D02*
X-19798D01*
X-21998D02*
X-21298D01*
X21002Y35950D02*
X21702D01*
X19402D02*
X20302D01*
X15902D02*
X16602D01*
X13202D02*
X14002D01*
X10602D02*
X11402D01*
X-11598D02*
X-10798D01*
X-14198D02*
X-13398D01*
X-16798D02*
X-16098D01*
X-20498D02*
X-19598D01*
X-21898D02*
X-21198D01*
X20902Y36050D02*
X21702D01*
X19302D02*
X20202D01*
X15702D02*
X16602D01*
X13002D02*
X13902D01*
X10502D02*
X11302D01*
X-11498D02*
X-10698D01*
X-14098D02*
X-13198D01*
X-16798D02*
X-15898D01*
X-20398D02*
X-19498D01*
X-21898D02*
X-21098D01*
X20802Y36150D02*
X21502D01*
X19102D02*
X20002D01*
X15702D02*
X16402D01*
X12902D02*
X13802D01*
X10502D02*
X11202D01*
X-11398D02*
X-10698D01*
X-13998D02*
X-13098D01*
X-16598D02*
X-15898D01*
X-20198D02*
X-19298D01*
X-21698D02*
X-20998D01*
X20702Y36250D02*
X21502D01*
X19002D02*
X19902D01*
X15502D02*
X16302D01*
X12802D02*
X13602D01*
X10402D02*
X11102D01*
X-11298D02*
X-10598D01*
X-13798D02*
X-12998D01*
X-16498D02*
X-15698D01*
X-20098D02*
X-19198D01*
X-21698D02*
X-20898D01*
X20602Y36350D02*
X21302D01*
X18902D02*
X19802D01*
X15502D02*
X16202D01*
X12602D02*
X13502D01*
X10302D02*
X11002D01*
X-11198D02*
X-10498D01*
X-13698D02*
X-12798D01*
X-16398D02*
X-15698D01*
X-19998D02*
X-19098D01*
X-21498D02*
X-20798D01*
X20502Y36450D02*
X21302D01*
X18702D02*
X19602D01*
X15302D02*
X16102D01*
X12502D02*
X13302D01*
X10202D02*
X10902D01*
X-11098D02*
X-10398D01*
X-13498D02*
X-12698D01*
X-16298D02*
X-15498D01*
X-19798D02*
X-18898D01*
X-21498D02*
X-20698D01*
X20402Y36550D02*
X21202D01*
X18602D02*
X19502D01*
X15302D02*
X16002D01*
X12302D02*
X13202D01*
X10102D02*
X10802D01*
X-10998D02*
X-10298D01*
X-13398D02*
X-12498D01*
X-16198D02*
X-15498D01*
X-19698D02*
X-18798D01*
X-21398D02*
X-20598D01*
X20302Y36650D02*
X21102D01*
X18502D02*
X19302D01*
X15102D02*
X15902D01*
X12202D02*
X13102D01*
X10002D02*
X10702D01*
X-10898D02*
X-10198D01*
X-13298D02*
X-12398D01*
X-16098D02*
X-15298D01*
X-19498D02*
X-18698D01*
X-21298D02*
X-20498D01*
X20202Y36750D02*
X21002D01*
X18302D02*
X19202D01*
X15102D02*
X15802D01*
X12002D02*
X12902D01*
X9902D02*
X10602D01*
X-10798D02*
X-10098D01*
X-13098D02*
X-12198D01*
X-15998D02*
X-15298D01*
X-19398D02*
X-18498D01*
X-21198D02*
X-20398D01*
X20102Y36850D02*
X20902D01*
X18202D02*
X19102D01*
X14902D02*
X15702D01*
X11902D02*
X12802D01*
X9802D02*
X10502D01*
X-10698D02*
X-9998D01*
X-12998D02*
X-12098D01*
X-15898D02*
X-15098D01*
X-19298D02*
X-18398D01*
X-21098D02*
X-20298D01*
X20002Y36950D02*
X20802D01*
X18102D02*
X18902D01*
X14802D02*
X15602D01*
X11802D02*
X12702D01*
X9702D02*
X10502D01*
X-10698D02*
X-9898D01*
X-12898D02*
X-11998D01*
X-15798D02*
X-14998D01*
X-19098D02*
X-18298D01*
X-20998D02*
X-20198D01*
X19902Y37050D02*
X20702D01*
X17902D02*
X18802D01*
X14702D02*
X15502D01*
X11602D02*
X12502D01*
X9602D02*
X10402D01*
X-10598D02*
X-9798D01*
X-12698D02*
X-11798D01*
X-15698D02*
X-14898D01*
X-18998D02*
X-18098D01*
X-20898D02*
X-20098D01*
X19802Y37150D02*
X20602D01*
X17802D02*
X18702D01*
X14602D02*
X15402D01*
X11502D02*
X12402D01*
X9602D02*
X10302D01*
X-10498D02*
X-9798D01*
X-12598D02*
X-11698D01*
X-15598D02*
X-14798D01*
X-18898D02*
X-17998D01*
X-20798D02*
X-19998D01*
X19802Y37250D02*
X20502D01*
X17702D02*
X18502D01*
X14502D02*
X15202D01*
X11302D02*
X12202D01*
X9502D02*
X10202D01*
X-10398D02*
X-9698D01*
X-12398D02*
X-11498D01*
X-15398D02*
X-14698D01*
X-18698D02*
X-17898D01*
X-20698D02*
X-19998D01*
X19702Y37350D02*
X20402D01*
X17602D02*
X18402D01*
X14402D02*
X15202D01*
X11202D02*
X12102D01*
X9402D02*
X10102D01*
X-10298D02*
X-9598D01*
X-12298D02*
X-11398D01*
X-15398D02*
X-14598D01*
X-18598D02*
X-17798D01*
X-20598D02*
X-19898D01*
X19602Y37450D02*
X20302D01*
X17402D02*
X18202D01*
X14302D02*
X15002D01*
X11102D02*
X12002D01*
X9302D02*
X10002D01*
X-10198D02*
X-9498D01*
X-12198D02*
X-11298D01*
X-15198D02*
X-14498D01*
X-18398D02*
X-17598D01*
X-20498D02*
X-19798D01*
X19502Y37550D02*
X20202D01*
X17302D02*
X18102D01*
X14202D02*
X15002D01*
X10902D02*
X11802D01*
X9202D02*
X9902D01*
X-10098D02*
X-9398D01*
X-11998D02*
X-11098D01*
X-15198D02*
X-14398D01*
X-18298D02*
X-17498D01*
X-20398D02*
X-19698D01*
X19402Y37650D02*
X20102D01*
X17102D02*
X18002D01*
X14102D02*
X14802D01*
X10702D02*
X11702D01*
X9102D02*
X9902D01*
X-10098D02*
X-9298D01*
X-11898D02*
X-10898D01*
X-14998D02*
X-14298D01*
X-18198D02*
X-17298D01*
X-20298D02*
X-19598D01*
X19302Y37750D02*
X20002D01*
X17002D02*
X17902D01*
X14002D02*
X14702D01*
X10602D02*
X11502D01*
X9002D02*
X9702D01*
X-9898D02*
X-9198D01*
X-11698D02*
X-10798D01*
X-14898D02*
X-14198D01*
X-18098D02*
X-17198D01*
X-20198D02*
X-19498D01*
X19202Y37850D02*
X19902D01*
X16902D02*
X17702D01*
X13902D02*
X14602D01*
X10502D02*
X11402D01*
X9002D02*
X9702D01*
X-9898D02*
X-9198D01*
X-11598D02*
X-10698D01*
X-14798D02*
X-14098D01*
X-17898D02*
X-17098D01*
X-20098D02*
X-19398D01*
X19102Y37950D02*
X19802D01*
X16702D02*
X17602D01*
X13802D02*
X14502D01*
X10302D02*
X11302D01*
X8902D02*
X9602D01*
X-9798D02*
X-9098D01*
X-11498D02*
X-10498D01*
X-14698D02*
X-13998D01*
X-17798D02*
X-16898D01*
X-19998D02*
X-19298D01*
X19002Y38050D02*
X19702D01*
X16602D02*
X17402D01*
X13702D02*
X14402D01*
X10202D02*
X11102D01*
X8802D02*
X9502D01*
X-9698D02*
X-8998D01*
X-11298D02*
X-10398D01*
X-14598D02*
X-13898D01*
X-17598D02*
X-16798D01*
X-19898D02*
X-19198D01*
X18902Y38150D02*
X19602D01*
X16502D02*
X17402D01*
X13602D02*
X14302D01*
X10002D02*
X10902D01*
X8702D02*
X9402D01*
X-9598D02*
X-8898D01*
X-11098D02*
X-10198D01*
X-14498D02*
X-13798D01*
X-17598D02*
X-16698D01*
X-19798D02*
X-19098D01*
X18802Y38250D02*
X19502D01*
X16402D02*
X17202D01*
X13502D02*
X14202D01*
X9902D02*
X10802D01*
X8602D02*
X9302D01*
X-9498D02*
X-8798D01*
X-10998D02*
X-10098D01*
X-14398D02*
X-13698D01*
X-17398D02*
X-16598D01*
X-19698D02*
X-18998D01*
X18702Y38350D02*
X19402D01*
X16202D02*
X17102D01*
X13302D02*
X14102D01*
X9702D02*
X10702D01*
X8602D02*
X9302D01*
X-9498D02*
X-8798D01*
X-10898D02*
X-9898D01*
X-14298D02*
X-13498D01*
X-17298D02*
X-16398D01*
X-19598D02*
X-18898D01*
X18602Y38450D02*
X19302D01*
X16002D02*
X16902D01*
X13302D02*
X14002D01*
X9502D02*
X10502D01*
X8502D02*
X9202D01*
X-9398D02*
X-8698D01*
X-10698D02*
X-9698D01*
X-14198D02*
X-13498D01*
X-17098D02*
X-16198D01*
X-19498D02*
X-18798D01*
X18502Y38550D02*
X19202D01*
X16002D02*
X16802D01*
X13202D02*
X13902D01*
X9402D02*
X10302D01*
X8402D02*
X9102D01*
X-9298D02*
X-8598D01*
X-10498D02*
X-9598D01*
X-14098D02*
X-13398D01*
X-16998D02*
X-16198D01*
X-19398D02*
X-18698D01*
X18402Y38650D02*
X19102D01*
X15802D02*
X16702D01*
X13002D02*
X13802D01*
X9202D02*
X10202D01*
X8302D02*
X9002D01*
X-9198D02*
X-8498D01*
X-10398D02*
X-9398D01*
X-13998D02*
X-13198D01*
X-16898D02*
X-15998D01*
X-19298D02*
X-18598D01*
X18202Y38750D02*
X19002D01*
X15602D02*
X16502D01*
X13002D02*
X13702D01*
X9002D02*
X10102D01*
X8302D02*
X8902D01*
X-9098D02*
X-8498D01*
X-10298D02*
X-9198D01*
X-13898D02*
X-13198D01*
X-16698D02*
X-15798D01*
X-19198D02*
X-18398D01*
X18102Y38850D02*
X18902D01*
X15602D02*
X16402D01*
X12802D02*
X13602D01*
X8202D02*
X9902D01*
X-10098D02*
X-8398D01*
X-13798D02*
X-12998D01*
X-16598D02*
X-15798D01*
X-19098D02*
X-18298D01*
X18002Y38950D02*
X18802D01*
X15402D02*
X16302D01*
X12802D02*
X13502D01*
X8202D02*
X9802D01*
X-9998D02*
X-8398D01*
X-13698D02*
X-12998D01*
X-16498D02*
X-15598D01*
X-18998D02*
X-18198D01*
X17902Y39050D02*
X18702D01*
X15302D02*
X16102D01*
X12602D02*
X13402D01*
X8202D02*
X9602D01*
X-9798D02*
X-8398D01*
X-13598D02*
X-12798D01*
X-16298D02*
X-15498D01*
X-18898D02*
X-18098D01*
X17902Y39150D02*
X18602D01*
X15202D02*
X16002D01*
X12502D02*
X13302D01*
X8202D02*
X9402D01*
X-9598D02*
X-8398D01*
X-13498D02*
X-12698D01*
X-16198D02*
X-15398D01*
X-18798D02*
X-18098D01*
X17802Y39250D02*
X18502D01*
X15002D02*
X15902D01*
X12402D02*
X13202D01*
X8202D02*
X9202D01*
X-9398D02*
X-8398D01*
X-13398D02*
X-12598D01*
X-16098D02*
X-15198D01*
X-18698D02*
X-17998D01*
X17702Y39350D02*
X18402D01*
X14902D02*
X15702D01*
X12302D02*
X13102D01*
X8202D02*
X9002D01*
X-9198D02*
X-8398D01*
X-13298D02*
X-12498D01*
X-15898D02*
X-15098D01*
X-18598D02*
X-17898D01*
X17602Y39450D02*
X18302D01*
X14802D02*
X15602D01*
X12202D02*
X12902D01*
X8202D02*
X8802D01*
X-8998D02*
X-8398D01*
X-13098D02*
X-12398D01*
X-15798D02*
X-14998D01*
X-18498D02*
X-17798D01*
X17502Y39550D02*
X18202D01*
X14602D02*
X15502D01*
X12102D02*
X12902D01*
X-13098D02*
X-12298D01*
X-15698D02*
X-14798D01*
X-18398D02*
X-17698D01*
X17402Y39650D02*
X18102D01*
X14502D02*
X15302D01*
X12002D02*
X12702D01*
X-12898D02*
X-12198D01*
X-15498D02*
X-14698D01*
X-18298D02*
X-17598D01*
X17302Y39750D02*
X18002D01*
X14402D02*
X15202D01*
X11902D02*
X12602D01*
X-12798D02*
X-12098D01*
X-15398D02*
X-14598D01*
X-18198D02*
X-17498D01*
X17202Y39850D02*
X17902D01*
X14202D02*
X15102D01*
X11802D02*
X12602D01*
X-12798D02*
X-11998D01*
X-15298D02*
X-14398D01*
X-18098D02*
X-17398D01*
X17102Y39950D02*
X17802D01*
X14002D02*
X14902D01*
X11702D02*
X12402D01*
X-12598D02*
X-11898D01*
X-15098D02*
X-14198D01*
X-17998D02*
X-17298D01*
X17002Y40050D02*
X17702D01*
X14002D02*
X14802D01*
X11602D02*
X12402D01*
X-12598D02*
X-11798D01*
X-14998D02*
X-14198D01*
X-17898D02*
X-17198D01*
X16902Y40150D02*
X17602D01*
X13802D02*
X14702D01*
X11502D02*
X12202D01*
X-12398D02*
X-11698D01*
X-14898D02*
X-13998D01*
X-17798D02*
X-17098D01*
X16802Y40250D02*
X17502D01*
X13702D02*
X14502D01*
X11402D02*
X12102D01*
X-12298D02*
X-11598D01*
X-14698D02*
X-13898D01*
X-17698D02*
X-16998D01*
X20402Y40350D02*
X21102D01*
X16702D02*
X17402D01*
X13602D02*
X14402D01*
X11302D02*
X12002D01*
X-12198D02*
X-11498D01*
X-14598D02*
X-13798D01*
X-17598D02*
X-16898D01*
X-21298D02*
X-20598D01*
X20102Y40450D02*
X21102D01*
X16602D02*
X17302D01*
X13402D02*
X14302D01*
X11202D02*
X11902D01*
X-12098D02*
X-11398D01*
X-14498D02*
X-13598D01*
X-17498D02*
X-16798D01*
X-21298D02*
X-20298D01*
X19902Y40550D02*
X21102D01*
X16502D02*
X17202D01*
X13302D02*
X14102D01*
X11102D02*
X11802D01*
X-11998D02*
X-11298D01*
X-14298D02*
X-13498D01*
X-17398D02*
X-16698D01*
X-21298D02*
X-20098D01*
X19702Y40650D02*
X21102D01*
X16402D02*
X17102D01*
X13202D02*
X14002D01*
X11002D02*
X11702D01*
X-11898D02*
X-11198D01*
X-14198D02*
X-13398D01*
X-17298D02*
X-16598D01*
X-21298D02*
X-19898D01*
X19502Y40750D02*
X21102D01*
X16302D02*
X17002D01*
X13002D02*
X13902D01*
X10902D02*
X11602D01*
X-11798D02*
X-11098D01*
X-14098D02*
X-13198D01*
X-17198D02*
X-16498D01*
X-21298D02*
X-19698D01*
X20602Y40850D02*
X21102D01*
X19402D02*
X20502D01*
X16202D02*
X16902D01*
X12902D02*
X13702D01*
X10802D02*
X11502D01*
X-11698D02*
X-10998D01*
X-13898D02*
X-13098D01*
X-17098D02*
X-16398D01*
X-20698D02*
X-19598D01*
X-21298D02*
X-20798D01*
X20502Y40950D02*
X21102D01*
X19202D02*
X20302D01*
X16102D02*
X16802D01*
X12802D02*
X13602D01*
X10702D02*
X11402D01*
X-11598D02*
X-10898D01*
X-13798D02*
X-12998D01*
X-16998D02*
X-16298D01*
X-20498D02*
X-19398D01*
X-21298D02*
X-20698D01*
X20502Y41050D02*
X21102D01*
X19002D02*
X20102D01*
X16002D02*
X16702D01*
X12602D02*
X13502D01*
X10602D02*
X11302D01*
X-11498D02*
X-10798D01*
X-13698D02*
X-12798D01*
X-16898D02*
X-16198D01*
X-20298D02*
X-19198D01*
X-21298D02*
X-20698D01*
X20402Y41150D02*
X21002D01*
X18902D02*
X19902D01*
X15902D02*
X16602D01*
X12502D02*
X13302D01*
X10502D02*
X11202D01*
X-11398D02*
X-10698D01*
X-13498D02*
X-12698D01*
X-16798D02*
X-16098D01*
X-20098D02*
X-19098D01*
X-21198D02*
X-20598D01*
X20402Y41250D02*
X21002D01*
X18702D02*
X19702D01*
X15802D02*
X16502D01*
X12402D02*
X13202D01*
X10402D02*
X11102D01*
X-11298D02*
X-10598D01*
X-13398D02*
X-12598D01*
X-16698D02*
X-15998D01*
X-19898D02*
X-18898D01*
X-21198D02*
X-20598D01*
X20302Y41350D02*
X20902D01*
X18502D02*
X19602D01*
X15702D02*
X16402D01*
X12202D02*
X13102D01*
X10202D02*
X11002D01*
X-11198D02*
X-10398D01*
X-13298D02*
X-12398D01*
X-16598D02*
X-15898D01*
X-19798D02*
X-18698D01*
X-21098D02*
X-20498D01*
X20202Y41450D02*
X20902D01*
X18402D02*
X19402D01*
X15602D02*
X16302D01*
X12102D02*
X12902D01*
X10202D02*
X10902D01*
X-11098D02*
X-10398D01*
X-13098D02*
X-12298D01*
X-16498D02*
X-15798D01*
X-19598D02*
X-18598D01*
X-21098D02*
X-20398D01*
X20202Y41550D02*
X20802D01*
X18202D02*
X19202D01*
X15502D02*
X16202D01*
X12002D02*
X12902D01*
X10002D02*
X10802D01*
X-10998D02*
X-10198D01*
X-13098D02*
X-12198D01*
X-16398D02*
X-15698D01*
X-19398D02*
X-18398D01*
X-20998D02*
X-20398D01*
X20102Y41650D02*
X20702D01*
X18002D02*
X19002D01*
X15402D02*
X16202D01*
X11802D02*
X12702D01*
X10002D02*
X10702D01*
X-10898D02*
X-10198D01*
X-12898D02*
X-11998D01*
X-16398D02*
X-15598D01*
X-19198D02*
X-18198D01*
X-20898D02*
X-20298D01*
X20002Y41750D02*
X20702D01*
X17902D02*
X18902D01*
X15302D02*
X16102D01*
X11702D02*
X12502D01*
X9802D02*
X10602D01*
X-10798D02*
X-9998D01*
X-12698D02*
X-11898D01*
X-16298D02*
X-15498D01*
X-19098D02*
X-18098D01*
X-20898D02*
X-20198D01*
X20002Y41850D02*
X20602D01*
X17702D02*
X18702D01*
X15202D02*
X16002D01*
X11602D02*
X12502D01*
X9802D02*
X10502D01*
X-10698D02*
X-9998D01*
X-12698D02*
X-11798D01*
X-16198D02*
X-15398D01*
X-18898D02*
X-17898D01*
X-20798D02*
X-20198D01*
X19902Y41950D02*
X20502D01*
X17602D02*
X18602D01*
X15102D02*
X15802D01*
X11402D02*
X12302D01*
X9602D02*
X10402D01*
X-10598D02*
X-9798D01*
X-12498D02*
X-11598D01*
X-15998D02*
X-15298D01*
X-18798D02*
X-17798D01*
X-20698D02*
X-20098D01*
X19802Y42050D02*
X20502D01*
X17402D02*
X18402D01*
X15002D02*
X15702D01*
X11302D02*
X12202D01*
X9502D02*
X10302D01*
X-10498D02*
X-9698D01*
X-12398D02*
X-11498D01*
X-15898D02*
X-15198D01*
X-18598D02*
X-17598D01*
X-20698D02*
X-19998D01*
X19802Y42150D02*
X20402D01*
X17302D02*
X18202D01*
X14902D02*
X15702D01*
X11102D02*
X12002D01*
X9502D02*
X10202D01*
X-10398D02*
X-9698D01*
X-12198D02*
X-11298D01*
X-15898D02*
X-15098D01*
X-18398D02*
X-17498D01*
X-20598D02*
X-19998D01*
X19702Y42250D02*
X20402D01*
X17102D02*
X18102D01*
X14802D02*
X15602D01*
X11102D02*
X11902D01*
X9302D02*
X10102D01*
X-10298D02*
X-9498D01*
X-12098D02*
X-11298D01*
X-15798D02*
X-14998D01*
X-18298D02*
X-17298D01*
X-20598D02*
X-19898D01*
X19602Y42350D02*
X20302D01*
X17002D02*
X17902D01*
X14702D02*
X15502D01*
X10902D02*
X11802D01*
X9202D02*
X10002D01*
X-10198D02*
X-9398D01*
X-11998D02*
X-11098D01*
X-15698D02*
X-14898D01*
X-18098D02*
X-17198D01*
X-20498D02*
X-19798D01*
X19602Y42450D02*
X20202D01*
X16802D02*
X17802D01*
X14702D02*
X15402D01*
X10802D02*
X11602D01*
X9102D02*
X9902D01*
X-10098D02*
X-9298D01*
X-11798D02*
X-10998D01*
X-15598D02*
X-14898D01*
X-17998D02*
X-16998D01*
X-20398D02*
X-19798D01*
X19502Y42550D02*
X20202D01*
X16602D02*
X17602D01*
X14502D02*
X15302D01*
X10602D02*
X11502D01*
X9002D02*
X9802D01*
X-9998D02*
X-9198D01*
X-11698D02*
X-10798D01*
X-15498D02*
X-14698D01*
X-17798D02*
X-16798D01*
X-20398D02*
X-19698D01*
X19402Y42650D02*
X20102D01*
X16502D02*
X17502D01*
X14402D02*
X15202D01*
X10502D02*
X11402D01*
X8902D02*
X9702D01*
X-9898D02*
X-9098D01*
X-11598D02*
X-10698D01*
X-15398D02*
X-14598D01*
X-17698D02*
X-16698D01*
X-20298D02*
X-19598D01*
X19402Y42750D02*
X20002D01*
X16302D02*
X17302D01*
X14402D02*
X15102D01*
X10302D02*
X11202D01*
X8802D02*
X9502D01*
X-9698D02*
X-8998D01*
X-11398D02*
X-10498D01*
X-15298D02*
X-14598D01*
X-17498D02*
X-16498D01*
X-20198D02*
X-19598D01*
X19302Y42850D02*
X20002D01*
X16202D02*
X17202D01*
X14302D02*
X15002D01*
X10202D02*
X11102D01*
X8702D02*
X9502D01*
X-9698D02*
X-8898D01*
X-11298D02*
X-10398D01*
X-15198D02*
X-14498D01*
X-17398D02*
X-16398D01*
X-20198D02*
X-19498D01*
X19302Y42950D02*
X19902D01*
X16002D02*
X17002D01*
X14202D02*
X14902D01*
X10102D02*
X11002D01*
X8602D02*
X9402D01*
X-9598D02*
X-8798D01*
X-11198D02*
X-10298D01*
X-15098D02*
X-14398D01*
X-17198D02*
X-16198D01*
X-20098D02*
X-19498D01*
X19202Y43050D02*
X19802D01*
X15902D02*
X16902D01*
X14102D02*
X14802D01*
X9902D02*
X10802D01*
X8502D02*
X9302D01*
X-9498D02*
X-8698D01*
X-10998D02*
X-10098D01*
X-14998D02*
X-14298D01*
X-17098D02*
X-16098D01*
X-19998D02*
X-19398D01*
X19202Y43150D02*
X19802D01*
X15702D02*
X16702D01*
X14002D02*
X14702D01*
X9802D02*
X10702D01*
X8402D02*
X9102D01*
X-9298D02*
X-8598D01*
X-10898D02*
X-9998D01*
X-14898D02*
X-14198D01*
X-16898D02*
X-15898D01*
X-19998D02*
X-19398D01*
X19102Y43250D02*
X19702D01*
X15602D02*
X16502D01*
X13902D02*
X14602D01*
X9702D02*
X10502D01*
X8302D02*
X9102D01*
X-9298D02*
X-8498D01*
X-10698D02*
X-9898D01*
X-14798D02*
X-14098D01*
X-16698D02*
X-15798D01*
X-19898D02*
X-19298D01*
X19102Y43350D02*
X19702D01*
X15402D02*
X16402D01*
X13802D02*
X14502D01*
X9502D02*
X10402D01*
X8202D02*
X9002D01*
X-9198D02*
X-8398D01*
X-10598D02*
X-9698D01*
X-14698D02*
X-13998D01*
X-16598D02*
X-15598D01*
X-19898D02*
X-19298D01*
X19002Y43450D02*
X19602D01*
X15202D02*
X16202D01*
X13702D02*
X14502D01*
X9402D02*
X10302D01*
X8102D02*
X8902D01*
X-9098D02*
X-8298D01*
X-10498D02*
X-9598D01*
X-14698D02*
X-13898D01*
X-16398D02*
X-15398D01*
X-19798D02*
X-19198D01*
X19002Y43550D02*
X19502D01*
X15102D02*
X16102D01*
X13602D02*
X14402D01*
X9302D02*
X10102D01*
X8002D02*
X8802D01*
X-8998D02*
X-8198D01*
X-10298D02*
X-9498D01*
X-14598D02*
X-13798D01*
X-16298D02*
X-15298D01*
X-19698D02*
X-19198D01*
X19002Y43650D02*
X19502D01*
X15002D02*
X15902D01*
X13502D02*
X14302D01*
X9102D02*
X10002D01*
X7902D02*
X8702D01*
X-8898D02*
X-8098D01*
X-10198D02*
X-9298D01*
X-14498D02*
X-13698D01*
X-16098D02*
X-15198D01*
X-19698D02*
X-19198D01*
X19002Y43750D02*
X19502D01*
X14802D02*
X15802D01*
X13502D02*
X14202D01*
X9002D02*
X9902D01*
X7802D02*
X8602D01*
X-8798D02*
X-7998D01*
X-10098D02*
X-9198D01*
X-14398D02*
X-13698D01*
X-15998D02*
X-14998D01*
X-19698D02*
X-19198D01*
X19702Y43850D02*
X20202D01*
X19002D02*
X19602D01*
X14602D02*
X15602D01*
X13402D02*
X14102D01*
X8902D02*
X9702D01*
X7702D02*
X8502D01*
X-8698D02*
X-7898D01*
X-9898D02*
X-9098D01*
X-14298D02*
X-13598D01*
X-15798D02*
X-14798D01*
X-19798D02*
X-19198D01*
X-20398D02*
X-19898D01*
X19002Y43950D02*
X20202D01*
X14402D02*
X15502D01*
X13302D02*
X14002D01*
X8702D02*
X9602D01*
X7602D02*
X8402D01*
X-8598D02*
X-7798D01*
X-9798D02*
X-8898D01*
X-14198D02*
X-13498D01*
X-15698D02*
X-14598D01*
X-20398D02*
X-19198D01*
X19002Y44050D02*
X20202D01*
X14302D02*
X15302D01*
X13202D02*
X13902D01*
X8602D02*
X9502D01*
X7502D02*
X8302D01*
X-8498D02*
X-7698D01*
X-9698D02*
X-8798D01*
X-14098D02*
X-13398D01*
X-15498D02*
X-14498D01*
X-20398D02*
X-19198D01*
X19002Y44150D02*
X20202D01*
X14102D02*
X15102D01*
X13102D02*
X13802D01*
X8402D02*
X9302D01*
X7402D02*
X8202D01*
X-8398D02*
X-7598D01*
X-9498D02*
X-8598D01*
X-13998D02*
X-13298D01*
X-15298D02*
X-14298D01*
X-20398D02*
X-19198D01*
X19202Y44250D02*
X20002D01*
X13902D02*
X15002D01*
X13102D02*
X13802D01*
X8302D02*
X9202D01*
X7302D02*
X8102D01*
X-8298D02*
X-7498D01*
X-9398D02*
X-8498D01*
X-13998D02*
X-13298D01*
X-15198D02*
X-14098D01*
X-20198D02*
X-19398D01*
X13802Y44350D02*
X14802D01*
X13002D02*
X13702D01*
X8102D02*
X9002D01*
X7302D02*
X8002D01*
X-8198D02*
X-7498D01*
X-9198D02*
X-8298D01*
X-13898D02*
X-13198D01*
X-14998D02*
X-13998D01*
X13002Y44450D02*
X14702D01*
X8002D02*
X8902D01*
X7202D02*
X7902D01*
X-8098D02*
X-7398D01*
X-9098D02*
X-8198D01*
X-14898D02*
X-13198D01*
X12902Y44550D02*
X14502D01*
X7902D02*
X8802D01*
X7002D02*
X7802D01*
X-7998D02*
X-7198D01*
X-8998D02*
X-8098D01*
X-14698D02*
X-13098D01*
X12902Y44650D02*
X14302D01*
X7002D02*
X8702D01*
X-8898D02*
X-7198D01*
X-14498D02*
X-13098D01*
X12902Y44750D02*
X14102D01*
X6902D02*
X8502D01*
X-8698D02*
X-7098D01*
X-14298D02*
X-13098D01*
X12902Y44850D02*
X13902D01*
X6802D02*
X8302D01*
X-8498D02*
X-6998D01*
X-14098D02*
X-13098D01*
X12902Y44950D02*
X13702D01*
X6702D02*
X8202D01*
X-8398D02*
X-6898D01*
X-13898D02*
X-13098D01*
X6602Y45050D02*
X8102D01*
X-8298D02*
X-6798D01*
X6502Y45150D02*
X7902D01*
X-8098D02*
X-6698D01*
X6502Y45250D02*
X7802D01*
X-7998D02*
X-6698D01*
X6402Y45350D02*
X7602D01*
X-7798D02*
X-6598D01*
X6302Y45450D02*
X7502D01*
X-7698D02*
X-6498D01*
X6302Y45550D02*
X7302D01*
X-7498D02*
X-6498D01*
X6302Y45650D02*
X7102D01*
X-7298D02*
X-6498D01*
X6302Y45750D02*
X7002D01*
X-7198D02*
X-6498D01*
D29*
X-7579Y-16929D02*
Y-15355D01*
X-6792D01*
X-6529Y-15617D01*
Y-16142D01*
X-6792Y-16404D01*
X-7579D01*
X-7054D02*
X-6529Y-16929D01*
X-2854D02*
Y-15880D01*
X-2330Y-15355D01*
X-1805Y-15880D01*
Y-16929D01*
Y-16142D01*
X-2854D01*
X1870Y-15355D02*
Y-16929D01*
X2657D01*
X2920Y-16667D01*
Y-16404D01*
X2657Y-16142D01*
X1870D01*
X2657D01*
X2920Y-15880D01*
Y-15617D01*
X2657Y-15355D01*
X1870D01*
X7644Y-15617D02*
X7382Y-15355D01*
X6857D01*
X6594Y-15617D01*
Y-16667D01*
X6857Y-16929D01*
X7382D01*
X7644Y-16667D01*
Y-16142D01*
X7119D01*
X-7579Y-26772D02*
Y-25197D01*
X-6792D01*
X-6529Y-25460D01*
Y-25984D01*
X-6792Y-26247D01*
X-7579D01*
X-7054D02*
X-6529Y-26772D01*
X-2854D02*
Y-25722D01*
X-2330Y-25197D01*
X-1805Y-25722D01*
Y-26772D01*
Y-25984D01*
X-2854D01*
X1870Y-25197D02*
Y-26772D01*
X2657D01*
X2920Y-26509D01*
Y-26247D01*
X2657Y-25984D01*
X1870D01*
X2657D01*
X2920Y-25722D01*
Y-25460D01*
X2657Y-25197D01*
X1870D01*
X7644Y-25460D02*
X7382Y-25197D01*
X6857D01*
X6594Y-25460D01*
Y-26509D01*
X6857Y-26772D01*
X7382D01*
X7644Y-26509D01*
Y-25984D01*
X7119D01*
M02*
