%FSLAX25Y25*%
%MOIN*%
G70*
G01*
G75*
G04 Layer_Physical_Order=1*
G04 Layer_Color=255*
%ADD10C,0.01969*%
%ADD11C,0.01575*%
%ADD12C,0.00984*%
%ADD13C,0.01181*%
%ADD14R,0.02953X0.02362*%
%ADD15R,0.07087X0.02756*%
%ADD16R,0.02362X0.02953*%
%ADD17C,0.07874*%
%ADD18C,0.05906*%
%ADD19C,0.03937*%
%ADD20R,0.05906X0.05906*%
%ADD21C,0.03543*%
%ADD22C,0.02362*%
G36*
X76796Y79134D02*
X76747D01*
X76772Y79321D01*
X76796Y79134D01*
D02*
G37*
G36*
X4724Y84646D02*
X2132Y82053D01*
X2158Y82026D01*
X1529Y81606D01*
X787Y81459D01*
Y81035D01*
X811D01*
X718Y80333D01*
X447Y79679D01*
X16Y79117D01*
X-19Y79115D01*
X-316Y79560D01*
X-420Y80084D01*
X-394Y80315D01*
X-375D01*
X-449Y80686D01*
X-659Y81000D01*
X-2756Y83071D01*
X-2723Y83104D01*
X-3846Y83965D01*
X-5154Y84507D01*
X-6558Y84692D01*
X4724Y84646D01*
D02*
G37*
G36*
X81496D02*
X81403Y84646D01*
X81125Y84591D01*
X80811Y84381D01*
X77607Y81150D01*
X77589Y81168D01*
X77132Y80572D01*
X76845Y79878D01*
X76772Y79321D01*
X76698Y79878D01*
X76411Y80572D01*
X75954Y81168D01*
X72719Y84367D01*
X72733Y84380D01*
X72418Y84591D01*
X72047Y84664D01*
X81403Y84646D01*
X81496Y84664D01*
Y84646D01*
D02*
G37*
G36*
X-72441D02*
X-75380Y81707D01*
X-75409Y81736D01*
X-76170Y80743D01*
X-76649Y79587D01*
X-76772Y78658D01*
X-76731Y78347D01*
X-76813D01*
X-76772Y78658D01*
X-76894Y79587D01*
X-77373Y80743D01*
X-78135Y81736D01*
X-80267Y83811D01*
X-80250Y83828D01*
X-80845Y84285D01*
X-81539Y84572D01*
X-82284Y84670D01*
X-72441Y84646D01*
D02*
G37*
D10*
X-47435Y-61024D02*
X-46332Y-60878D01*
X-45304Y-60453D01*
X-44421Y-59775D01*
X106108Y-61024D02*
X107212Y-60878D01*
X108240Y-60453D01*
X109123Y-59775D01*
X44421D02*
X45304Y-60453D01*
X46332Y-60878D01*
X47435Y-61024D01*
X-6490D02*
X-5387Y-60878D01*
X-4359Y-60453D01*
X-3476Y-59775D01*
X-109123D02*
X-108240Y-60453D01*
X-107212Y-60878D01*
X-106108Y-61024D01*
X43307Y-57087D02*
X43437Y-58071D01*
X43816Y-58987D01*
X44421Y-59775D01*
X-3476D02*
X-2871Y-58987D01*
X-2492Y-58071D01*
X-2362Y-57087D01*
X-44421Y-59775D02*
X-43816Y-58987D01*
X-43437Y-58071D01*
X-43307Y-57087D01*
X-43178Y-58071D01*
X-42798Y-58987D01*
X-42194Y-59775D01*
X39179Y-61024D02*
X40282Y-60878D01*
X41311Y-60453D01*
X42193Y-59775D01*
X-1249D02*
X-366Y-60453D01*
X662Y-60878D01*
X1766Y-61024D01*
X-42193Y-59775D02*
X-41311Y-60453D01*
X-40282Y-60878D01*
X-39179Y-61024D01*
X42194Y-59775D02*
X42798Y-58987D01*
X43178Y-58071D01*
X43307Y-57087D01*
X-2362D02*
X-2233Y-58071D01*
X-1853Y-58987D01*
X-1249Y-59775D01*
X-110236Y-57087D02*
X-110107Y-58071D01*
X-109727Y-58988D01*
X-109123Y-59775D01*
X109123D02*
X109727Y-58988D01*
X110107Y-58071D01*
X110236Y-57087D01*
X-984Y-12402D02*
X-1569Y-13115D01*
X-2004Y-13928D01*
X-2272Y-14810D01*
X-2362Y-15728D01*
X12109Y692D02*
X12818Y1556D01*
X13345Y2542D01*
X13670Y3612D01*
X13780Y4724D01*
X-106108Y-61024D02*
X106108D01*
X-984Y-12402D02*
X12109Y692D01*
X-2362Y-19685D02*
Y-15728D01*
Y-57087D02*
Y-29528D01*
Y-19685D01*
X-7087Y-43701D02*
Y-19685D01*
X2362Y-43701D02*
Y-29528D01*
Y-19685D01*
X7087Y-43701D02*
Y-19685D01*
X13780Y4724D02*
Y70866D01*
D11*
X1969Y82284D02*
X1284Y81481D01*
X733Y80582D01*
X329Y79608D01*
X83Y78583D01*
X0Y77531D01*
X-83Y78583D01*
X-329Y79608D01*
X-733Y80582D01*
X-1284Y81481D01*
X-1969Y82284D01*
X7671Y84646D02*
X6619Y84577D01*
X5584Y84371D01*
X4585Y84032D01*
X3639Y83565D01*
X2762Y82979D01*
X1969Y82284D01*
X-1969D02*
X-2762Y82979D01*
X-3639Y83565D01*
X-4585Y84032D01*
X-5584Y84371D01*
X-6619Y84577D01*
X-7671Y84646D01*
X78740Y82284D02*
X78055Y81481D01*
X77504Y80582D01*
X77101Y79608D01*
X76854Y78582D01*
X76772Y77531D01*
X84443Y84646D02*
X83390Y84577D01*
X82356Y84371D01*
X81357Y84032D01*
X80410Y83565D01*
X79533Y82979D01*
X78740Y82284D01*
X76772Y77531D02*
X76689Y78582D01*
X76443Y79608D01*
X76039Y80582D01*
X75488Y81481D01*
X74803Y82284D01*
X74010Y82979D01*
X73133Y83565D01*
X72187Y84032D01*
X71188Y84371D01*
X70153Y84577D01*
X69100Y84646D01*
X-74803Y82284D02*
X-75488Y81481D01*
X-76039Y80582D01*
X-76443Y79608D01*
X-76689Y78582D01*
X-76772Y77531D01*
X-69100Y84646D02*
X-70153Y84577D01*
X-71188Y84371D01*
X-72187Y84032D01*
X-73133Y83565D01*
X-74010Y82979D01*
X-74803Y82284D01*
X-78740D02*
X-79533Y82979D01*
X-80410Y83565D01*
X-81357Y84032D01*
X-82356Y84371D01*
X-83390Y84577D01*
X-84443Y84646D01*
X-76772Y77531D02*
X-76854Y78582D01*
X-77101Y79608D01*
X-77504Y80582D01*
X-78055Y81481D01*
X-78740Y82284D01*
X141732Y75332D02*
X141629Y76381D01*
X141323Y77390D01*
X140826Y78319D01*
X140157Y79134D01*
X136316Y82975D02*
X135452Y83685D01*
X134466Y84212D01*
X133396Y84536D01*
X132283Y84646D01*
X-133653D02*
X-134633Y84597D01*
X-135604Y84453D01*
X-136556Y84215D01*
X-137480Y83885D01*
X-138367Y83465D01*
X-139209Y82960D01*
X-139997Y82376D01*
X-140724Y81717D01*
X-146677Y75764D02*
X-147336Y75036D01*
X-147921Y74248D01*
X-148425Y73406D01*
X-148845Y72519D01*
X-149176Y71595D01*
X-149414Y70643D01*
X-149558Y69673D01*
X-149606Y68692D01*
X103144Y-9848D02*
X103788Y-9009D01*
X104193Y-8032D01*
X104331Y-6983D01*
X98622Y-14370D02*
X98050Y-15067D01*
X97626Y-15861D01*
X97364Y-16723D01*
X97276Y-17620D01*
X36215Y-9848D02*
X36859Y-9009D01*
X37264Y-8032D01*
X37402Y-6983D01*
X31693Y-14370D02*
X31121Y-15067D01*
X30697Y-15861D01*
X30435Y-16723D01*
X30347Y-17620D01*
X-50399Y-9848D02*
X-49755Y-9009D01*
X-49351Y-8032D01*
X-49213Y-6983D01*
X-54921Y-14370D02*
X-55493Y-15067D01*
X-55918Y-15861D01*
X-56179Y-16723D01*
X-56267Y-17620D01*
X-116142Y53303D02*
X-116291Y54437D01*
X-116729Y55494D01*
X-117426Y56402D01*
X-121850Y-14370D02*
X-122422Y-15067D01*
X-122847Y-15861D01*
X-123108Y-16723D01*
X-123196Y-17620D01*
X-117328Y-9848D02*
X-116684Y-9009D01*
X-116280Y-8032D01*
X-116142Y-6983D01*
X-111024Y68898D02*
X-111664Y68063D01*
X-112067Y67090D01*
X-112205Y66046D01*
X-104432Y73819D02*
X-105476Y73681D01*
X-106448Y73279D01*
X-107283Y72638D01*
X-116339Y-15551D02*
X-116998Y-16411D01*
X-117413Y-17412D01*
X-117555Y-18487D01*
X-113386Y-12598D02*
X-112745Y-11763D01*
X-112342Y-10791D01*
X-112205Y-9747D01*
X-102918Y-18487D02*
X-103059Y-17412D01*
X-103474Y-16411D01*
X-104134Y-15551D01*
X-108268Y-9747D02*
X-108130Y-10791D01*
X-107727Y-11763D01*
X-107087Y-12598D01*
X-107087Y60236D02*
X-107728Y59401D01*
X-108130Y58429D01*
X-108268Y57385D01*
X-101954Y63976D02*
X-102824Y63862D01*
X-103635Y63526D01*
X-104331Y62992D01*
X-104331Y-6983D02*
X-104193Y-8032D01*
X-103788Y-9009D01*
X-103144Y-9848D01*
X-103347Y6890D02*
X-103881Y6194D01*
X-104216Y5383D01*
X-104331Y4514D01*
X-90551Y-1969D02*
X-90642Y-1041D01*
X-90913Y-150D01*
X-91352Y672D01*
X-91943Y1392D01*
X-91633Y-34502D02*
X-91046Y-33737D01*
X-90677Y-32846D01*
X-90551Y-31890D01*
X-97276Y-17620D02*
X-97364Y-16723D01*
X-97626Y-15861D01*
X-98050Y-15067D01*
X-98622Y-14370D01*
X-92558Y-51157D02*
X-91535Y-51023D01*
X-90582Y-50628D01*
X-89764Y-50000D01*
X-88006Y-48242D02*
X-87415Y-47522D01*
X-86976Y-46701D01*
X-86705Y-45809D01*
X-86614Y-44882D01*
Y33858D02*
X-86744Y34842D01*
X-87124Y35759D01*
X-87728Y36547D01*
X-105346Y-55782D02*
X-104423Y-56490D01*
X-103349Y-56935D01*
X-102195Y-57087D01*
X-93403D02*
X-92359Y-56949D01*
X-91386Y-56546D01*
X-90551Y-55905D01*
X-83791Y-49145D02*
X-83187Y-48358D01*
X-82807Y-47441D01*
X-82677Y-46457D01*
X-82677Y39668D02*
X-82815Y40712D01*
X-83217Y41684D01*
X-83858Y42520D01*
X-129921Y13386D02*
X-129800Y12469D01*
X-129446Y11614D01*
X-128883Y10880D01*
X-128150Y10317D01*
X-127295Y9963D01*
X-126378Y9843D01*
X-126992Y71827D02*
X-127651Y71099D01*
X-128236Y70311D01*
X-128741Y69469D01*
X-129160Y68582D01*
X-129491Y67658D01*
X-129729Y66706D01*
X-129873Y65736D01*
X-129921Y64755D01*
X-129921Y-31890D02*
X-129795Y-32846D01*
X-129426Y-33737D01*
X-128839Y-34502D01*
X-128740Y-7480D02*
X-129380Y-8314D01*
X-129782Y-9286D01*
X-129920Y-10328D01*
X-121192Y68D02*
X-120588Y855D01*
X-120208Y1772D01*
X-120079Y2756D01*
Y6693D02*
X-120233Y7666D01*
X-120680Y8544D01*
X-121377Y9241D01*
X-122255Y9688D01*
X-123228Y9843D01*
X-130709Y-50000D02*
X-129890Y-50628D01*
X-128937Y-51023D01*
X-127915Y-51157D01*
X-133858Y-44882D02*
X-133767Y-45809D01*
X-133496Y-46701D01*
X-133057Y-47522D01*
X-132466Y-48242D01*
X-132677Y-2756D02*
X-133318Y-3591D01*
X-133721Y-4564D01*
X-133858Y-5607D01*
X-100394Y59055D02*
X-101413Y58921D01*
X-102362Y58528D01*
X-103178Y57902D01*
X-103803Y57087D01*
X-104197Y56137D01*
X-104331Y55118D01*
X-86614Y76676D02*
X-86752Y77720D01*
X-87154Y78692D01*
X-87795Y79528D01*
X-88630Y80168D01*
X-89603Y80571D01*
X-90647Y80709D01*
X-104331Y35039D02*
X-104201Y34055D01*
X-103821Y33138D01*
X-103217Y32351D01*
X-90551Y59055D02*
X-89532Y59189D01*
X-88583Y59583D01*
X-87767Y60208D01*
X-87142Y61024D01*
X-86748Y61973D01*
X-86614Y62992D01*
X-129921Y-55905D02*
X-129086Y-56546D01*
X-128113Y-56949D01*
X-127070Y-57087D01*
X-118277D02*
X-117124Y-56935D01*
X-116050Y-56490D01*
X-115127Y-55782D01*
X-137795Y-46457D02*
X-137666Y-47441D01*
X-137286Y-48358D01*
X-136682Y-49145D01*
X-136607Y1582D02*
X-137252Y742D01*
X-137657Y-237D01*
X-137795Y-1287D01*
X-134843Y3347D02*
X-134309Y4042D01*
X-133973Y4853D01*
X-133858Y5723D01*
X-129826Y80709D02*
X-130869Y80571D01*
X-131842Y80168D01*
X-132677Y79528D01*
X-133318Y78692D01*
X-133721Y77720D01*
X-133858Y76676D01*
X-44094Y68898D02*
X-44735Y68063D01*
X-45138Y67090D01*
X-45276Y66046D01*
X-37503Y73819D02*
X-38547Y73681D01*
X-39519Y73279D01*
X-40354Y72638D01*
X-49409Y-15551D02*
X-50069Y-16411D01*
X-50484Y-17412D01*
X-50625Y-18487D01*
X-46457Y-12598D02*
X-45816Y-11763D01*
X-45413Y-10791D01*
X-45276Y-9747D01*
X-35989Y-18487D02*
X-36130Y-17412D01*
X-36545Y-16411D01*
X-37205Y-15551D01*
X-41339Y-9747D02*
X-41201Y-10791D01*
X-40798Y-11763D01*
X-40157Y-12598D01*
X-40157Y60236D02*
X-40798Y59401D01*
X-41201Y58429D01*
X-41339Y57385D01*
X-35025Y63976D02*
X-35895Y63862D01*
X-36706Y63526D01*
X-37402Y62992D01*
X-37402Y-6983D02*
X-37264Y-8032D01*
X-36859Y-9009D01*
X-36215Y-9848D01*
X-36417Y6890D02*
X-36951Y6194D01*
X-37287Y5383D01*
X-37402Y4514D01*
X-23622Y-1969D02*
X-23713Y-1041D01*
X-23984Y-150D01*
X-24423Y672D01*
X-25014Y1392D01*
X-24704Y-34502D02*
X-24117Y-33737D01*
X-23748Y-32846D01*
X-23622Y-31890D01*
X-30347Y-17620D02*
X-30435Y-16723D01*
X-30697Y-15861D01*
X-31121Y-15067D01*
X-31693Y-14370D01*
X-25629Y-51157D02*
X-24606Y-51023D01*
X-23653Y-50628D01*
X-22835Y-50000D01*
X-21077Y-48242D02*
X-20486Y-47522D01*
X-20047Y-46701D01*
X-19776Y-45809D01*
X-19685Y-44882D01*
Y33858D02*
X-19815Y34842D01*
X-20194Y35759D01*
X-20799Y36547D01*
X-38416Y-55782D02*
X-37494Y-56490D01*
X-36419Y-56935D01*
X-35266Y-57087D01*
X-26474D02*
X-25430Y-56949D01*
X-24457Y-56546D01*
X-23622Y-55905D01*
X-16862Y-49145D02*
X-16257Y-48358D01*
X-15878Y-47441D01*
X-15748Y-46457D01*
X-15748Y39668D02*
X-15885Y40712D01*
X-16288Y41684D01*
X-16929Y42520D01*
X-49213Y53303D02*
X-49362Y54437D01*
X-49800Y55494D01*
X-50496Y56402D01*
X-62992Y13386D02*
X-62871Y12469D01*
X-62517Y11614D01*
X-61954Y10880D01*
X-61221Y10317D01*
X-60366Y9963D01*
X-59449Y9843D01*
X-60063Y71827D02*
X-60722Y71099D01*
X-61307Y70311D01*
X-61811Y69469D01*
X-62231Y68582D01*
X-62562Y67658D01*
X-62800Y66706D01*
X-62944Y65736D01*
X-62992Y64755D01*
X-62992Y-31890D02*
X-62866Y-32846D01*
X-62497Y-33737D01*
X-61910Y-34502D01*
X-61811Y-7480D02*
X-62451Y-8314D01*
X-62853Y-9286D01*
X-62991Y-10328D01*
X-54263Y68D02*
X-53659Y855D01*
X-53279Y1772D01*
X-53150Y2756D01*
Y6693D02*
X-53304Y7666D01*
X-53751Y8544D01*
X-54448Y9241D01*
X-55326Y9688D01*
X-56299Y9843D01*
X-63779Y-50000D02*
X-62961Y-50628D01*
X-62008Y-51023D01*
X-60985Y-51157D01*
X-66929Y-44882D02*
X-66838Y-45809D01*
X-66567Y-46701D01*
X-66128Y-47522D01*
X-65537Y-48242D01*
X-65748Y-2756D02*
X-66389Y-3591D01*
X-66792Y-4564D01*
X-66929Y-5607D01*
X-33465Y59055D02*
X-34484Y58921D01*
X-35433Y58528D01*
X-36248Y57902D01*
X-36874Y57087D01*
X-37267Y56137D01*
X-37402Y55118D01*
X-19685Y76676D02*
X-19823Y77720D01*
X-20225Y78692D01*
X-20866Y79528D01*
X-21701Y80168D01*
X-22674Y80571D01*
X-23718Y80709D01*
X-37402Y35039D02*
X-37272Y34055D01*
X-36892Y33138D01*
X-36288Y32351D01*
X-23622Y59055D02*
X-22603Y59189D01*
X-21654Y59583D01*
X-20838Y60208D01*
X-20212Y61024D01*
X-19819Y61973D01*
X-19685Y62992D01*
X-62992Y-55905D02*
X-62157Y-56546D01*
X-61184Y-56949D01*
X-60141Y-57087D01*
X-51348D02*
X-50195Y-56935D01*
X-49120Y-56490D01*
X-48198Y-55782D01*
X-70866Y-46457D02*
X-70737Y-47441D01*
X-70357Y-48358D01*
X-69753Y-49145D01*
X-69678Y1582D02*
X-70322Y742D01*
X-70728Y-237D01*
X-70866Y-1287D01*
X-67913Y3347D02*
X-67379Y4042D01*
X-67044Y4853D01*
X-66929Y5723D01*
X-62897Y80709D02*
X-63940Y80571D01*
X-64913Y80168D01*
X-65748Y79528D01*
X-66389Y78692D01*
X-66792Y77720D01*
X-66929Y76676D01*
X109449Y68898D02*
X108808Y68063D01*
X108405Y67090D01*
X108268Y66046D01*
X116040Y73819D02*
X114997Y73681D01*
X114024Y73279D01*
X113189Y72638D01*
X104134Y-15551D02*
X103474Y-16411D01*
X103059Y-17412D01*
X102918Y-18487D01*
X107087Y-12598D02*
X107727Y-11763D01*
X108130Y-10791D01*
X108268Y-9747D01*
X117555Y-18487D02*
X117413Y-17412D01*
X116998Y-16411D01*
X116339Y-15551D01*
X112205Y-9747D02*
X112342Y-10791D01*
X112745Y-11763D01*
X113386Y-12598D01*
X113386Y60236D02*
X112745Y59401D01*
X112342Y58429D01*
X112205Y57385D01*
X118518Y63976D02*
X117648Y63862D01*
X116838Y63526D01*
X116142Y62992D01*
X116142Y-6983D02*
X116280Y-8032D01*
X116684Y-9009D01*
X117328Y-9848D01*
X117126Y6890D02*
X116592Y6194D01*
X116256Y5383D01*
X116142Y4514D01*
X129921Y-1969D02*
X129830Y-1041D01*
X129560Y-150D01*
X129120Y672D01*
X128529Y1392D01*
X128839Y-34502D02*
X129426Y-33737D01*
X129795Y-32846D01*
X129921Y-31890D01*
X123196Y-17620D02*
X123108Y-16723D01*
X122847Y-15861D01*
X122422Y-15067D01*
X121850Y-14370D01*
X127915Y-51157D02*
X128937Y-51023D01*
X129890Y-50628D01*
X130709Y-50000D01*
X132466Y-48242D02*
X133057Y-47522D01*
X133496Y-46701D01*
X133767Y-45809D01*
X133858Y-44882D01*
Y33858D02*
X133729Y34842D01*
X133349Y35759D01*
X132745Y36547D01*
X115127Y-55782D02*
X116050Y-56490D01*
X117124Y-56935D01*
X118277Y-57087D01*
X127070D02*
X128113Y-56949D01*
X129086Y-56546D01*
X129921Y-55905D01*
X136682Y-49145D02*
X137286Y-48358D01*
X137666Y-47441D01*
X137795Y-46457D01*
X137795Y39668D02*
X137658Y40712D01*
X137255Y41684D01*
X136614Y42520D01*
X104331Y53303D02*
X104181Y54437D01*
X103744Y55494D01*
X103047Y56402D01*
X90551Y13386D02*
X90672Y12469D01*
X91026Y11614D01*
X91589Y10880D01*
X92323Y10317D01*
X93177Y9963D01*
X94095Y9843D01*
X93480Y71827D02*
X92821Y71099D01*
X92237Y70311D01*
X91732Y69469D01*
X91312Y68582D01*
X90982Y67658D01*
X90743Y66706D01*
X90599Y65736D01*
X90551Y64755D01*
X90551Y-31890D02*
X90677Y-32846D01*
X91046Y-33737D01*
X91633Y-34502D01*
X91732Y-7480D02*
X91092Y-8314D01*
X90690Y-9286D01*
X90553Y-10328D01*
X99280Y68D02*
X99884Y855D01*
X100264Y1772D01*
X100394Y2756D01*
Y6693D02*
X100240Y7666D01*
X99792Y8544D01*
X99095Y9241D01*
X98217Y9688D01*
X97244Y9843D01*
X89764Y-50000D02*
X90582Y-50628D01*
X91535Y-51023D01*
X92558Y-51157D01*
X86614Y-44882D02*
X86705Y-45809D01*
X86976Y-46701D01*
X87415Y-47522D01*
X88006Y-48242D01*
X87795Y-2756D02*
X87154Y-3591D01*
X86752Y-4564D01*
X86614Y-5607D01*
X120079Y59055D02*
X119060Y58921D01*
X118110Y58528D01*
X117295Y57902D01*
X116669Y57087D01*
X116276Y56137D01*
X116142Y55118D01*
X133858Y76676D02*
X133721Y77720D01*
X133318Y78692D01*
X132677Y79528D01*
X131842Y80168D01*
X130869Y80571D01*
X129826Y80709D01*
X116142Y35039D02*
X116271Y34055D01*
X116651Y33138D01*
X117255Y32351D01*
X129921Y59055D02*
X130940Y59189D01*
X131890Y59583D01*
X132705Y60208D01*
X133331Y61024D01*
X133724Y61973D01*
X133858Y62992D01*
X90551Y-55905D02*
X91386Y-56546D01*
X92359Y-56949D01*
X93403Y-57087D01*
X102195D02*
X103349Y-56935D01*
X104423Y-56490D01*
X105346Y-55782D01*
X82677Y-46457D02*
X82807Y-47441D01*
X83187Y-48358D01*
X83791Y-49145D01*
X83866Y1582D02*
X83221Y742D01*
X82815Y-237D01*
X82677Y-1287D01*
X85630Y3347D02*
X86164Y4042D01*
X86500Y4853D01*
X86614Y5723D01*
X90647Y80709D02*
X89603Y80571D01*
X88630Y80168D01*
X87795Y79528D01*
X87154Y78692D01*
X86752Y77720D01*
X86614Y76676D01*
X23718Y80709D02*
X22674Y80571D01*
X21701Y80168D01*
X20866Y79528D01*
X20225Y78692D01*
X19823Y77720D01*
X19685Y76676D01*
X18701Y3347D02*
X19235Y4042D01*
X19570Y4853D01*
X19685Y5723D01*
X16937Y1582D02*
X16292Y742D01*
X15886Y-237D01*
X15748Y-1287D01*
Y-46457D02*
X15878Y-47441D01*
X16257Y-48358D01*
X16862Y-49145D01*
X35266Y-57087D02*
X36419Y-56935D01*
X37494Y-56490D01*
X38416Y-55782D01*
X23622Y-55905D02*
X24457Y-56546D01*
X25430Y-56949D01*
X26474Y-57087D01*
X62992Y59055D02*
X64011Y59189D01*
X64961Y59583D01*
X65776Y60208D01*
X66402Y61024D01*
X66795Y61973D01*
X66929Y62992D01*
X49213Y35039D02*
X49342Y34055D01*
X49722Y33138D01*
X50326Y32351D01*
X66929Y76676D02*
X66792Y77720D01*
X66389Y78692D01*
X65748Y79528D01*
X64913Y80168D01*
X63940Y80571D01*
X62897Y80709D01*
X53150Y59055D02*
X52131Y58921D01*
X51181Y58528D01*
X50366Y57902D01*
X49740Y57087D01*
X49347Y56137D01*
X49213Y55118D01*
X20866Y-2756D02*
X20225Y-3591D01*
X19823Y-4564D01*
X19685Y-5607D01*
Y-44882D02*
X19776Y-45809D01*
X20047Y-46701D01*
X20486Y-47522D01*
X21077Y-48242D01*
X22835Y-50000D02*
X23653Y-50628D01*
X24606Y-51023D01*
X25629Y-51157D01*
X33465Y6693D02*
X33310Y7666D01*
X32863Y8544D01*
X32166Y9241D01*
X31288Y9688D01*
X30315Y9843D01*
X32351Y68D02*
X32955Y855D01*
X33335Y1772D01*
X33465Y2756D01*
X24803Y-7480D02*
X24163Y-8314D01*
X23761Y-9286D01*
X23624Y-10328D01*
X23622Y-31890D02*
X23748Y-32846D01*
X24117Y-33737D01*
X24704Y-34502D01*
X26551Y71827D02*
X25892Y71099D01*
X25307Y70311D01*
X24803Y69469D01*
X24383Y68582D01*
X24053Y67658D01*
X23814Y66706D01*
X23670Y65736D01*
X23622Y64755D01*
Y13386D02*
X23743Y12469D01*
X24097Y11614D01*
X24660Y10880D01*
X25394Y10317D01*
X26248Y9963D01*
X27165Y9843D01*
X37402Y53303D02*
X37252Y54437D01*
X36814Y55494D01*
X36118Y56402D01*
X70866Y39668D02*
X70729Y40712D01*
X70326Y41684D01*
X69685Y42520D01*
X69753Y-49145D02*
X70357Y-48358D01*
X70737Y-47441D01*
X70866Y-46457D01*
X60141Y-57087D02*
X61184Y-56949D01*
X62157Y-56546D01*
X62992Y-55905D01*
X48198Y-55782D02*
X49120Y-56490D01*
X50195Y-56935D01*
X51348Y-57087D01*
X66929Y33858D02*
X66800Y34842D01*
X66420Y35759D01*
X65816Y36547D01*
X65537Y-48242D02*
X66128Y-47522D01*
X66567Y-46701D01*
X66838Y-45809D01*
X66929Y-44882D01*
X60985Y-51157D02*
X62008Y-51023D01*
X62961Y-50628D01*
X63779Y-50000D01*
X56267Y-17620D02*
X56179Y-16723D01*
X55918Y-15861D01*
X55493Y-15067D01*
X54921Y-14370D01*
X61910Y-34502D02*
X62497Y-33737D01*
X62866Y-32846D01*
X62992Y-31890D01*
Y-1969D02*
X62901Y-1041D01*
X62630Y-150D01*
X62191Y672D01*
X61600Y1392D01*
X50197Y6890D02*
X49663Y6194D01*
X49327Y5383D01*
X49213Y4514D01*
X49213Y-6983D02*
X49351Y-8032D01*
X49755Y-9009D01*
X50399Y-9848D01*
X51589Y63976D02*
X50719Y63862D01*
X49909Y63526D01*
X49213Y62992D01*
X46457Y60236D02*
X45816Y59401D01*
X45413Y58429D01*
X45276Y57385D01*
Y-9747D02*
X45413Y-10791D01*
X45816Y-11763D01*
X46457Y-12598D01*
X50625Y-18487D02*
X50484Y-17412D01*
X50069Y-16411D01*
X49409Y-15551D01*
X40157Y-12598D02*
X40798Y-11763D01*
X41201Y-10791D01*
X41339Y-9747D01*
X37205Y-15551D02*
X36545Y-16411D01*
X36130Y-17412D01*
X35989Y-18487D01*
X49111Y73819D02*
X48068Y73681D01*
X47095Y73279D01*
X46260Y72638D01*
X42520Y68898D02*
X41879Y68063D01*
X41476Y67090D01*
X41339Y66046D01*
X0Y75866D02*
Y77531D01*
X84443Y84646D02*
X132283D01*
X69100D02*
X84443D01*
X-7671D02*
X69100D01*
X-69100D02*
X-7671D01*
X-84443D02*
X-69100D01*
X76772Y70866D02*
Y77531D01*
X-76772Y70866D02*
Y77531D01*
X-133653Y84646D02*
X-84443D01*
X141732Y37795D02*
Y75332D01*
X136316Y82975D02*
X140157Y79134D01*
X-146677Y75764D02*
X-140724Y81717D01*
X-149606Y62283D02*
Y68692D01*
X98622Y-14370D02*
X103144Y-9848D01*
X97276Y-30424D02*
Y-17620D01*
X104331Y-6983D02*
Y53303D01*
X31693Y-14370D02*
X36215Y-9848D01*
X30347Y-30424D02*
Y-17620D01*
X37402Y-6983D02*
Y53303D01*
X-54921Y-14370D02*
X-50399Y-9848D01*
X-56267Y-30424D02*
Y-17620D01*
X-49213Y-6983D02*
Y53303D01*
X-116142Y-6983D02*
Y53303D01*
X-123196Y-30424D02*
Y-17620D01*
X-121850Y-14370D02*
X-117328Y-9848D01*
X-111024Y68898D02*
X-107283Y72638D01*
X-104432Y73819D02*
X-95473D01*
X-117555Y-25426D02*
Y-18487D01*
X-112205Y-9747D02*
Y66046D01*
X-116339Y-15551D02*
X-113386Y-12598D01*
X-107087D02*
X-104134Y-15551D01*
X-102918Y-25426D02*
Y-18487D01*
X-108268Y-9747D02*
Y57385D01*
X-107087Y60236D02*
X-104331Y62992D01*
X-101954Y63976D02*
X-95472D01*
X-103144Y-9848D02*
X-98622Y-14370D01*
X-104331Y-6983D02*
Y4514D01*
X-103347Y6890D02*
X-95472Y14764D01*
X-97276Y-30424D02*
Y-17620D01*
X-95473Y4921D02*
X-91943Y1392D01*
X-94603Y-37472D02*
X-91633Y-34502D01*
X-90551Y-31890D02*
Y-1969D01*
X-99793Y-51157D02*
X-92558D01*
X-86614Y-44882D02*
Y33858D01*
X-95472Y44291D02*
X-87728Y36547D01*
X-89764Y-50000D02*
X-88006Y-48242D01*
X-95472Y54134D02*
X-83858Y42520D01*
X-106467Y-54660D02*
X-105346Y-55782D01*
X-82677Y-46457D02*
Y39668D01*
X-102195Y-57087D02*
X-93403D01*
X-90551Y-55905D02*
X-83791Y-49145D01*
X-125000Y63976D02*
X-117426Y56402D01*
X-129921Y13386D02*
Y64755D01*
X-126992Y71827D02*
X-125000Y73819D01*
X-126378Y9843D02*
X-123228D01*
X-128839Y-34502D02*
X-125869Y-37472D01*
X-129921Y-31890D02*
Y-10328D01*
X-128740Y-7480D02*
X-121192Y68D01*
X-120079Y2756D02*
Y6693D01*
X-132466Y-48242D02*
X-130709Y-50000D01*
X-127915Y-51157D02*
X-120679D01*
X-133858Y-44882D02*
Y-5607D01*
X-132677Y-2756D02*
X-125000Y4921D01*
X-100394Y59055D02*
X-90551D01*
X-104331Y35039D02*
Y55118D01*
X-103217Y32351D02*
X-95472Y24606D01*
X-86614Y62992D02*
Y76676D01*
X-136682Y-49145D02*
X-129921Y-55905D01*
X-127070Y-57087D02*
X-118277D01*
X-115127Y-55782D02*
X-114005Y-54660D01*
X-137795Y-46457D02*
Y-1287D01*
X-133858Y5723D02*
Y76676D01*
X-129826Y80709D02*
X-90647D01*
X-136607Y1582D02*
X-134843Y3347D01*
X-44094Y68898D02*
X-40354Y72638D01*
X-37503Y73819D02*
X-28543D01*
X-50625Y-25426D02*
Y-18487D01*
X-45276Y-9747D02*
Y66046D01*
X-49409Y-15551D02*
X-46457Y-12598D01*
X-40157D02*
X-37205Y-15551D01*
X-35989Y-25426D02*
Y-18487D01*
X-41339Y-9747D02*
Y57385D01*
X-40157Y60236D02*
X-37402Y62992D01*
X-35025Y63976D02*
X-28543D01*
X-36215Y-9848D02*
X-31693Y-14370D01*
X-37402Y-6983D02*
Y4514D01*
X-36417Y6890D02*
X-28543Y14764D01*
X-30347Y-30424D02*
Y-17620D01*
X-28543Y4921D02*
X-25014Y1392D01*
X-27674Y-37472D02*
X-24704Y-34502D01*
X-23622Y-31890D02*
Y-1969D01*
X-32864Y-51157D02*
X-25629D01*
X-19685Y-44882D02*
Y33858D01*
X-28543Y44291D02*
X-20799Y36547D01*
X-22835Y-50000D02*
X-21077Y-48242D01*
X-28543Y54134D02*
X-16929Y42520D01*
X-39538Y-54660D02*
X-38416Y-55782D01*
X-15748Y-46457D02*
Y39668D01*
X-35266Y-57087D02*
X-26474D01*
X-23622Y-55905D02*
X-16862Y-49145D01*
X-58071Y63976D02*
X-50496Y56402D01*
X-62992Y13386D02*
Y64755D01*
X-60063Y71827D02*
X-58071Y73819D01*
X-59449Y9843D02*
X-56299D01*
X-61910Y-34502D02*
X-58940Y-37472D01*
X-62992Y-31890D02*
Y-10328D01*
X-61811Y-7480D02*
X-54263Y68D01*
X-53150Y2756D02*
Y6693D01*
X-65537Y-48242D02*
X-63779Y-50000D01*
X-60985Y-51157D02*
X-53750D01*
X-66929Y-44882D02*
Y-5607D01*
X-65748Y-2756D02*
X-58071Y4921D01*
X-33465Y59055D02*
X-23622D01*
X-37402Y35039D02*
Y55118D01*
X-36288Y32351D02*
X-28543Y24606D01*
X-19685Y62992D02*
Y76676D01*
X-69753Y-49145D02*
X-62992Y-55905D01*
X-60141Y-57087D02*
X-51348D01*
X-70866Y-46457D02*
Y-1287D01*
X-66929Y5723D02*
Y76676D01*
X-62897Y80709D02*
X-23718D01*
X-69678Y1582D02*
X-67913Y3347D01*
X109449Y68898D02*
X113189Y72638D01*
X116040Y73819D02*
X125000D01*
X102918Y-25426D02*
Y-18487D01*
X108268Y-9747D02*
Y66046D01*
X104134Y-15551D02*
X107087Y-12598D01*
X113386D02*
X116339Y-15551D01*
X117555Y-25426D02*
Y-18487D01*
X112205Y-9747D02*
Y57385D01*
X113386Y60236D02*
X116142Y62992D01*
X118518Y63976D02*
X125000D01*
X117328Y-9848D02*
X121850Y-14370D01*
X116142Y-6983D02*
Y4514D01*
X117126Y6890D02*
X125000Y14764D01*
X123196Y-30424D02*
Y-17620D01*
X125000Y4921D02*
X128529Y1392D01*
X125869Y-37472D02*
X128839Y-34502D01*
X129921Y-31890D02*
Y-1969D01*
X120679Y-51157D02*
X127915D01*
X133858Y-44882D02*
Y33858D01*
X125000Y44291D02*
X132745Y36547D01*
X130709Y-50000D02*
X132466Y-48242D01*
X125000Y54134D02*
X136614Y42520D01*
X114005Y-54660D02*
X115127Y-55782D01*
X137795Y-46457D02*
Y39668D01*
X118277Y-57087D02*
X127070D01*
X129921Y-55905D02*
X136682Y-49145D01*
X95472Y63976D02*
X103047Y56402D01*
X90551Y13386D02*
Y64755D01*
X93480Y71827D02*
X95472Y73819D01*
X94095Y9843D02*
X97244D01*
X91633Y-34502D02*
X94603Y-37472D01*
X90551Y-31890D02*
Y-10328D01*
X91732Y-7480D02*
X99280Y68D01*
X100394Y2756D02*
Y6693D01*
X88006Y-48242D02*
X89764Y-50000D01*
X92558Y-51157D02*
X99793D01*
X86614Y-44882D02*
Y-5607D01*
X87795Y-2756D02*
X95472Y4921D01*
X120079Y59055D02*
X129921D01*
X116142Y35039D02*
Y55118D01*
X117255Y32351D02*
X125000Y24606D01*
X133858Y62992D02*
Y76676D01*
X83791Y-49145D02*
X90551Y-55905D01*
X93403Y-57087D02*
X102195D01*
X105346Y-55782D02*
X106467Y-54660D01*
X82677Y-46457D02*
Y-1287D01*
X86614Y5723D02*
Y76676D01*
X90647Y80709D02*
X129826D01*
X83866Y1582D02*
X85630Y3347D01*
X16937Y1582D02*
X18701Y3347D01*
X23718Y80709D02*
X62897D01*
X19685Y5723D02*
Y76676D01*
X15748Y-46457D02*
Y-1287D01*
X38416Y-55782D02*
X39538Y-54660D01*
X26474Y-57087D02*
X35266D01*
X16862Y-49145D02*
X23622Y-55905D01*
X66929Y62992D02*
Y76676D01*
X50326Y32351D02*
X58071Y24606D01*
X49213Y35039D02*
Y55118D01*
X53150Y59055D02*
X62992D01*
X20866Y-2756D02*
X28543Y4921D01*
X19685Y-44882D02*
Y-5607D01*
X25629Y-51157D02*
X32864D01*
X21077Y-48242D02*
X22835Y-50000D01*
X33465Y2756D02*
Y6693D01*
X24803Y-7480D02*
X32351Y68D01*
X23622Y-31890D02*
Y-10328D01*
X24704Y-34502D02*
X27674Y-37472D01*
X27165Y9843D02*
X30315D01*
X26551Y71827D02*
X28543Y73819D01*
X23622Y13386D02*
Y64755D01*
X28543Y63976D02*
X36118Y56402D01*
X62992Y-55905D02*
X69753Y-49145D01*
X51348Y-57087D02*
X60141D01*
X70866Y-46457D02*
Y39668D01*
X47076Y-54660D02*
X48198Y-55782D01*
X58071Y54134D02*
X69685Y42520D01*
X63779Y-50000D02*
X65537Y-48242D01*
X58071Y44291D02*
X65816Y36547D01*
X66929Y-44882D02*
Y33858D01*
X53750Y-51157D02*
X60985D01*
X62992Y-31890D02*
Y-1969D01*
X58940Y-37472D02*
X61910Y-34502D01*
X58071Y4921D02*
X61600Y1392D01*
X56267Y-30424D02*
Y-17620D01*
X50197Y6890D02*
X58071Y14764D01*
X49213Y-6983D02*
Y4514D01*
X50399Y-9848D02*
X54921Y-14370D01*
X51589Y63976D02*
X58071D01*
X46457Y60236D02*
X49213Y62992D01*
X45276Y-9747D02*
Y57385D01*
X50625Y-25426D02*
Y-18487D01*
X46457Y-12598D02*
X49409Y-15551D01*
X37205D02*
X40157Y-12598D01*
X41339Y-9747D02*
Y66046D01*
X35989Y-25426D02*
Y-18487D01*
X49111Y73819D02*
X58071D01*
X42520Y68898D02*
X46260Y72638D01*
D12*
X-110236Y-51277D02*
X-110374Y-50233D01*
X-110776Y-49260D01*
X-111417Y-48425D01*
X-43307Y-51277D02*
X-43444Y-50233D01*
X-43847Y-49260D01*
X-44488Y-48425D01*
X110236Y-51277D02*
X110099Y-50233D01*
X109696Y-49260D01*
X109055Y-48425D01*
X43307Y-51277D02*
X43170Y-50233D01*
X42767Y-49260D01*
X42126Y-48425D01*
X-110236Y-57087D02*
Y-51277D01*
X-112598Y-47244D02*
X-111417Y-48425D01*
X-45669Y-47244D02*
X-44488Y-48425D01*
X-43307Y-57087D02*
Y-51277D01*
X107874Y-47244D02*
X109055Y-48425D01*
X110236Y-57087D02*
Y-51277D01*
X40945Y-47244D02*
X42126Y-48425D01*
X43307Y-57087D02*
Y-51277D01*
D13*
X-110236Y-43307D02*
X-110107Y-44291D01*
X-109727Y-45208D01*
X-109123Y-45995D01*
X-107283Y-36417D02*
X-108196Y-36562D01*
X-109019Y-36981D01*
X-109672Y-37635D01*
X-110092Y-38458D01*
X-110236Y-39370D01*
X-43307Y-43307D02*
X-43178Y-44291D01*
X-42798Y-45208D01*
X-42193Y-45995D01*
X-40354Y-36417D02*
X-41267Y-36562D01*
X-42090Y-36981D01*
X-42743Y-37635D01*
X-43163Y-38458D01*
X-43307Y-39370D01*
X110236Y-43307D02*
X110366Y-44291D01*
X110746Y-45208D01*
X111350Y-45995D01*
X113189Y-36417D02*
X112276Y-36562D01*
X111453Y-36981D01*
X110800Y-37635D01*
X110381Y-38458D01*
X110236Y-39370D01*
X46260Y-36417D02*
X45347Y-36562D01*
X44524Y-36981D01*
X43871Y-37635D01*
X43452Y-38458D01*
X43307Y-39370D01*
Y-43307D02*
X43437Y-44291D01*
X43816Y-45208D01*
X44421Y-45995D01*
X-110236Y-43307D02*
Y-39370D01*
X-107283Y-36417D02*
X-103347D01*
X-109123Y-45995D02*
X-107874Y-47244D01*
X-43307Y-43307D02*
Y-39370D01*
X-40354Y-36417D02*
X-36417D01*
X-42194Y-45995D02*
X-40945Y-47244D01*
X110236Y-43307D02*
Y-39370D01*
X113189Y-36417D02*
X117126D01*
X111350Y-45995D02*
X112598Y-47244D01*
X44421Y-45995D02*
X45669Y-47244D01*
X46260Y-36417D02*
X50197D01*
X43307Y-43307D02*
Y-39370D01*
D14*
X112598Y-47244D02*
D03*
X107874D02*
D03*
X45669D02*
D03*
X40945D02*
D03*
X-40945D02*
D03*
X-45669D02*
D03*
X-107874D02*
D03*
X-112598D02*
D03*
D15*
X117126Y-42323D02*
D03*
Y-36417D02*
D03*
X103347Y-42323D02*
D03*
Y-36417D02*
D03*
X50197Y-42323D02*
D03*
Y-36417D02*
D03*
X36417Y-42323D02*
D03*
Y-36417D02*
D03*
X-36417Y-42323D02*
D03*
Y-36417D02*
D03*
X-50197Y-42323D02*
D03*
Y-36417D02*
D03*
X-103347Y-42323D02*
D03*
Y-36417D02*
D03*
X-117126Y-42323D02*
D03*
Y-36417D02*
D03*
D16*
X7087Y-48425D02*
D03*
Y-43701D02*
D03*
X2362Y-48425D02*
D03*
Y-43701D02*
D03*
X-7087Y-48425D02*
D03*
Y-43701D02*
D03*
D17*
X149606Y-47717D02*
D03*
Y-37716D02*
D03*
Y-27716D02*
D03*
Y-17717D02*
D03*
Y-7717D02*
D03*
Y32283D02*
D03*
Y22284D02*
D03*
Y12284D02*
D03*
Y2283D02*
D03*
Y42283D02*
D03*
Y52284D02*
D03*
Y62283D02*
D03*
X-149606Y-47717D02*
D03*
Y-37716D02*
D03*
Y-27716D02*
D03*
Y-17717D02*
D03*
Y-7717D02*
D03*
Y32283D02*
D03*
Y22284D02*
D03*
Y12284D02*
D03*
Y2283D02*
D03*
Y42283D02*
D03*
Y52284D02*
D03*
Y62283D02*
D03*
D18*
X95472Y54134D02*
D03*
Y63976D02*
D03*
Y44291D02*
D03*
Y34449D02*
D03*
Y24606D02*
D03*
Y14764D02*
D03*
X95473Y4921D02*
D03*
X125000D02*
D03*
X125000Y14764D02*
D03*
Y24606D02*
D03*
Y34449D02*
D03*
Y44291D02*
D03*
X125000Y73819D02*
D03*
X125000Y63976D02*
D03*
Y54134D02*
D03*
X95473Y73819D02*
D03*
X28543Y54134D02*
D03*
Y63976D02*
D03*
Y44291D02*
D03*
Y34449D02*
D03*
Y24606D02*
D03*
Y14764D02*
D03*
X28543Y4921D02*
D03*
X58071D02*
D03*
X58071Y14764D02*
D03*
Y24606D02*
D03*
Y34449D02*
D03*
Y44291D02*
D03*
X58071Y73819D02*
D03*
X58071Y63976D02*
D03*
Y54134D02*
D03*
X28543Y73819D02*
D03*
X-58071Y54134D02*
D03*
Y63976D02*
D03*
Y44291D02*
D03*
Y34449D02*
D03*
Y24606D02*
D03*
Y14764D02*
D03*
X-58071Y4921D02*
D03*
X-28543D02*
D03*
X-28543Y14764D02*
D03*
Y24606D02*
D03*
Y34449D02*
D03*
Y44291D02*
D03*
X-28543Y73819D02*
D03*
X-28543Y63976D02*
D03*
Y54134D02*
D03*
X-58071Y73819D02*
D03*
X-125000Y54134D02*
D03*
Y63976D02*
D03*
Y44291D02*
D03*
Y34449D02*
D03*
Y24606D02*
D03*
Y14764D02*
D03*
X-125000Y4921D02*
D03*
X-95473D02*
D03*
X-95472Y14764D02*
D03*
Y24606D02*
D03*
Y34449D02*
D03*
Y44291D02*
D03*
X-95473Y73819D02*
D03*
X-95472Y63976D02*
D03*
Y54134D02*
D03*
X-125000Y73819D02*
D03*
X0Y75866D02*
D03*
D19*
X106467Y-54660D02*
D03*
X99793Y-51157D02*
D03*
X95511Y-44954D02*
D03*
X94603Y-37472D02*
D03*
X97276Y-30424D02*
D03*
X102918Y-25426D02*
D03*
X114005Y-54660D02*
D03*
X120679Y-51157D02*
D03*
X124961Y-44954D02*
D03*
X125869Y-37472D02*
D03*
X123196Y-30424D02*
D03*
X117555Y-25426D02*
D03*
X110236Y-23622D02*
D03*
X-76772Y70866D02*
D03*
X76772D02*
D03*
X141732Y37795D02*
D03*
X-47076Y-54660D02*
D03*
X-53750Y-51157D02*
D03*
X-58032Y-44954D02*
D03*
X-58940Y-37472D02*
D03*
X-56267Y-30424D02*
D03*
X-50625Y-25426D02*
D03*
X-39538Y-54660D02*
D03*
X-32864Y-51157D02*
D03*
X-28582Y-44954D02*
D03*
X-27674Y-37472D02*
D03*
X-30347Y-30424D02*
D03*
X-35989Y-25426D02*
D03*
X-43307Y-23622D02*
D03*
X39538Y-54660D02*
D03*
X32864Y-51157D02*
D03*
X28582Y-44954D02*
D03*
X27674Y-37472D02*
D03*
X30347Y-30424D02*
D03*
X35989Y-25426D02*
D03*
X47076Y-54660D02*
D03*
X53750Y-51157D02*
D03*
X58032Y-44954D02*
D03*
X58940Y-37472D02*
D03*
X56267Y-30424D02*
D03*
X50625Y-25426D02*
D03*
X43307Y-23622D02*
D03*
X-114005Y-54660D02*
D03*
X-120679Y-51157D02*
D03*
X-124961Y-44954D02*
D03*
X-125869Y-37472D02*
D03*
X-123196Y-30424D02*
D03*
X-117555Y-25426D02*
D03*
X-106467Y-54660D02*
D03*
X-99793Y-51157D02*
D03*
X-95511Y-44954D02*
D03*
X-94603Y-37472D02*
D03*
X-97276Y-30424D02*
D03*
X-102918Y-25426D02*
D03*
X-110236Y-23622D02*
D03*
X13780Y70866D02*
D03*
D20*
X0Y65866D02*
D03*
D21*
X-2362Y-19685D02*
D03*
X2362D02*
D03*
X-7087D02*
D03*
X7087D02*
D03*
X-2362Y-29528D02*
D03*
X2362D02*
D03*
X-7087D02*
D03*
X7087D02*
D03*
D22*
X7087Y-48425D02*
D03*
X2362D02*
D03*
X-7087D02*
D03*
X38386Y-36417D02*
D03*
X48228Y-42323D02*
D03*
X38386D02*
D03*
X105315D02*
D03*
X115157D02*
D03*
X105315Y-36417D02*
D03*
X-48228Y-42323D02*
D03*
X-38386D02*
D03*
X-48228Y-36417D02*
D03*
X-115157Y-42323D02*
D03*
X-105315D02*
D03*
X-115157Y-36417D02*
D03*
M02*
